{
.appVersion = "1056";
customParameters = (
{
name = Axes;
value = (
{
Name = Weight;
Tag = wght;
}
);
}
);
date = "2018-10-04 12:50:48 +0000";
designer = "Alexandre Texier x Mael Sinic";
familyName = "Phototype-VariableColor";
featurePrefixes = (
{
automatic = 1;
code = "languagesystem DFLT dflt;\012";
name = Languagesystems;
}
);
fontMaster = (
{
ascender = 500;
capHeight = 500;
customParameters = (
{
name = "Color Palettes";
value = (
(
"0,150,57,255"
)
);
}
);
descender = -200;
guideLines = (
{
angle = 270;
locked = 1;
position = "{50, 600}";
},
{
angle = 270;
locked = 1;
position = "{950, 600}";
},
{
angle = 270;
locked = 1;
position = "{500, 600}";
},
{
locked = 1;
position = "{-171, 680}";
},
{
locked = 1;
position = "{-34, -180}";
},
{
locked = 1;
position = "{-180, 500}";
},
{
locked = 1;
position = "{-180, 250}";
},
{
locked = 1;
position = "{-180, 0}";
}
);
id = "ADA7F6FF-5955-4EF3-8FA7-BADC10F8EE4C";
userData = {
GSOffsetHorizontal = 45;
GSOffsetVertical = 10;
};
weightValue = 400;
width = Extended;
xHeight = 500;
},
{
ascender = 500;
capHeight = 500;
customParameters = (
{
name = "Color Palettes";
value = (
(
"0,150,57,255"
)
);
}
);
descender = -200;
id = "DB0132F3-CD2F-4AE3-8556-0788338384B9";
weight = Light;
weightValue = 300;
width = Extended;
xHeight = 500;
},
{
ascender = 500;
capHeight = 500;
customParameters = (
{
name = "Color Palettes";
value = (
(
"0,150,57,255"
)
);
}
);
descender = -200;
guideLines = (
{
angle = 270;
locked = 1;
position = "{50, 600}";
},
{
angle = 270;
locked = 1;
position = "{950, 600}";
},
{
angle = 270;
locked = 1;
position = "{500, 600}";
},
{
locked = 1;
position = "{-171, 680}";
},
{
locked = 1;
position = "{-34, -180}";
},
{
locked = 1;
position = "{-180, 500}";
},
{
locked = 1;
position = "{-180, 250}";
},
{
locked = 1;
position = "{-180, 0}";
}
);
id = "CD9C77F0-B5D7-44C5-837C-E198B13B6DCE";
userData = {
GSOffsetHorizontal = 45;
GSOffsetVertical = 10;
};
weight = Bold;
weightValue = 700;
width = Extended;

glyphs = (
{
glyphname = A;
lastChange = "2018-12-05 10:06:17 +0000";
layers = (
{
layerId = "ADA7F6FF-5955-4EF3-8FA7-BADC10F8EE4C";
paths = (
{
closed = 1;
nodes = (
"90 -45 OFFCURVE",
"103 -38 OFFCURVE",
"111 -27 CURVE SMOOTH",
"175 55 LINE",
"875 55 LINE",
"939 -27 LINE SMOOTH",
"947 -38 OFFCURVE",
"960 -45 OFFCURVE",
"975 -45 CURVE SMOOTH",
"1000 -45 OFFCURVE",
"1020 -25 OFFCURVE",
"1020 0 CURVE SMOOTH",
"1020 11 OFFCURVE",
"1016 20 OFFCURVE",
"1010 28 CURVE SMOOTH",
"638 505 LINE SMOOTH",
"625 521 OFFCURVE",
"616 530 OFFCURVE",
"603 536 CURVE SMOOTH",
"590 543 OFFCURVE",
"577 545 OFFCURVE",
"556 545 CURVE SMOOTH",
"494 545 LINE SMOOTH",
"473 545 OFFCURVE",
"460 543 OFFCURVE",
"447 536 CURVE SMOOTH",
"434 530 OFFCURVE",
"425 521 OFFCURVE",
"412 505 CURVE SMOOTH",
"40 28 LINE SMOOTH",
"34 20 OFFCURVE",
"30 11 OFFCURVE",
"30 0 CURVE SMOOTH",
"30 -25 OFFCURVE",
"50 -45 OFFCURVE",
"75 -45 CURVE SMOOTH"
);
},
{
closed = 1;
nodes = (
"487 455 LINE",
"563 455 LINE",
"805 145 LINE",
"245 145 LINE"
);
}
);
width = 1050;
},
{
layerId = "DB0132F3-CD2F-4AE3-8556-0788338384B9";
paths = (
{
closed = 1;
nodes = (
"50 -15 OFFCURVE",
"54 -13 OFFCURVE",
"57 -9 CURVE SMOOTH",
"127 85 LINE",
"863 85 LINE",
"933 -9 LINE SMOOTH",
"936 -13 OFFCURVE",
"940 -15 OFFCURVE",
"945 -15 CURVE SMOOTH",
"953 -15 OFFCURVE",
"960 -8 OFFCURVE",
"960 0 CURVE SMOOTH",
"960 3 OFFCURVE",
"959 6 OFFCURVE",
"957 9 CURVE SMOOTH",
"593 501 LINE SMOOTH",
"589 507 OFFCURVE",
"585 510 OFFCURVE",
"581 512 CURVE SMOOTH",
"577 514 OFFCURVE",
"572 515 OFFCURVE",
"565 515 CURVE SMOOTH",
"425 515 LINE SMOOTH",
"418 515 OFFCURVE",
"413 514 OFFCURVE",
"409 512 CURVE SMOOTH",
"405 510 OFFCURVE",
"401 507 OFFCURVE",
"397 501 CURVE SMOOTH",
"33 9 LINE SMOOTH",
"31 6 OFFCURVE",
"30 3 OFFCURVE",
"30 0 CURVE SMOOTH",
"30 -8 OFFCURVE",
"37 -15 OFFCURVE",
"45 -15 CURVE SMOOTH"
);
},
{
closed = 1;
nodes = (
"423 485 LINE",
"567 485 LINE",
"841 115 LINE",
"149 115 LINE"
);
}
);
width = 990;
},
{
layerId = "CD9C77F0-B5D7-44C5-837C-E198B13B6DCE";
paths = (
{
closed = 1;
nodes = (
"103 -55 OFFCURVE",
"120 -46 OFFCURVE",
"130 -32 CURVE SMOOTH",
"187 45 LINE",
"883 45 LINE",
"940 -32 LINE SMOOTH",
"950 -46 OFFCURVE",
"967 -55 OFFCURVE",
"985 -55 CURVE SMOOTH",
"1015 -55 OFFCURVE",
"1040 -30 OFFCURVE",
"1040 0 CURVE SMOOTH",
"1040 12 OFFCURVE",
"1036 24 OFFCURVE",
"1029 33 CURVE SMOOTH",
"681 504 LINE SMOOTH",
"665 525 OFFCURVE",
"653 536 OFFCURVE",
"637 544 CURVE SMOOTH",
"621 552 OFFCURVE",
"605 555 OFFCURVE",
"579 555 CURVE SMOOTH",
"491 555 LINE SMOOTH",
"465 555 OFFCURVE",
"449 552 OFFCURVE",
"433 544 CURVE SMOOTH",
"417 536 OFFCURVE",
"405 525 OFFCURVE",
"389 504 CURVE SMOOTH",
"41 33 LINE SMOOTH",
"34 24 OFFCURVE",
"30 12 OFFCURVE",
"30 0 CURVE SMOOTH",
"30 -30 OFFCURVE",
"55 -55 OFFCURVE",
"85 -55 CURVE SMOOTH"
);
},
{
closed = 1;
nodes = (
"483 445 LINE",
"587 445 LINE",
"802 155 LINE",
"268 155 LINE"
);
}
);
width = 1070;
},
{
associatedMasterId = "ADA7F6FF-5955-4EF3-8FA7-BADC10F8EE4C";
layerId = "9A60D744-6FB8-44FF-AFF3-3CA789699BBE";
name = "Color 0";
paths = (
{
closed = 1;
nodes = (
"90 -45 OFFCURVE",
"103 -38 OFFCURVE",
"111 -27 CURVE SMOOTH",
"175 55 LINE",
"875 55 LINE",
"939 -27 LINE SMOOTH",
"947 -38 OFFCURVE",
"960 -45 OFFCURVE",
"975 -45 CURVE SMOOTH",
"1000 -45 OFFCURVE",
"1020 -25 OFFCURVE",
"1020 0 CURVE SMOOTH",
"1020 11 OFFCURVE",
"1016 20 OFFCURVE",
"1010 28 CURVE SMOOTH",
"638 505 LINE SMOOTH",
"625 521 OFFCURVE",
"616 530 OFFCURVE",
"603 536 CURVE SMOOTH",
"590 543 OFFCURVE",
"577 545 OFFCURVE",
"556 545 CURVE SMOOTH",
"494 545 LINE SMOOTH",
"473 545 OFFCURVE",
"460 543 OFFCURVE",
"447 536 CURVE SMOOTH",
"434 530 OFFCURVE",
"425 521 OFFCURVE",
"412 505 CURVE SMOOTH",
"40 28 LINE SMOOTH",
"34 20 OFFCURVE",
"30 11 OFFCURVE",
"30 0 CURVE SMOOTH",
"30 -25 OFFCURVE",
"50 -45 OFFCURVE",
"75 -45 CURVE SMOOTH"
);
},
{
closed = 1;
nodes = (
"487 455 LINE",
"563 455 LINE",
"805 145 LINE",
"245 145 LINE"
);
}
);
visible = 1;
width = 1050;
},
{
associatedMasterId = "DB0132F3-CD2F-4AE3-8556-0788338384B9";
layerId = "012B847D-10DD-4491-928D-0855C561AC56";
name = "Color 0";
paths = (
{
closed = 1;
nodes = (
"50 -15 OFFCURVE",
"54 -13 OFFCURVE",
"57 -9 CURVE SMOOTH",
"127 85 LINE",
"863 85 LINE",
"933 -9 LINE SMOOTH",
"936 -13 OFFCURVE",
"940 -15 OFFCURVE",
"945 -15 CURVE SMOOTH",
"953 -15 OFFCURVE",
"960 -8 OFFCURVE",
"960 0 CURVE SMOOTH",
"960 3 OFFCURVE",
"959 6 OFFCURVE",
"957 9 CURVE SMOOTH",
"593 501 LINE SMOOTH",
"589 507 OFFCURVE",
"585 510 OFFCURVE",
"581 512 CURVE SMOOTH",
"577 514 OFFCURVE",
"572 515 OFFCURVE",
"565 515 CURVE SMOOTH",
"425 515 LINE SMOOTH",
"418 515 OFFCURVE",
"413 514 OFFCURVE",
"409 512 CURVE SMOOTH",
"405 510 OFFCURVE",
"401 507 OFFCURVE",
"397 501 CURVE SMOOTH",
"33 9 LINE SMOOTH",
"31 6 OFFCURVE",
"30 3 OFFCURVE",
"30 0 CURVE SMOOTH",
"30 -8 OFFCURVE",
"37 -15 OFFCURVE",
"45 -15 CURVE SMOOTH"
);
},
{
closed = 1;
nodes = (
"423 485 LINE",
"567 485 LINE",
"841 115 LINE",
"149 115 LINE"
);
}
);
visible = 1;
width = 990;
},
{
associatedMasterId = "CD9C77F0-B5D7-44C5-837C-E198B13B6DCE";
layerId = "FEAC6D7F-89DE-485B-801E-8234280DB9B5";
name = "Color 0";
paths = (
{
closed = 1;
nodes = (
"103 -55 OFFCURVE",
"120 -46 OFFCURVE",
"130 -32 CURVE SMOOTH",
"187 45 LINE",
"883 45 LINE",
"940 -32 LINE SMOOTH",
"950 -46 OFFCURVE",
"967 -55 OFFCURVE",
"985 -55 CURVE SMOOTH",
"1015 -55 OFFCURVE",
"1040 -30 OFFCURVE",
"1040 0 CURVE SMOOTH",
"1040 12 OFFCURVE",
"1036 24 OFFCURVE",
"1029 33 CURVE SMOOTH",
"681 504 LINE SMOOTH",
"665 525 OFFCURVE",
"653 536 OFFCURVE",
"637 544 CURVE SMOOTH",
"621 552 OFFCURVE",
"605 555 OFFCURVE",
"579 555 CURVE SMOOTH",
"491 555 LINE SMOOTH",
"465 555 OFFCURVE",
"449 552 OFFCURVE",
"433 544 CURVE SMOOTH",
"417 536 OFFCURVE",
"405 525 OFFCURVE",
"389 504 CURVE SMOOTH",
"41 33 LINE SMOOTH",
"34 24 OFFCURVE",
"30 12 OFFCURVE",
"30 0 CURVE SMOOTH",
"30 -30 OFFCURVE",
"55 -55 OFFCURVE",
"85 -55 CURVE SMOOTH"
);
},
{
closed = 1;
nodes = (
"483 445 LINE",
"587 445 LINE",
"802 155 LINE",
"268 155 LINE"
);
}
);
visible = 1;
width = 1070;
}
);
unicode = 0041;
},
{
glyphname = B;
lastChange = "2018-12-05 10:06:26 +0000";
layers = (
{
layerId = "ADA7F6FF-5955-4EF3-8FA7-BADC10F8EE4C";
paths = (
{
closed = 1;
nodes = (
"966 -46 OFFCURVE",
"981 -39 OFFCURVE",
"997 -24 CURVE SMOOTH",
"1013 -8 OFFCURVE",
"1020 8 OFFCURVE",
"1020 32 CURVE SMOOTH",
"1020 124 LINE SMOOTH",
"1020 208 OFFCURVE",
"970 272 OFFCURVE",
"895 290 CURVE",
"895 375 LINE SMOOTH",
"895 475 OFFCURVE",
"825 545 OFFCURVE",
"725 545 CURVE SMOOTH",
"108 545 LINE SMOOTH",
"84 545 OFFCURVE",
"68 538 OFFCURVE",
"53 523 CURVE SMOOTH",
"37 507 OFFCURVE",
"30 491 OFFCURVE",
"30 467 CURVE SMOOTH",
"30 33 LINE SMOOTH",
"30 9 OFFCURVE",
"37 -7 OFFCURVE",
"52 -23 CURVE SMOOTH",
"68 -38 OFFCURVE",
"84 -45 OFFCURVE",
"107 -45 CURVE SMOOTH",
"942 -46 LINE SMOOTH"
);
},
{
closed = 1;
nodes = (
"120 45 LINE",
"120 205 LINE",
"850 205 LINE SMOOTH",
"900 205 OFFCURVE",
"930 174 OFFCURVE",
"930 124 CURVE SMOOTH",
"930 44 LINE"
);
},
{
closed = 1;
nodes = (
"120 455 LINE",
"725 455 LINE SMOOTH",
"775 455 OFFCURVE",
"805 425 OFFCURVE",
"805 375 CURVE SMOOTH",
"805 295 LINE",
"120 295 LINE"
);
}
);
width = 1050;
},
{
layerId = "DB0132F3-CD2F-4AE3-8556-0788338384B9";
paths = (
{
closed = 1;
nodes = (
"942 -16 OFFCURVE",
"947 -14 OFFCURVE",
"952 -9 CURVE SMOOTH",
"958 -3 OFFCURVE",
"960 2 OFFCURVE",
"960 10 CURVE SMOOTH",
"960 124 LINE SMOOTH",
"960 202 OFFCURVE",
"910 258 OFFCURVE",
"835 264 CURVE",
"835 375 LINE SMOOTH",
"835 458 OFFCURVE",
"778 515 OFFCURVE",
"695 515 CURVE SMOOTH",
"56 515 LINE SMOOTH",
"48 515 OFFCURVE",
"43 513 OFFCURVE",
"38 508 CURVE SMOOTH",
"32 502 OFFCURVE",
"30 497 OFFCURVE",
"30 489 CURVE SMOOTH",
"30 11 LINE SMOOTH",
"30 3 OFFCURVE",
"32 -2 OFFCURVE",
"37 -8 CURVE SMOOTH",
"43 -13 OFFCURVE",
"48 -15 OFFCURVE",
"56 -15 CURVE SMOOTH",
"934 -16 LINE SMOOTH"
);
},
{
closed = 1;
nodes = (
"60 15 LINE",
"60 235 LINE",
"820 235 LINE SMOOTH",
"886 235 OFFCURVE",
"930 191 OFFCURVE",
"930 124 CURVE SMOOTH",
"930 14 LINE"
);
},
{
closed = 1;
nodes = (
"60 485 LINE",
"695 485 LINE SMOOTH",
"762 485 OFFCURVE",
"805 442 OFFCURVE",
"805 375 CURVE SMOOTH",
"805 265 LINE",
"60 265 LINE"
);
}
);
width = 990;
},
{
layerId = "CD9C77F0-B5D7-44C5-837C-E198B13B6DCE";
paths = (
{
closed = 1;
nodes = (
"973 -56 OFFCURVE",
"993 -48 OFFCURVE",
"1012 -29 CURVE SMOOTH",
"1032 -9 OFFCURVE",
"1040 11 OFFCURVE",
"1040 39 CURVE SMOOTH",
"1040 124 LINE SMOOTH",
"1040 210 OFFCURVE",
"990 276 OFFCURVE",
"915 298 CURVE",
"915 375 LINE SMOOTH",
"915 480 OFFCURVE",
"840 555 OFFCURVE",
"735 555 CURVE SMOOTH",
"125 555 LINE SMOOTH",
"97 555 OFFCURVE",
"77 547 OFFCURVE",
"58 528 CURVE SMOOTH",
"38 508 OFFCURVE",
"30 488 OFFCURVE",
"30 460 CURVE SMOOTH",
"30 40 LINE SMOOTH",
"30 11 OFFCURVE",
"38 -8 OFFCURVE",
"57 -28 CURVE SMOOTH",
"77 -47 OFFCURVE",
"96 -55 OFFCURVE",
"125 -55 CURVE SMOOTH",
"945 -56 LINE SMOOTH"
);
},
{
closed = 1;
nodes = (
"140 55 LINE",
"140 195 LINE",
"860 195 LINE SMOOTH",
"904 195 OFFCURVE",
"930 169 OFFCURVE",
"930 124 CURVE SMOOTH",
"930 54 LINE"
);
},
{
closed = 1;
nodes = (
"140 445 LINE",
"735 445 LINE SMOOTH",
"780 445 OFFCURVE",
"805 420 OFFCURVE",
"805 375 CURVE SMOOTH",
"805 305 LINE",
"140 305 LINE"
);
}
);
width = 1070;
},
{
associatedMasterId = "ADA7F6FF-5955-4EF3-8FA7-BADC10F8EE4C";
layerId = "7F9D0F42-9F61-482A-A938-F86A931DA022";
name = "Color 0";
paths = (
{
closed = 1;
nodes = (
"966 -46 OFFCURVE",
"981 -39 OFFCURVE",
"997 -24 CURVE SMOOTH",
"1013 -8 OFFCURVE",
"1020 8 OFFCURVE",
"1020 32 CURVE SMOOTH",
"1020 124 LINE SMOOTH",
"1020 208 OFFCURVE",
"970 272 OFFCURVE",
"895 290 CURVE",
"895 375 LINE SMOOTH",
"895 475 OFFCURVE",
"825 545 OFFCURVE",
"725 545 CURVE SMOOTH",
"108 545 LINE SMOOTH",
"84 545 OFFCURVE",
"68 538 OFFCURVE",
"53 523 CURVE SMOOTH",
"37 507 OFFCURVE",
"30 491 OFFCURVE",
"30 467 CURVE SMOOTH",
"30 33 LINE SMOOTH",
"30 9 OFFCURVE",
"37 -7 OFFCURVE",
"52 -23 CURVE SMOOTH",
"68 -38 OFFCURVE",
"84 -45 OFFCURVE",
"107 -45 CURVE SMOOTH",
"942 -46 LINE SMOOTH"
);
},
{
closed = 1;
nodes = (
"120 45 LINE",
"120 205 LINE",
"850 205 LINE SMOOTH",
"900 205 OFFCURVE",
"930 174 OFFCURVE",
"930 124 CURVE SMOOTH",
"930 44 LINE"
);
},
{
closed = 1;
nodes = (
"120 455 LINE",
"725 455 LINE SMOOTH",
"775 455 OFFCURVE",
"805 425 OFFCURVE",
"805 375 CURVE SMOOTH",
"805 295 LINE",
"120 295 LINE"
);
}
);
visible = 1;
width = 1050;
},
{
associatedMasterId = "DB0132F3-CD2F-4AE3-8556-0788338384B9";
layerId = "CEAE719B-05A3-4CC4-BB95-4D1008F065EE";
name = "Color 0";
paths = (
{
closed = 1;
nodes = (
"942 -16 OFFCURVE",
"947 -14 OFFCURVE",
"952 -9 CURVE SMOOTH",
"958 -3 OFFCURVE",
"960 2 OFFCURVE",
"960 10 CURVE SMOOTH",
"960 124 LINE SMOOTH",
"960 202 OFFCURVE",
"910 258 OFFCURVE",
"835 264 CURVE",
"835 375 LINE SMOOTH",
"835 458 OFFCURVE",
"778 515 OFFCURVE",
"695 515 CURVE SMOOTH",
"56 515 LINE SMOOTH",
"48 515 OFFCURVE",
"43 513 OFFCURVE",
"38 508 CURVE SMOOTH",
"32 502 OFFCURVE",
"30 497 OFFCURVE",
"30 489 CURVE SMOOTH",
"30 11 LINE SMOOTH",
"30 3 OFFCURVE",
"32 -2 OFFCURVE",
"37 -8 CURVE SMOOTH",
"43 -13 OFFCURVE",
"48 -15 OFFCURVE",
"56 -15 CURVE SMOOTH",
"934 -16 LINE SMOOTH"
);
},
{
closed = 1;
nodes = (
"60 15 LINE",
"60 235 LINE",
"820 235 LINE SMOOTH",
"886 235 OFFCURVE",
"930 191 OFFCURVE",
"930 124 CURVE SMOOTH",
"930 14 LINE"
);
},
{
closed = 1;
nodes = (
"60 485 LINE",
"695 485 LINE SMOOTH",
"762 485 OFFCURVE",
"805 442 OFFCURVE",
"805 375 CURVE SMOOTH",
"805 265 LINE",
"60 265 LINE"
);
}
);
visible = 1;
width = 990;
},
{
associatedMasterId = "CD9C77F0-B5D7-44C5-837C-E198B13B6DCE";
layerId = "9F5EF47F-DEB6-4B3E-90DE-BF01DF13750D";
name = "Color 0";
paths = (
{
closed = 1;
nodes = (
"973 -56 OFFCURVE",
"993 -48 OFFCURVE",
"1012 -29 CURVE SMOOTH",
"1032 -9 OFFCURVE",
"1040 11 OFFCURVE",
"1040 39 CURVE SMOOTH",
"1040 124 LINE SMOOTH",
"1040 210 OFFCURVE",
"990 276 OFFCURVE",
"915 298 CURVE",
"915 375 LINE SMOOTH",
"915 480 OFFCURVE",
"840 555 OFFCURVE",
"735 555 CURVE SMOOTH",
"125 555 LINE SMOOTH",
"97 555 OFFCURVE",
"77 547 OFFCURVE",
"58 528 CURVE SMOOTH",
"38 508 OFFCURVE",
"30 488 OFFCURVE",
"30 460 CURVE SMOOTH",
"30 40 LINE SMOOTH",
"30 11 OFFCURVE",
"38 -8 OFFCURVE",
"57 -28 CURVE SMOOTH",
"77 -47 OFFCURVE",
"96 -55 OFFCURVE",
"125 -55 CURVE SMOOTH",
"945 -56 LINE SMOOTH"
);
},
{
closed = 1;
nodes = (
"140 55 LINE",
"140 195 LINE",
"860 195 LINE SMOOTH",
"904 195 OFFCURVE",
"930 169 OFFCURVE",
"930 124 CURVE SMOOTH",
"930 54 LINE"
);
},
{
closed = 1;
nodes = (
"140 445 LINE",
"735 445 LINE SMOOTH",
"780 445 OFFCURVE",
"805 420 OFFCURVE",
"805 375 CURVE SMOOTH",
"805 305 LINE",
"140 305 LINE"
);
}
);
visible = 1;
width = 1070;
}
);
unicode = 0042;
},
{
glyphname = C;
lastChange = "2018-12-05 10:06:34 +0000";
layers = (
{
layerId = "ADA7F6FF-5955-4EF3-8FA7-BADC10F8EE4C";
paths = (
{
closed = 1;
nodes = (
"975 -45 LINE SMOOTH",
"1000 -45 OFFCURVE",
"1020 -25 OFFCURVE",
"1020 0 CURVE SMOOTH",
"1020 25 OFFCURVE",
"1000 45 OFFCURVE",
"975 45 CURVE SMOOTH",
"120 45 LINE",
"120 455 LINE",
"975 455 LINE SMOOTH",
"1000 455 OFFCURVE",
"1020 475 OFFCURVE",
"1020 500 CURVE SMOOTH",
"1020 525 OFFCURVE",
"1000 545 OFFCURVE",
"975 545 CURVE SMOOTH",
"108 545 LINE SMOOTH",
"84 545 OFFCURVE",
"68 538 OFFCURVE",
"53 523 CURVE SMOOTH",
"37 507 OFFCURVE",
"30 491 OFFCURVE",
"30 467 CURVE SMOOTH",
"30 33 LINE SMOOTH",
"30 9 OFFCURVE",
"37 -7 OFFCURVE",
"53 -23 CURVE SMOOTH",
"68 -38 OFFCURVE",
"84 -45 OFFCURVE",
"108 -45 CURVE SMOOTH"
);
}
);
width = 1050;
},
{
layerId = "DB0132F3-CD2F-4AE3-8556-0788338384B9";
paths = (
{
closed = 1;
nodes = (
"945 -15 LINE SMOOTH",
"953 -15 OFFCURVE",
"960 -8 OFFCURVE",
"960 0 CURVE SMOOTH",
"960 8 OFFCURVE",
"953 15 OFFCURVE",
"945 15 CURVE SMOOTH",
"60 15 LINE",
"60 485 LINE",
"945 485 LINE SMOOTH",
"953 485 OFFCURVE",
"960 492 OFFCURVE",
"960 500 CURVE SMOOTH",
"960 508 OFFCURVE",
"953 515 OFFCURVE",
"945 515 CURVE SMOOTH",
"56 515 LINE SMOOTH",
"48 515 OFFCURVE",
"43 513 OFFCURVE",
"38 508 CURVE SMOOTH",
"32 502 OFFCURVE",
"30 497 OFFCURVE",
"30 489 CURVE SMOOTH",
"30 11 LINE SMOOTH",
"30 3 OFFCURVE",
"32 -2 OFFCURVE",
"38 -8 CURVE SMOOTH",
"43 -13 OFFCURVE",
"48 -15 OFFCURVE",
"56 -15 CURVE SMOOTH"
);
}
);
width = 990;
},
{
layerId = "CD9C77F0-B5D7-44C5-837C-E198B13B6DCE";
paths = (
{
closed = 1;
nodes = (
"985 -55 LINE SMOOTH",
"1015 -55 OFFCURVE",
"1040 -30 OFFCURVE",
"1040 0 CURVE SMOOTH",
"1040 30 OFFCURVE",
"1015 55 OFFCURVE",
"985 55 CURVE SMOOTH",
"140 55 LINE",
"140 445 LINE",
"985 445 LINE SMOOTH",
"1015 445 OFFCURVE",
"1040 470 OFFCURVE",
"1040 500 CURVE SMOOTH",
"1040 530 OFFCURVE",
"1015 555 OFFCURVE",
"985 555 CURVE SMOOTH",
"125 555 LINE SMOOTH",
"97 555 OFFCURVE",
"77 547 OFFCURVE",
"58 528 CURVE SMOOTH",
"38 508 OFFCURVE",
"30 488 OFFCURVE",
"30 460 CURVE SMOOTH",
"30 40 LINE SMOOTH",
"30 12 OFFCURVE",
"38 -8 OFFCURVE",
"58 -28 CURVE SMOOTH",
"77 -47 OFFCURVE",
"97 -55 OFFCURVE",
"125 -55 CURVE SMOOTH"
);
}
);
width = 1070;
},
{
associatedMasterId = "ADA7F6FF-5955-4EF3-8FA7-BADC10F8EE4C";
layerId = "93258F3D-BA30-4338-B4C8-A6CA05BACFC2";
name = "Color 0";
paths = (
{
closed = 1;
nodes = (
"975 -45 LINE SMOOTH",
"1000 -45 OFFCURVE",
"1020 -25 OFFCURVE",
"1020 0 CURVE SMOOTH",
"1020 25 OFFCURVE",
"1000 45 OFFCURVE",
"975 45 CURVE SMOOTH",
"120 45 LINE",
"120 455 LINE",
"975 455 LINE SMOOTH",
"1000 455 OFFCURVE",
"1020 475 OFFCURVE",
"1020 500 CURVE SMOOTH",
"1020 525 OFFCURVE",
"1000 545 OFFCURVE",
"975 545 CURVE SMOOTH",
"108 545 LINE SMOOTH",
"84 545 OFFCURVE",
"68 538 OFFCURVE",
"53 523 CURVE SMOOTH",
"37 507 OFFCURVE",
"30 491 OFFCURVE",
"30 467 CURVE SMOOTH",
"30 33 LINE SMOOTH",
"30 9 OFFCURVE",
"37 -7 OFFCURVE",
"53 -23 CURVE SMOOTH",
"68 -38 OFFCURVE",
"84 -45 OFFCURVE",
"108 -45 CURVE SMOOTH"
);
}
);
visible = 1;
width = 1050;
},
{
associatedMasterId = "DB0132F3-CD2F-4AE3-8556-0788338384B9";
layerId = "42AEC365-0797-4469-ACC2-60C1CB653E95";
name = "Color 0";
paths = (
{
closed = 1;
nodes = (
"945 -15 LINE SMOOTH",
"953 -15 OFFCURVE",
"960 -8 OFFCURVE",
"960 0 CURVE SMOOTH",
"960 8 OFFCURVE",
"953 15 OFFCURVE",
"945 15 CURVE SMOOTH",
"60 15 LINE",
"60 485 LINE",
"945 485 LINE SMOOTH",
"953 485 OFFCURVE",
"960 492 OFFCURVE",
"960 500 CURVE SMOOTH",
"960 508 OFFCURVE",
"953 515 OFFCURVE",
"945 515 CURVE SMOOTH",
"56 515 LINE SMOOTH",
"48 515 OFFCURVE",
"43 513 OFFCURVE",
"38 508 CURVE SMOOTH",
"32 502 OFFCURVE",
"30 497 OFFCURVE",
"30 489 CURVE SMOOTH",
"30 11 LINE SMOOTH",
"30 3 OFFCURVE",
"32 -2 OFFCURVE",
"38 -8 CURVE SMOOTH",
"43 -13 OFFCURVE",
"48 -15 OFFCURVE",
"56 -15 CURVE SMOOTH"
);
}
);
visible = 1;
width = 990;
},
{
associatedMasterId = "CD9C77F0-B5D7-44C5-837C-E198B13B6DCE";
layerId = "81EF884A-3CD2-4861-80D5-470C39642442";
name = "Color 0";
paths = (
{
closed = 1;
nodes = (
"985 -55 LINE SMOOTH",
"1015 -55 OFFCURVE",
"1040 -30 OFFCURVE",
"1040 0 CURVE SMOOTH",
"1040 30 OFFCURVE",
"1015 55 OFFCURVE",
"985 55 CURVE SMOOTH",
"140 55 LINE",
"140 445 LINE",
"985 445 LINE SMOOTH",
"1015 445 OFFCURVE",
"1040 470 OFFCURVE",
"1040 500 CURVE SMOOTH",
"1040 530 OFFCURVE",
"1015 555 OFFCURVE",
"985 555 CURVE SMOOTH",
"125 555 LINE SMOOTH",
"97 555 OFFCURVE",
"77 547 OFFCURVE",
"58 528 CURVE SMOOTH",
"38 508 OFFCURVE",
"30 488 OFFCURVE",
"30 460 CURVE SMOOTH",
"30 40 LINE SMOOTH",
"30 12 OFFCURVE",
"38 -8 OFFCURVE",
"58 -28 CURVE SMOOTH",
"77 -47 OFFCURVE",
"97 -55 OFFCURVE",
"125 -55 CURVE SMOOTH"
);
}
);
visible = 1;
width = 1070;
}
);
unicode = 0043;
},
{
glyphname = D;
lastChange = "2018-12-05 10:06:40 +0000";
layers = (
{
layerId = "ADA7F6FF-5955-4EF3-8FA7-BADC10F8EE4C";
paths = (
{
closed = 1;
nodes = (
"850 -45 LINE SMOOTH",
"950 -45 OFFCURVE",
"1020 25 OFFCURVE",
"1020 125 CURVE SMOOTH",
"1020 375 LINE SMOOTH",
"1020 475 OFFCURVE",
"950 545 OFFCURVE",
"850 545 CURVE SMOOTH",
"107 543 LINE SMOOTH",
"84 543 OFFCURVE",
"68 536 OFFCURVE",
"52 521 CURVE SMOOTH",
"36 505 OFFCURVE",
"30 489 OFFCURVE",
"30 465 CURVE SMOOTH",
"30 31 LINE SMOOTH",
"30 7 OFFCURVE",
"37 -9 OFFCURVE",
"53 -25 CURVE SMOOTH",
"69 -40 OFFCURVE",
"85 -47 OFFCURVE",
"108 -47 CURVE SMOOTH"
);
},
{
closed = 1;
nodes = (
"120 453 LINE",
"850 455 LINE SMOOTH",
"900 455 OFFCURVE",
"930 425 OFFCURVE",
"930 375 CURVE SMOOTH",
"930 125 LINE SMOOTH",
"930 75 OFFCURVE",
"900 45 OFFCURVE",
"850 45 CURVE SMOOTH",
"120 43 LINE"
);
}
);
width = 1050;
},
{
layerId = "DB0132F3-CD2F-4AE3-8556-0788338384B9";
paths = (
{
closed = 1;
nodes = (
"820 -15 LINE SMOOTH",
"903 -15 OFFCURVE",
"960 42 OFFCURVE",
"960 125 CURVE SMOOTH",
"960 375 LINE SMOOTH",
"960 458 OFFCURVE",
"903 515 OFFCURVE",
"820 515 CURVE SMOOTH",
"56 515 LINE SMOOTH",
"48 515 OFFCURVE",
"43 513 OFFCURVE",
"38 508 CURVE SMOOTH",
"32 502 OFFCURVE",
"30 497 OFFCURVE",
"30 489 CURVE SMOOTH",
"30 11 LINE SMOOTH",
"30 3 OFFCURVE",
"32 -2 OFFCURVE",
"38 -8 CURVE SMOOTH",
"43 -13 OFFCURVE",
"48 -15 OFFCURVE",
"56 -15 CURVE SMOOTH"
);
},
{
closed = 1;
nodes = (
"60 485 LINE",
"820 485 LINE SMOOTH",
"887 485 OFFCURVE",
"930 442 OFFCURVE",
"930 375 CURVE SMOOTH",
"930 125 LINE SMOOTH",
"930 58 OFFCURVE",
"887 15 OFFCURVE",
"820 15 CURVE SMOOTH",
"60 15 LINE"
);
}
);
width = 990;
},
{
layerId = "CD9C77F0-B5D7-44C5-837C-E198B13B6DCE";
paths = (
{
closed = 1;
nodes = (
"860 -55 LINE SMOOTH",
"965 -55 OFFCURVE",
"1040 20 OFFCURVE",
"1040 125 CURVE SMOOTH",
"1040 375 LINE SMOOTH",
"1040 480 OFFCURVE",
"965 555 OFFCURVE",
"860 555 CURVE SMOOTH",
"125 555 LINE SMOOTH",
"97 555 OFFCURVE",
"77 547 OFFCURVE",
"58 528 CURVE SMOOTH",
"38 508 OFFCURVE",
"30 488 OFFCURVE",
"30 460 CURVE SMOOTH",
"30 40 LINE SMOOTH",
"30 12 OFFCURVE",
"38 -8 OFFCURVE",
"58 -28 CURVE SMOOTH",
"77 -47 OFFCURVE",
"97 -55 OFFCURVE",
"125 -55 CURVE SMOOTH"
);
},
{
closed = 1;
nodes = (
"140 445 LINE",
"860 445 LINE SMOOTH",
"905 445 OFFCURVE",
"930 420 OFFCURVE",
"930 375 CURVE SMOOTH",
"930 125 LINE SMOOTH",
"930 80 OFFCURVE",
"905 55 OFFCURVE",
"860 55 CURVE SMOOTH",
"140 55 LINE"
);
}
);
width = 1070;
},
{
associatedMasterId = "ADA7F6FF-5955-4EF3-8FA7-BADC10F8EE4C";
layerId = "A5E1AD2B-AE7E-4174-B38B-51697BBCB447";
name = "Color 0";
paths = (
{
closed = 1;
nodes = (
"850 -45 LINE SMOOTH",
"950 -45 OFFCURVE",
"1020 25 OFFCURVE",
"1020 125 CURVE SMOOTH",
"1020 375 LINE SMOOTH",
"1020 475 OFFCURVE",
"950 545 OFFCURVE",
"850 545 CURVE SMOOTH",
"107 543 LINE SMOOTH",
"84 543 OFFCURVE",
"68 536 OFFCURVE",
"52 521 CURVE SMOOTH",
"36 505 OFFCURVE",
"30 489 OFFCURVE",
"30 465 CURVE SMOOTH",
"30 31 LINE SMOOTH",
"30 7 OFFCURVE",
"37 -9 OFFCURVE",
"53 -25 CURVE SMOOTH",
"69 -40 OFFCURVE",
"85 -47 OFFCURVE",
"108 -47 CURVE SMOOTH"
);
},
{
closed = 1;
nodes = (
"120 453 LINE",
"850 455 LINE SMOOTH",
"900 455 OFFCURVE",
"930 425 OFFCURVE",
"930 375 CURVE SMOOTH",
"930 125 LINE SMOOTH",
"930 75 OFFCURVE",
"900 45 OFFCURVE",
"850 45 CURVE SMOOTH",
"120 43 LINE"
);
}
);
visible = 1;
width = 1050;
},
{
associatedMasterId = "DB0132F3-CD2F-4AE3-8556-0788338384B9";
layerId = "B001BF61-AE4B-41BC-904D-CBA58850B41B";
name = "Color 0";
paths = (
{
closed = 1;
nodes = (
"820 -15 LINE SMOOTH",
"903 -15 OFFCURVE",
"960 42 OFFCURVE",
"960 125 CURVE SMOOTH",
"960 375 LINE SMOOTH",
"960 458 OFFCURVE",
"903 515 OFFCURVE",
"820 515 CURVE SMOOTH",
"56 515 LINE SMOOTH",
"48 515 OFFCURVE",
"43 513 OFFCURVE",
"38 508 CURVE SMOOTH",
"32 502 OFFCURVE",
"30 497 OFFCURVE",
"30 489 CURVE SMOOTH",
"30 11 LINE SMOOTH",
"30 3 OFFCURVE",
"32 -2 OFFCURVE",
"38 -8 CURVE SMOOTH",
"43 -13 OFFCURVE",
"48 -15 OFFCURVE",
"56 -15 CURVE SMOOTH"
);
},
{
closed = 1;
nodes = (
"60 485 LINE",
"820 485 LINE SMOOTH",
"887 485 OFFCURVE",
"930 442 OFFCURVE",
"930 375 CURVE SMOOTH",
"930 125 LINE SMOOTH",
"930 58 OFFCURVE",
"887 15 OFFCURVE",
"820 15 CURVE SMOOTH",
"60 15 LINE"
);
}
);
visible = 1;
width = 990;
},
{
associatedMasterId = "CD9C77F0-B5D7-44C5-837C-E198B13B6DCE";
layerId = "B36A7DF5-EDCE-4714-AA46-35AEADE47F30";
name = "Color 0";
paths = (
{
closed = 1;
nodes = (
"860 -55 LINE SMOOTH",
"965 -55 OFFCURVE",
"1040 20 OFFCURVE",
"1040 125 CURVE SMOOTH",
"1040 375 LINE SMOOTH",
"1040 480 OFFCURVE",
"965 555 OFFCURVE",
"860 555 CURVE SMOOTH",
"125 555 LINE SMOOTH",
"97 555 OFFCURVE",
"77 547 OFFCURVE",
"58 528 CURVE SMOOTH",
"38 508 OFFCURVE",
"30 488 OFFCURVE",
"30 460 CURVE SMOOTH",
"30 40 LINE SMOOTH",
"30 12 OFFCURVE",
"38 -8 OFFCURVE",
"58 -28 CURVE SMOOTH",
"77 -47 OFFCURVE",
"97 -55 OFFCURVE",
"125 -55 CURVE SMOOTH"
);
},
{
closed = 1;
nodes = (
"140 445 LINE",
"860 445 LINE SMOOTH",
"905 445 OFFCURVE",
"930 420 OFFCURVE",
"930 375 CURVE SMOOTH",
"930 125 LINE SMOOTH",
"930 80 OFFCURVE",
"905 55 OFFCURVE",
"860 55 CURVE SMOOTH",
"140 55 LINE"
);
}
);
visible = 1;
width = 1070;
}
);
unicode = 0044;
},
{
glyphname = E;
lastChange = "2018-12-05 10:06:47 +0000";
layers = (
{
layerId = "ADA7F6FF-5955-4EF3-8FA7-BADC10F8EE4C";
paths = (
{
closed = 1;
nodes = (
"975 -45 LINE SMOOTH",
"1000 -45 OFFCURVE",
"1020 -25 OFFCURVE",
"1020 0 CURVE SMOOTH",
"1020 25 OFFCURVE",
"1000 45 OFFCURVE",
"975 45 CURVE SMOOTH",
"120 45 LINE",
"120 205 LINE",
"975 205 LINE SMOOTH",
"1000 205 OFFCURVE",
"1020 225 OFFCURVE",
"1020 250 CURVE SMOOTH",
"1020 275 OFFCURVE",
"1000 295 OFFCURVE",
"975 295 CURVE SMOOTH",
"120 295 LINE",
"120 455 LINE",
"975 455 LINE SMOOTH",
"1000 455 OFFCURVE",
"1020 475 OFFCURVE",
"1020 500 CURVE SMOOTH",
"1020 525 OFFCURVE",
"1000 545 OFFCURVE",
"975 545 CURVE SMOOTH",
"108 545 LINE SMOOTH",
"84 545 OFFCURVE",
"68 538 OFFCURVE",
"53 523 CURVE SMOOTH",
"37 507 OFFCURVE",
"30 491 OFFCURVE",
"30 467 CURVE SMOOTH",
"30 33 LINE SMOOTH",
"30 9 OFFCURVE",
"37 -7 OFFCURVE",
"53 -23 CURVE SMOOTH",
"68 -38 OFFCURVE",
"84 -45 OFFCURVE",
"108 -45 CURVE SMOOTH"
);
}
);
width = 1050;
},
{
layerId = "DB0132F3-CD2F-4AE3-8556-0788338384B9";
paths = (
{
closed = 1;
nodes = (
"945 -15 LINE SMOOTH",
"953 -15 OFFCURVE",
"960 -8 OFFCURVE",
"960 0 CURVE SMOOTH",
"960 8 OFFCURVE",
"953 15 OFFCURVE",
"945 15 CURVE SMOOTH",
"60 15 LINE",
"60 235 LINE",
"945 235 LINE SMOOTH",
"953 235 OFFCURVE",
"960 242 OFFCURVE",
"960 250 CURVE SMOOTH",
"960 258 OFFCURVE",
"953 265 OFFCURVE",
"945 265 CURVE SMOOTH",
"60 265 LINE",
"60 485 LINE",
"945 485 LINE SMOOTH",
"953 485 OFFCURVE",
"960 492 OFFCURVE",
"960 500 CURVE SMOOTH",
"960 508 OFFCURVE",
"953 515 OFFCURVE",
"945 515 CURVE SMOOTH",
"56 515 LINE SMOOTH",
"48 515 OFFCURVE",
"43 513 OFFCURVE",
"38 508 CURVE SMOOTH",
"32 502 OFFCURVE",
"30 497 OFFCURVE",
"30 489 CURVE SMOOTH",
"30 11 LINE SMOOTH",
"30 3 OFFCURVE",
"32 -2 OFFCURVE",
"38 -8 CURVE SMOOTH",
"43 -13 OFFCURVE",
"48 -15 OFFCURVE",
"56 -15 CURVE SMOOTH"
);
}
);
width = 990;
},
{
layerId = "CD9C77F0-B5D7-44C5-837C-E198B13B6DCE";
paths = (
{
closed = 1;
nodes = (
"985 -55 LINE SMOOTH",
"1015 -55 OFFCURVE",
"1040 -30 OFFCURVE",
"1040 0 CURVE SMOOTH",
"1040 30 OFFCURVE",
"1015 55 OFFCURVE",
"985 55 CURVE SMOOTH",
"140 55 LINE",
"140 195 LINE",
"985 195 LINE SMOOTH",
"1015 195 OFFCURVE",
"1040 220 OFFCURVE",
"1040 250 CURVE SMOOTH",
"1040 280 OFFCURVE",
"1015 305 OFFCURVE",
"985 305 CURVE SMOOTH",
"140 305 LINE",
"140 445 LINE",
"985 445 LINE SMOOTH",
"1015 445 OFFCURVE",
"1040 470 OFFCURVE",
"1040 500 CURVE SMOOTH",
"1040 530 OFFCURVE",
"1015 555 OFFCURVE",
"985 555 CURVE SMOOTH",
"125 555 LINE SMOOTH",
"97 555 OFFCURVE",
"77 547 OFFCURVE",
"58 528 CURVE SMOOTH",
"38 508 OFFCURVE",
"30 488 OFFCURVE",
"30 460 CURVE SMOOTH",
"30 40 LINE SMOOTH",
"30 12 OFFCURVE",
"38 -8 OFFCURVE",
"58 -28 CURVE SMOOTH",
"77 -47 OFFCURVE",
"97 -55 OFFCURVE",
"125 -55 CURVE SMOOTH"
);
}
);
width = 1070;
},
{
associatedMasterId = "ADA7F6FF-5955-4EF3-8FA7-BADC10F8EE4C";
layerId = "6120CEF0-3193-4396-9570-0A9BC0B05860";
name = "Color 0";
paths = (
{
closed = 1;
nodes = (
"975 -45 LINE SMOOTH",
"1000 -45 OFFCURVE",
"1020 -25 OFFCURVE",
"1020 0 CURVE SMOOTH",
"1020 25 OFFCURVE",
"1000 45 OFFCURVE",
"975 45 CURVE SMOOTH",
"120 45 LINE",
"120 205 LINE",
"975 205 LINE SMOOTH",
"1000 205 OFFCURVE",
"1020 225 OFFCURVE",
"1020 250 CURVE SMOOTH",
"1020 275 OFFCURVE",
"1000 295 OFFCURVE",
"975 295 CURVE SMOOTH",
"120 295 LINE",
"120 455 LINE",
"975 455 LINE SMOOTH",
"1000 455 OFFCURVE",
"1020 475 OFFCURVE",
"1020 500 CURVE SMOOTH",
"1020 525 OFFCURVE",
"1000 545 OFFCURVE",
"975 545 CURVE SMOOTH",
"108 545 LINE SMOOTH",
"84 545 OFFCURVE",
"68 538 OFFCURVE",
"53 523 CURVE SMOOTH",
"37 507 OFFCURVE",
"30 491 OFFCURVE",
"30 467 CURVE SMOOTH",
"30 33 LINE SMOOTH",
"30 9 OFFCURVE",
"37 -7 OFFCURVE",
"53 -23 CURVE SMOOTH",
"68 -38 OFFCURVE",
"84 -45 OFFCURVE",
"108 -45 CURVE SMOOTH"
);
}
);
visible = 1;
width = 1050;
},
{
associatedMasterId = "DB0132F3-CD2F-4AE3-8556-0788338384B9";
layerId = "0EA83677-483D-4FDC-8B45-A2B2CB636351";
name = "Color 0";
paths = (
{
closed = 1;
nodes = (
"945 -15 LINE SMOOTH",
"953 -15 OFFCURVE",
"960 -8 OFFCURVE",
"960 0 CURVE SMOOTH",
"960 8 OFFCURVE",
"953 15 OFFCURVE",
"945 15 CURVE SMOOTH",
"60 15 LINE",
"60 235 LINE",
"945 235 LINE SMOOTH",
"953 235 OFFCURVE",
"960 242 OFFCURVE",
"960 250 CURVE SMOOTH",
"960 258 OFFCURVE",
"953 265 OFFCURVE",
"945 265 CURVE SMOOTH",
"60 265 LINE",
"60 485 LINE",
"945 485 LINE SMOOTH",
"953 485 OFFCURVE",
"960 492 OFFCURVE",
"960 500 CURVE SMOOTH",
"960 508 OFFCURVE",
"953 515 OFFCURVE",
"945 515 CURVE SMOOTH",
"56 515 LINE SMOOTH",
"48 515 OFFCURVE",
"43 513 OFFCURVE",
"38 508 CURVE SMOOTH",
"32 502 OFFCURVE",
"30 497 OFFCURVE",
"30 489 CURVE SMOOTH",
"30 11 LINE SMOOTH",
"30 3 OFFCURVE",
"32 -2 OFFCURVE",
"38 -8 CURVE SMOOTH",
"43 -13 OFFCURVE",
"48 -15 OFFCURVE",
"56 -15 CURVE SMOOTH"
);
}
);
visible = 1;
width = 990;
},
{
associatedMasterId = "CD9C77F0-B5D7-44C5-837C-E198B13B6DCE";
layerId = "772ACA26-531A-43A7-9EC8-68AA9E866987";
name = "Color 0";
paths = (
{
closed = 1;
nodes = (
"985 -55 LINE SMOOTH",
"1015 -55 OFFCURVE",
"1040 -30 OFFCURVE",
"1040 0 CURVE SMOOTH",
"1040 30 OFFCURVE",
"1015 55 OFFCURVE",
"985 55 CURVE SMOOTH",
"140 55 LINE",
"140 195 LINE",
"985 195 LINE SMOOTH",
"1015 195 OFFCURVE",
"1040 220 OFFCURVE",
"1040 250 CURVE SMOOTH",
"1040 280 OFFCURVE",
"1015 305 OFFCURVE",
"985 305 CURVE SMOOTH",
"140 305 LINE",
"140 445 LINE",
"985 445 LINE SMOOTH",
"1015 445 OFFCURVE",
"1040 470 OFFCURVE",
"1040 500 CURVE SMOOTH",
"1040 530 OFFCURVE",
"1015 555 OFFCURVE",
"985 555 CURVE SMOOTH",
"125 555 LINE SMOOTH",
"97 555 OFFCURVE",
"77 547 OFFCURVE",
"58 528 CURVE SMOOTH",
"38 508 OFFCURVE",
"30 488 OFFCURVE",
"30 460 CURVE SMOOTH",
"30 40 LINE SMOOTH",
"30 12 OFFCURVE",
"38 -8 OFFCURVE",
"58 -28 CURVE SMOOTH",
"77 -47 OFFCURVE",
"97 -55 OFFCURVE",
"125 -55 CURVE SMOOTH"
);
}
);
visible = 1;
width = 1070;
}
);
unicode = 0045;
},
{
glyphname = F;
lastChange = "2018-12-05 10:06:54 +0000";
layers = (
{
layerId = "ADA7F6FF-5955-4EF3-8FA7-BADC10F8EE4C";
paths = (
{
closed = 1;
nodes = (
"100 -45 OFFCURVE",
"120 -25 OFFCURVE",
"120 0 CURVE SMOOTH",
"120 205 LINE",
"975 205 LINE SMOOTH",
"1000 205 OFFCURVE",
"1020 225 OFFCURVE",
"1020 250 CURVE SMOOTH",
"1020 275 OFFCURVE",
"1000 295 OFFCURVE",
"975 295 CURVE SMOOTH",
"120 295 LINE",
"120 455 LINE",
"975 455 LINE SMOOTH",
"1000 455 OFFCURVE",
"1020 475 OFFCURVE",
"1020 500 CURVE SMOOTH",
"1020 525 OFFCURVE",
"1000 545 OFFCURVE",
"975 545 CURVE SMOOTH",
"108 545 LINE SMOOTH",
"84 545 OFFCURVE",
"68 538 OFFCURVE",
"53 523 CURVE SMOOTH",
"37 507 OFFCURVE",
"30 491 OFFCURVE",
"30 467 CURVE SMOOTH",
"30 0 LINE SMOOTH",
"30 -25 OFFCURVE",
"50 -45 OFFCURVE",
"75 -45 CURVE SMOOTH"
);
}
);
width = 1050;
},
{
layerId = "DB0132F3-CD2F-4AE3-8556-0788338384B9";
paths = (
{
closed = 1;
nodes = (
"53 -15 OFFCURVE",
"60 -8 OFFCURVE",
"60 0 CURVE SMOOTH",
"60 235 LINE",
"945 235 LINE SMOOTH",
"953 235 OFFCURVE",
"960 242 OFFCURVE",
"960 250 CURVE SMOOTH",
"960 258 OFFCURVE",
"953 265 OFFCURVE",
"945 265 CURVE SMOOTH",
"60 265 LINE",
"60 485 LINE",
"945 485 LINE SMOOTH",
"953 485 OFFCURVE",
"960 492 OFFCURVE",
"960 500 CURVE SMOOTH",
"960 508 OFFCURVE",
"953 515 OFFCURVE",
"945 515 CURVE SMOOTH",
"56 515 LINE SMOOTH",
"48 515 OFFCURVE",
"43 513 OFFCURVE",
"38 508 CURVE SMOOTH",
"32 502 OFFCURVE",
"30 497 OFFCURVE",
"30 489 CURVE SMOOTH",
"30 0 LINE SMOOTH",
"30 -8 OFFCURVE",
"37 -15 OFFCURVE",
"45 -15 CURVE SMOOTH"
);
}
);
width = 990;
},
{
layerId = "CD9C77F0-B5D7-44C5-837C-E198B13B6DCE";
paths = (
{
closed = 1;
nodes = (
"115 -55 OFFCURVE",
"140 -30 OFFCURVE",
"140 0 CURVE SMOOTH",
"140 195 LINE",
"985 195 LINE SMOOTH",
"1015 195 OFFCURVE",
"1040 220 OFFCURVE",
"1040 250 CURVE SMOOTH",
"1040 280 OFFCURVE",
"1015 305 OFFCURVE",
"985 305 CURVE SMOOTH",
"140 305 LINE",
"140 445 LINE",
"985 445 LINE SMOOTH",
"1015 445 OFFCURVE",
"1040 470 OFFCURVE",
"1040 500 CURVE SMOOTH",
"1040 530 OFFCURVE",
"1015 555 OFFCURVE",
"985 555 CURVE SMOOTH",
"125 555 LINE SMOOTH",
"97 555 OFFCURVE",
"77 547 OFFCURVE",
"58 528 CURVE SMOOTH",
"38 508 OFFCURVE",
"30 488 OFFCURVE",
"30 460 CURVE SMOOTH",
"30 0 LINE SMOOTH",
"30 -30 OFFCURVE",
"55 -55 OFFCURVE",
"85 -55 CURVE SMOOTH"
);
}
);
width = 1070;
},
{
associatedMasterId = "ADA7F6FF-5955-4EF3-8FA7-BADC10F8EE4C";
layerId = "D3ABEB80-D4F9-4A1C-9F1A-00F3AC859AD2";
name = "Color 0";
paths = (
{
closed = 1;
nodes = (
"100 -45 OFFCURVE",
"120 -25 OFFCURVE",
"120 0 CURVE SMOOTH",
"120 205 LINE",
"975 205 LINE SMOOTH",
"1000 205 OFFCURVE",
"1020 225 OFFCURVE",
"1020 250 CURVE SMOOTH",
"1020 275 OFFCURVE",
"1000 295 OFFCURVE",
"975 295 CURVE SMOOTH",
"120 295 LINE",
"120 455 LINE",
"975 455 LINE SMOOTH",
"1000 455 OFFCURVE",
"1020 475 OFFCURVE",
"1020 500 CURVE SMOOTH",
"1020 525 OFFCURVE",
"1000 545 OFFCURVE",
"975 545 CURVE SMOOTH",
"108 545 LINE SMOOTH",
"84 545 OFFCURVE",
"68 538 OFFCURVE",
"53 523 CURVE SMOOTH",
"37 507 OFFCURVE",
"30 491 OFFCURVE",
"30 467 CURVE SMOOTH",
"30 0 LINE SMOOTH",
"30 -25 OFFCURVE",
"50 -45 OFFCURVE",
"75 -45 CURVE SMOOTH"
);
}
);
visible = 1;
width = 1050;
},
{
associatedMasterId = "DB0132F3-CD2F-4AE3-8556-0788338384B9";
layerId = "C986205D-BA7C-4921-817F-E9C499DFB8E4";
name = "Color 0";
paths = (
{
closed = 1;
nodes = (
"53 -15 OFFCURVE",
"60 -8 OFFCURVE",
"60 0 CURVE SMOOTH",
"60 235 LINE",
"945 235 LINE SMOOTH",
"953 235 OFFCURVE",
"960 242 OFFCURVE",
"960 250 CURVE SMOOTH",
"960 258 OFFCURVE",
"953 265 OFFCURVE",
"945 265 CURVE SMOOTH",
"60 265 LINE",
"60 485 LINE",
"945 485 LINE SMOOTH",
"953 485 OFFCURVE",
"960 492 OFFCURVE",
"960 500 CURVE SMOOTH",
"960 508 OFFCURVE",
"953 515 OFFCURVE",
"945 515 CURVE SMOOTH",
"56 515 LINE SMOOTH",
"48 515 OFFCURVE",
"43 513 OFFCURVE",
"38 508 CURVE SMOOTH",
"32 502 OFFCURVE",
"30 497 OFFCURVE",
"30 489 CURVE SMOOTH",
"30 0 LINE SMOOTH",
"30 -8 OFFCURVE",
"37 -15 OFFCURVE",
"45 -15 CURVE SMOOTH"
);
}
);
visible = 1;
width = 990;
},
{
associatedMasterId = "CD9C77F0-B5D7-44C5-837C-E198B13B6DCE";
layerId = "AB7D3C6F-D6E2-422C-A53F-F5CDC5E13B55";
name = "Color 0";
paths = (
{
closed = 1;
nodes = (
"115 -55 OFFCURVE",
"140 -30 OFFCURVE",
"140 0 CURVE SMOOTH",
"140 195 LINE",
"985 195 LINE SMOOTH",
"1015 195 OFFCURVE",
"1040 220 OFFCURVE",
"1040 250 CURVE SMOOTH",
"1040 280 OFFCURVE",
"1015 305 OFFCURVE",
"985 305 CURVE SMOOTH",
"140 305 LINE",
"140 445 LINE",
"985 445 LINE SMOOTH",
"1015 445 OFFCURVE",
"1040 470 OFFCURVE",
"1040 500 CURVE SMOOTH",
"1040 530 OFFCURVE",
"1015 555 OFFCURVE",
"985 555 CURVE SMOOTH",
"125 555 LINE SMOOTH",
"97 555 OFFCURVE",
"77 547 OFFCURVE",
"58 528 CURVE SMOOTH",
"38 508 OFFCURVE",
"30 488 OFFCURVE",
"30 460 CURVE SMOOTH",
"30 0 LINE SMOOTH",
"30 -30 OFFCURVE",
"55 -55 OFFCURVE",
"85 -55 CURVE SMOOTH"
);
}
);
visible = 1;
width = 1070;
}
);
unicode = 0046;
},
{
glyphname = G;
lastChange = "2018-12-05 10:07:03 +0000";
layers = (
{
layerId = "ADA7F6FF-5955-4EF3-8FA7-BADC10F8EE4C";
paths = (
{
closed = 1;
nodes = (
"942 -45 LINE SMOOTH",
"966 -45 OFFCURVE",
"982 -38 OFFCURVE",
"998 -23 CURVE SMOOTH",
"1013 -7 OFFCURVE",
"1020 9 OFFCURVE",
"1020 33 CURVE SMOOTH",
"1020 217 LINE SMOOTH",
"1020 241 OFFCURVE",
"1013 257 OFFCURVE",
"998 273 CURVE SMOOTH",
"982 288 OFFCURVE",
"966 295 OFFCURVE",
"942 295 CURVE SMOOTH",
"300 295 LINE SMOOTH",
"275 295 OFFCURVE",
"255 275 OFFCURVE",
"255 250 CURVE SMOOTH",
"255 225 OFFCURVE",
"275 205 OFFCURVE",
"300 205 CURVE SMOOTH",
"930 205 LINE",
"930 45 LINE",
"120 45 LINE",
"120 455 LINE",
"975 455 LINE SMOOTH",
"1000 455 OFFCURVE",
"1020 475 OFFCURVE",
"1020 500 CURVE SMOOTH",
"1020 525 OFFCURVE",
"1000 545 OFFCURVE",
"975 545 CURVE SMOOTH",
"108 545 LINE SMOOTH",
"84 545 OFFCURVE",
"68 538 OFFCURVE",
"53 523 CURVE SMOOTH",
"37 507 OFFCURVE",
"30 491 OFFCURVE",
"30 467 CURVE SMOOTH",
"30 33 LINE SMOOTH",
"30 9 OFFCURVE",
"37 -7 OFFCURVE",
"53 -23 CURVE SMOOTH",
"68 -38 OFFCURVE",
"84 -45 OFFCURVE",
"108 -45 CURVE SMOOTH"
);
}
);
width = 1050;
},
{
layerId = "DB0132F3-CD2F-4AE3-8556-0788338384B9";
paths = (
{
closed = 1;
nodes = (
"934 -15 LINE SMOOTH",
"942 -15 OFFCURVE",
"947 -13 OFFCURVE",
"953 -8 CURVE SMOOTH",
"958 -2 OFFCURVE",
"960 3 OFFCURVE",
"960 11 CURVE SMOOTH",
"960 239 LINE SMOOTH",
"960 247 OFFCURVE",
"958 252 OFFCURVE",
"953 258 CURVE SMOOTH",
"947 263 OFFCURVE",
"942 265 OFFCURVE",
"934 265 CURVE SMOOTH",
"270 265 LINE SMOOTH",
"262 265 OFFCURVE",
"255 258 OFFCURVE",
"255 250 CURVE SMOOTH",
"255 242 OFFCURVE",
"262 235 OFFCURVE",
"270 235 CURVE SMOOTH",
"930 235 LINE",
"930 15 LINE",
"60 15 LINE",
"60 485 LINE",
"945 485 LINE SMOOTH",
"953 485 OFFCURVE",
"960 492 OFFCURVE",
"960 500 CURVE SMOOTH",
"960 508 OFFCURVE",
"953 515 OFFCURVE",
"945 515 CURVE SMOOTH",
"56 515 LINE SMOOTH",
"48 515 OFFCURVE",
"43 513 OFFCURVE",
"38 508 CURVE SMOOTH",
"32 502 OFFCURVE",
"30 497 OFFCURVE",
"30 489 CURVE SMOOTH",
"30 11 LINE SMOOTH",
"30 3 OFFCURVE",
"32 -2 OFFCURVE",
"38 -8 CURVE SMOOTH",
"43 -13 OFFCURVE",
"48 -15 OFFCURVE",
"56 -15 CURVE SMOOTH"
);
}
);
width = 990;
},
{
layerId = "CD9C77F0-B5D7-44C5-837C-E198B13B6DCE";
paths = (
{
closed = 1;
nodes = (
"945 -55 LINE SMOOTH",
"973 -55 OFFCURVE",
"993 -47 OFFCURVE",
"1013 -28 CURVE SMOOTH",
"1032 -8 OFFCURVE",
"1040 12 OFFCURVE",
"1040 40 CURVE SMOOTH",
"1040 210 LINE SMOOTH",
"1040 238 OFFCURVE",
"1032 258 OFFCURVE",
"1013 278 CURVE SMOOTH",
"993 297 OFFCURVE",
"973 305 OFFCURVE",
"945 305 CURVE SMOOTH",
"310 305 LINE SMOOTH",
"280 305 OFFCURVE",
"255 280 OFFCURVE",
"255 250 CURVE SMOOTH",
"255 220 OFFCURVE",
"280 195 OFFCURVE",
"310 195 CURVE SMOOTH",
"930 195 LINE",
"930 55 LINE",
"140 55 LINE",
"140 445 LINE",
"985 445 LINE SMOOTH",
"1015 445 OFFCURVE",
"1040 470 OFFCURVE",
"1040 500 CURVE SMOOTH",
"1040 530 OFFCURVE",
"1015 555 OFFCURVE",
"985 555 CURVE SMOOTH",
"125 555 LINE SMOOTH",
"97 555 OFFCURVE",
"77 547 OFFCURVE",
"58 528 CURVE SMOOTH",
"38 508 OFFCURVE",
"30 488 OFFCURVE",
"30 460 CURVE SMOOTH",
"30 40 LINE SMOOTH",
"30 12 OFFCURVE",
"38 -8 OFFCURVE",
"58 -28 CURVE SMOOTH",
"77 -47 OFFCURVE",
"97 -55 OFFCURVE",
"125 -55 CURVE SMOOTH"
);
}
);
width = 1070;
},
{
associatedMasterId = "ADA7F6FF-5955-4EF3-8FA7-BADC10F8EE4C";
layerId = "C9C19A08-301A-4817-BFA1-796615D2E057";
name = "Color 0";
paths = (
{
closed = 1;
nodes = (
"942 -45 LINE SMOOTH",
"966 -45 OFFCURVE",
"982 -38 OFFCURVE",
"998 -23 CURVE SMOOTH",
"1013 -7 OFFCURVE",
"1020 9 OFFCURVE",
"1020 33 CURVE SMOOTH",
"1020 217 LINE SMOOTH",
"1020 241 OFFCURVE",
"1013 257 OFFCURVE",
"998 273 CURVE SMOOTH",
"982 288 OFFCURVE",
"966 295 OFFCURVE",
"942 295 CURVE SMOOTH",
"300 295 LINE SMOOTH",
"275 295 OFFCURVE",
"255 275 OFFCURVE",
"255 250 CURVE SMOOTH",
"255 225 OFFCURVE",
"275 205 OFFCURVE",
"300 205 CURVE SMOOTH",
"930 205 LINE",
"930 45 LINE",
"120 45 LINE",
"120 455 LINE",
"975 455 LINE SMOOTH",
"1000 455 OFFCURVE",
"1020 475 OFFCURVE",
"1020 500 CURVE SMOOTH",
"1020 525 OFFCURVE",
"1000 545 OFFCURVE",
"975 545 CURVE SMOOTH",
"108 545 LINE SMOOTH",
"84 545 OFFCURVE",
"68 538 OFFCURVE",
"53 523 CURVE SMOOTH",
"37 507 OFFCURVE",
"30 491 OFFCURVE",
"30 467 CURVE SMOOTH",
"30 33 LINE SMOOTH",
"30 9 OFFCURVE",
"37 -7 OFFCURVE",
"53 -23 CURVE SMOOTH",
"68 -38 OFFCURVE",
"84 -45 OFFCURVE",
"108 -45 CURVE SMOOTH"
);
}
);
visible = 1;
width = 1050;
},
{
associatedMasterId = "DB0132F3-CD2F-4AE3-8556-0788338384B9";
layerId = "71605561-FBC3-416F-8357-1A8049EA4972";
name = "Color 0";
paths = (
{
closed = 1;
nodes = (
"934 -15 LINE SMOOTH",
"942 -15 OFFCURVE",
"947 -13 OFFCURVE",
"953 -8 CURVE SMOOTH",
"958 -2 OFFCURVE",
"960 3 OFFCURVE",
"960 11 CURVE SMOOTH",
"960 239 LINE SMOOTH",
"960 247 OFFCURVE",
"958 252 OFFCURVE",
"953 258 CURVE SMOOTH",
"947 263 OFFCURVE",
"942 265 OFFCURVE",
"934 265 CURVE SMOOTH",
"270 265 LINE SMOOTH",
"262 265 OFFCURVE",
"255 258 OFFCURVE",
"255 250 CURVE SMOOTH",
"255 242 OFFCURVE",
"262 235 OFFCURVE",
"270 235 CURVE SMOOTH",
"930 235 LINE",
"930 15 LINE",
"60 15 LINE",
"60 485 LINE",
"945 485 LINE SMOOTH",
"953 485 OFFCURVE",
"960 492 OFFCURVE",
"960 500 CURVE SMOOTH",
"960 508 OFFCURVE",
"953 515 OFFCURVE",
"945 515 CURVE SMOOTH",
"56 515 LINE SMOOTH",
"48 515 OFFCURVE",
"43 513 OFFCURVE",
"38 508 CURVE SMOOTH",
"32 502 OFFCURVE",
"30 497 OFFCURVE",
"30 489 CURVE SMOOTH",
"30 11 LINE SMOOTH",
"30 3 OFFCURVE",
"32 -2 OFFCURVE",
"38 -8 CURVE SMOOTH",
"43 -13 OFFCURVE",
"48 -15 OFFCURVE",
"56 -15 CURVE SMOOTH"
);
}
);
visible = 1;
width = 990;
},
{
associatedMasterId = "CD9C77F0-B5D7-44C5-837C-E198B13B6DCE";
layerId = "7C82DCCF-7665-4414-9CEC-2A4C4F73902C";
name = "Color 0";
paths = (
{
closed = 1;
nodes = (
"945 -55 LINE SMOOTH",
"973 -55 OFFCURVE",
"993 -47 OFFCURVE",
"1013 -28 CURVE SMOOTH",
"1032 -8 OFFCURVE",
"1040 12 OFFCURVE",
"1040 40 CURVE SMOOTH",
"1040 210 LINE SMOOTH",
"1040 238 OFFCURVE",
"1032 258 OFFCURVE",
"1013 278 CURVE SMOOTH",
"993 297 OFFCURVE",
"973 305 OFFCURVE",
"945 305 CURVE SMOOTH",
"310 305 LINE SMOOTH",
"280 305 OFFCURVE",
"255 280 OFFCURVE",
"255 250 CURVE SMOOTH",
"255 220 OFFCURVE",
"280 195 OFFCURVE",
"310 195 CURVE SMOOTH",
"930 195 LINE",
"930 55 LINE",
"140 55 LINE",
"140 445 LINE",
"985 445 LINE SMOOTH",
"1015 445 OFFCURVE",
"1040 470 OFFCURVE",
"1040 500 CURVE SMOOTH",
"1040 530 OFFCURVE",
"1015 555 OFFCURVE",
"985 555 CURVE SMOOTH",
"125 555 LINE SMOOTH",
"97 555 OFFCURVE",
"77 547 OFFCURVE",
"58 528 CURVE SMOOTH",
"38 508 OFFCURVE",
"30 488 OFFCURVE",
"30 460 CURVE SMOOTH",
"30 40 LINE SMOOTH",
"30 12 OFFCURVE",
"38 -8 OFFCURVE",
"58 -28 CURVE SMOOTH",
"77 -47 OFFCURVE",
"97 -55 OFFCURVE",
"125 -55 CURVE SMOOTH"
);
}
);
visible = 1;
width = 1070;
}
);
unicode = 0047;
},
{
glyphname = H;
lastChange = "2018-12-05 10:07:10 +0000";
layers = (
{
layerId = "ADA7F6FF-5955-4EF3-8FA7-BADC10F8EE4C";
paths = (
{
closed = 1;
nodes = (
"100 -45 OFFCURVE",
"120 -25 OFFCURVE",
"120 0 CURVE SMOOTH",
"120 205 LINE",
"930 205 LINE",
"930 0 LINE SMOOTH",
"930 -25 OFFCURVE",
"950 -45 OFFCURVE",
"975 -45 CURVE SMOOTH",
"1000 -45 OFFCURVE",
"1020 -25 OFFCURVE",
"1020 0 CURVE SMOOTH",
"1020 500 LINE SMOOTH",
"1020 525 OFFCURVE",
"1000 545 OFFCURVE",
"975 545 CURVE SMOOTH",
"950 545 OFFCURVE",
"930 525 OFFCURVE",
"930 500 CURVE SMOOTH",
"930 295 LINE",
"120 295 LINE",
"120 500 LINE SMOOTH",
"120 525 OFFCURVE",
"100 545 OFFCURVE",
"75 545 CURVE SMOOTH",
"50 545 OFFCURVE",
"30 525 OFFCURVE",
"30 500 CURVE SMOOTH",
"30 0 LINE SMOOTH",
"30 -25 OFFCURVE",
"50 -45 OFFCURVE",
"75 -45 CURVE SMOOTH"
);
}
);
width = 1050;
},
{
layerId = "DB0132F3-CD2F-4AE3-8556-0788338384B9";
paths = (
{
closed = 1;
nodes = (
"53 -15 OFFCURVE",
"60 -8 OFFCURVE",
"60 0 CURVE SMOOTH",
"60 235 LINE",
"930 235 LINE",
"930 0 LINE SMOOTH",
"930 -8 OFFCURVE",
"937 -15 OFFCURVE",
"945 -15 CURVE SMOOTH",
"953 -15 OFFCURVE",
"960 -8 OFFCURVE",
"960 0 CURVE SMOOTH",
"960 500 LINE SMOOTH",
"960 508 OFFCURVE",
"953 515 OFFCURVE",
"945 515 CURVE SMOOTH",
"937 515 OFFCURVE",
"930 508 OFFCURVE",
"930 500 CURVE SMOOTH",
"930 265 LINE",
"60 265 LINE",
"60 500 LINE SMOOTH",
"60 508 OFFCURVE",
"53 515 OFFCURVE",
"45 515 CURVE SMOOTH",
"37 515 OFFCURVE",
"30 508 OFFCURVE",
"30 500 CURVE SMOOTH",
"30 0 LINE SMOOTH",
"30 -8 OFFCURVE",
"37 -15 OFFCURVE",
"45 -15 CURVE SMOOTH"
);
}
);
width = 990;
},
{
layerId = "CD9C77F0-B5D7-44C5-837C-E198B13B6DCE";
paths = (
{
closed = 1;
nodes = (
"115 -55 OFFCURVE",
"140 -30 OFFCURVE",
"140 0 CURVE SMOOTH",
"140 195 LINE",
"930 195 LINE",
"930 0 LINE SMOOTH",
"930 -30 OFFCURVE",
"955 -55 OFFCURVE",
"985 -55 CURVE SMOOTH",
"1015 -55 OFFCURVE",
"1040 -30 OFFCURVE",
"1040 0 CURVE SMOOTH",
"1040 500 LINE SMOOTH",
"1040 530 OFFCURVE",
"1015 555 OFFCURVE",
"985 555 CURVE SMOOTH",
"955 555 OFFCURVE",
"930 530 OFFCURVE",
"930 500 CURVE SMOOTH",
"930 305 LINE",
"140 305 LINE",
"140 500 LINE SMOOTH",
"140 530 OFFCURVE",
"115 555 OFFCURVE",
"85 555 CURVE SMOOTH",
"55 555 OFFCURVE",
"30 530 OFFCURVE",
"30 500 CURVE SMOOTH",
"30 0 LINE SMOOTH",
"30 -30 OFFCURVE",
"55 -55 OFFCURVE",
"85 -55 CURVE SMOOTH"
);
}
);
width = 1070;
},
{
associatedMasterId = "ADA7F6FF-5955-4EF3-8FA7-BADC10F8EE4C";
layerId = "901EB7E7-07A9-442C-9F70-5A06C47853E9";
name = "Color 0";
paths = (
{
closed = 1;
nodes = (
"100 -45 OFFCURVE",
"120 -25 OFFCURVE",
"120 0 CURVE SMOOTH",
"120 205 LINE",
"930 205 LINE",
"930 0 LINE SMOOTH",
"930 -25 OFFCURVE",
"950 -45 OFFCURVE",
"975 -45 CURVE SMOOTH",
"1000 -45 OFFCURVE",
"1020 -25 OFFCURVE",
"1020 0 CURVE SMOOTH",
"1020 500 LINE SMOOTH",
"1020 525 OFFCURVE",
"1000 545 OFFCURVE",
"975 545 CURVE SMOOTH",
"950 545 OFFCURVE",
"930 525 OFFCURVE",
"930 500 CURVE SMOOTH",
"930 295 LINE",
"120 295 LINE",
"120 500 LINE SMOOTH",
"120 525 OFFCURVE",
"100 545 OFFCURVE",
"75 545 CURVE SMOOTH",
"50 545 OFFCURVE",
"30 525 OFFCURVE",
"30 500 CURVE SMOOTH",
"30 0 LINE SMOOTH",
"30 -25 OFFCURVE",
"50 -45 OFFCURVE",
"75 -45 CURVE SMOOTH"
);
}
);
visible = 1;
width = 1050;
},
{
associatedMasterId = "DB0132F3-CD2F-4AE3-8556-0788338384B9";
layerId = "47F23AC0-C0F8-4930-9357-45EDACD6D20C";
name = "Color 0";
paths = (
{
closed = 1;
nodes = (
"53 -15 OFFCURVE",
"60 -8 OFFCURVE",
"60 0 CURVE SMOOTH",
"60 235 LINE",
"930 235 LINE",
"930 0 LINE SMOOTH",
"930 -8 OFFCURVE",
"937 -15 OFFCURVE",
"945 -15 CURVE SMOOTH",
"953 -15 OFFCURVE",
"960 -8 OFFCURVE",
"960 0 CURVE SMOOTH",
"960 500 LINE SMOOTH",
"960 508 OFFCURVE",
"953 515 OFFCURVE",
"945 515 CURVE SMOOTH",
"937 515 OFFCURVE",
"930 508 OFFCURVE",
"930 500 CURVE SMOOTH",
"930 265 LINE",
"60 265 LINE",
"60 500 LINE SMOOTH",
"60 508 OFFCURVE",
"53 515 OFFCURVE",
"45 515 CURVE SMOOTH",
"37 515 OFFCURVE",
"30 508 OFFCURVE",
"30 500 CURVE SMOOTH",
"30 0 LINE SMOOTH",
"30 -8 OFFCURVE",
"37 -15 OFFCURVE",
"45 -15 CURVE SMOOTH"
);
}
);
visible = 1;
width = 990;
},
{
associatedMasterId = "CD9C77F0-B5D7-44C5-837C-E198B13B6DCE";
layerId = "366E021B-7E4B-4D55-9090-77F53B16FE97";
name = "Color 0";
paths = (
{
closed = 1;
nodes = (
"115 -55 OFFCURVE",
"140 -30 OFFCURVE",
"140 0 CURVE SMOOTH",
"140 195 LINE",
"930 195 LINE",
"930 0 LINE SMOOTH",
"930 -30 OFFCURVE",
"955 -55 OFFCURVE",
"985 -55 CURVE SMOOTH",
"1015 -55 OFFCURVE",
"1040 -30 OFFCURVE",
"1040 0 CURVE SMOOTH",
"1040 500 LINE SMOOTH",
"1040 530 OFFCURVE",
"1015 555 OFFCURVE",
"985 555 CURVE SMOOTH",
"955 555 OFFCURVE",
"930 530 OFFCURVE",
"930 500 CURVE SMOOTH",
"930 305 LINE",
"140 305 LINE",
"140 500 LINE SMOOTH",
"140 530 OFFCURVE",
"115 555 OFFCURVE",
"85 555 CURVE SMOOTH",
"55 555 OFFCURVE",
"30 530 OFFCURVE",
"30 500 CURVE SMOOTH",
"30 0 LINE SMOOTH",
"30 -30 OFFCURVE",
"55 -55 OFFCURVE",
"85 -55 CURVE SMOOTH"
);
}
);
visible = 1;
width = 1070;
}
);
unicode = 0048;
},
{
glyphname = I;
lastChange = "2018-12-05 10:07:17 +0000";
layers = (
{
layerId = "ADA7F6FF-5955-4EF3-8FA7-BADC10F8EE4C";
paths = (
{
closed = 1;
nodes = (
"975 -45 LINE SMOOTH",
"1000 -45 OFFCURVE",
"1020 -25 OFFCURVE",
"1020 0 CURVE SMOOTH",
"1020 25 OFFCURVE",
"1000 45 OFFCURVE",
"975 45 CURVE SMOOTH",
"570 45 LINE",
"570 455 LINE",
"975 455 LINE SMOOTH",
"1000 455 OFFCURVE",
"1020 475 OFFCURVE",
"1020 500 CURVE SMOOTH",
"1020 525 OFFCURVE",
"1000 545 OFFCURVE",
"975 545 CURVE SMOOTH",
"75 545 LINE SMOOTH",
"50 545 OFFCURVE",
"30 525 OFFCURVE",
"30 500 CURVE SMOOTH",
"30 475 OFFCURVE",
"50 455 OFFCURVE",
"75 455 CURVE SMOOTH",
"480 455 LINE",
"480 45 LINE",
"75 45 LINE SMOOTH",
"50 45 OFFCURVE",
"30 25 OFFCURVE",
"30 0 CURVE SMOOTH",
"30 -25 OFFCURVE",
"50 -45 OFFCURVE",
"75 -45 CURVE SMOOTH"
);
}
);
width = 1050;
},
{
layerId = "DB0132F3-CD2F-4AE3-8556-0788338384B9";
paths = (
{
closed = 1;
nodes = (
"945 -15 LINE SMOOTH",
"953 -15 OFFCURVE",
"960 -8 OFFCURVE",
"960 0 CURVE SMOOTH",
"960 8 OFFCURVE",
"953 15 OFFCURVE",
"945 15 CURVE SMOOTH",
"510 15 LINE",
"510 485 LINE",
"945 485 LINE SMOOTH",
"953 485 OFFCURVE",
"960 492 OFFCURVE",
"960 500 CURVE SMOOTH",
"960 508 OFFCURVE",
"953 515 OFFCURVE",
"945 515 CURVE SMOOTH",
"45 515 LINE SMOOTH",
"37 515 OFFCURVE",
"30 508 OFFCURVE",
"30 500 CURVE SMOOTH",
"30 492 OFFCURVE",
"37 485 OFFCURVE",
"45 485 CURVE SMOOTH",
"480 485 LINE",
"480 15 LINE",
"45 15 LINE SMOOTH",
"37 15 OFFCURVE",
"30 8 OFFCURVE",
"30 0 CURVE SMOOTH",
"30 -8 OFFCURVE",
"37 -15 OFFCURVE",
"45 -15 CURVE SMOOTH"
);
}
);
width = 990;
},
{
layerId = "CD9C77F0-B5D7-44C5-837C-E198B13B6DCE";
paths = (
{
closed = 1;
nodes = (
"985 -55 LINE SMOOTH",
"1015 -55 OFFCURVE",
"1040 -30 OFFCURVE",
"1040 0 CURVE SMOOTH",
"1040 30 OFFCURVE",
"1015 55 OFFCURVE",
"985 55 CURVE SMOOTH",
"590 55 LINE",
"590 445 LINE",
"985 445 LINE SMOOTH",
"1015 445 OFFCURVE",
"1040 470 OFFCURVE",
"1040 500 CURVE SMOOTH",
"1040 530 OFFCURVE",
"1015 555 OFFCURVE",
"985 555 CURVE SMOOTH",
"85 555 LINE SMOOTH",
"55 555 OFFCURVE",
"30 530 OFFCURVE",
"30 500 CURVE SMOOTH",
"30 470 OFFCURVE",
"55 445 OFFCURVE",
"85 445 CURVE SMOOTH",
"480 445 LINE",
"480 55 LINE",
"85 55 LINE SMOOTH",
"55 55 OFFCURVE",
"30 30 OFFCURVE",
"30 0 CURVE SMOOTH",
"30 -30 OFFCURVE",
"55 -55 OFFCURVE",
"85 -55 CURVE SMOOTH"
);
}
);
width = 1070;
},
{
associatedMasterId = "ADA7F6FF-5955-4EF3-8FA7-BADC10F8EE4C";
layerId = "8C10F1D2-B06C-4D83-8B08-D18021452FC3";
name = "Color 0";
paths = (
{
closed = 1;
nodes = (
"975 -45 LINE SMOOTH",
"1000 -45 OFFCURVE",
"1020 -25 OFFCURVE",
"1020 0 CURVE SMOOTH",
"1020 25 OFFCURVE",
"1000 45 OFFCURVE",
"975 45 CURVE SMOOTH",
"570 45 LINE",
"570 455 LINE",
"975 455 LINE SMOOTH",
"1000 455 OFFCURVE",
"1020 475 OFFCURVE",
"1020 500 CURVE SMOOTH",
"1020 525 OFFCURVE",
"1000 545 OFFCURVE",
"975 545 CURVE SMOOTH",
"75 545 LINE SMOOTH",
"50 545 OFFCURVE",
"30 525 OFFCURVE",
"30 500 CURVE SMOOTH",
"30 475 OFFCURVE",
"50 455 OFFCURVE",
"75 455 CURVE SMOOTH",
"480 455 LINE",
"480 45 LINE",
"75 45 LINE SMOOTH",
"50 45 OFFCURVE",
"30 25 OFFCURVE",
"30 0 CURVE SMOOTH",
"30 -25 OFFCURVE",
"50 -45 OFFCURVE",
"75 -45 CURVE SMOOTH"
);
}
);
visible = 1;
width = 1050;
},
{
associatedMasterId = "DB0132F3-CD2F-4AE3-8556-0788338384B9";
layerId = "466CD50D-221A-4AAE-87B6-4B18F0FAD42F";
name = "Color 0";
paths = (
{
closed = 1;
nodes = (
"945 -15 LINE SMOOTH",
"953 -15 OFFCURVE",
"960 -8 OFFCURVE",
"960 0 CURVE SMOOTH",
"960 8 OFFCURVE",
"953 15 OFFCURVE",
"945 15 CURVE SMOOTH",
"510 15 LINE",
"510 485 LINE",
"945 485 LINE SMOOTH",
"953 485 OFFCURVE",
"960 492 OFFCURVE",
"960 500 CURVE SMOOTH",
"960 508 OFFCURVE",
"953 515 OFFCURVE",
"945 515 CURVE SMOOTH",
"45 515 LINE SMOOTH",
"37 515 OFFCURVE",
"30 508 OFFCURVE",
"30 500 CURVE SMOOTH",
"30 492 OFFCURVE",
"37 485 OFFCURVE",
"45 485 CURVE SMOOTH",
"480 485 LINE",
"480 15 LINE",
"45 15 LINE SMOOTH",
"37 15 OFFCURVE",
"30 8 OFFCURVE",
"30 0 CURVE SMOOTH",
"30 -8 OFFCURVE",
"37 -15 OFFCURVE",
"45 -15 CURVE SMOOTH"
);
}
);
visible = 1;
width = 990;
},
{
associatedMasterId = "CD9C77F0-B5D7-44C5-837C-E198B13B6DCE";
layerId = "249E1A6D-3A5D-4212-B05F-309688527DDC";
name = "Color 0";
paths = (
{
closed = 1;
nodes = (
"985 -55 LINE SMOOTH",
"1015 -55 OFFCURVE",
"1040 -30 OFFCURVE",
"1040 0 CURVE SMOOTH",
"1040 30 OFFCURVE",
"1015 55 OFFCURVE",
"985 55 CURVE SMOOTH",
"590 55 LINE",
"590 445 LINE",
"985 445 LINE SMOOTH",
"1015 445 OFFCURVE",
"1040 470 OFFCURVE",
"1040 500 CURVE SMOOTH",
"1040 530 OFFCURVE",
"1015 555 OFFCURVE",
"985 555 CURVE SMOOTH",
"85 555 LINE SMOOTH",
"55 555 OFFCURVE",
"30 530 OFFCURVE",
"30 500 CURVE SMOOTH",
"30 470 OFFCURVE",
"55 445 OFFCURVE",
"85 445 CURVE SMOOTH",
"480 445 LINE",
"480 55 LINE",
"85 55 LINE SMOOTH",
"55 55 OFFCURVE",
"30 30 OFFCURVE",
"30 0 CURVE SMOOTH",
"30 -30 OFFCURVE",
"55 -55 OFFCURVE",
"85 -55 CURVE SMOOTH"
);
}
);
visible = 1;
width = 1070;
}
);
unicode = 0049;
},
{
glyphname = J;
lastChange = "2018-12-05 10:07:23 +0000";
layers = (
{
layerId = "ADA7F6FF-5955-4EF3-8FA7-BADC10F8EE4C";
paths = (
{
closed = 1;
nodes = (
"942 -45 LINE SMOOTH",
"966 -45 OFFCURVE",
"982 -38 OFFCURVE",
"998 -23 CURVE SMOOTH",
"1013 -7 OFFCURVE",
"1020 9 OFFCURVE",
"1020 33 CURVE SMOOTH",
"1020 467 LINE SMOOTH",
"1020 491 OFFCURVE",
"1013 507 OFFCURVE",
"998 523 CURVE SMOOTH",
"982 538 OFFCURVE",
"966 545 OFFCURVE",
"942 545 CURVE SMOOTH",
"75 545 LINE SMOOTH",
"50 545 OFFCURVE",
"30 525 OFFCURVE",
"30 500 CURVE SMOOTH",
"30 475 OFFCURVE",
"50 455 OFFCURVE",
"75 455 CURVE SMOOTH",
"930 455 LINE",
"930 45 LINE",
"120 45 LINE",
"120 250 LINE SMOOTH",
"120 275 OFFCURVE",
"100 295 OFFCURVE",
"75 295 CURVE SMOOTH",
"50 295 OFFCURVE",
"30 275 OFFCURVE",
"30 250 CURVE SMOOTH",
"30 33 LINE SMOOTH",
"30 9 OFFCURVE",
"37 -7 OFFCURVE",
"53 -23 CURVE SMOOTH",
"68 -38 OFFCURVE",
"84 -45 OFFCURVE",
"108 -45 CURVE SMOOTH"
);
}
);
width = 1050;
},
{
layerId = "DB0132F3-CD2F-4AE3-8556-0788338384B9";
paths = (
{
closed = 1;
nodes = (
"934 -15 LINE SMOOTH",
"942 -15 OFFCURVE",
"947 -13 OFFCURVE",
"953 -8 CURVE SMOOTH",
"958 -2 OFFCURVE",
"960 3 OFFCURVE",
"960 11 CURVE SMOOTH",
"960 489 LINE SMOOTH",
"960 497 OFFCURVE",
"958 502 OFFCURVE",
"953 508 CURVE SMOOTH",
"947 513 OFFCURVE",
"942 515 OFFCURVE",
"934 515 CURVE SMOOTH",
"45 515 LINE SMOOTH",
"37 515 OFFCURVE",
"30 508 OFFCURVE",
"30 500 CURVE SMOOTH",
"30 492 OFFCURVE",
"37 485 OFFCURVE",
"45 485 CURVE SMOOTH",
"930 485 LINE",
"930 15 LINE",
"60 15 LINE",
"60 250 LINE SMOOTH",
"60 258 OFFCURVE",
"53 265 OFFCURVE",
"45 265 CURVE SMOOTH",
"37 265 OFFCURVE",
"30 258 OFFCURVE",
"30 250 CURVE SMOOTH",
"30 11 LINE SMOOTH",
"30 3 OFFCURVE",
"32 -2 OFFCURVE",
"38 -8 CURVE SMOOTH",
"43 -13 OFFCURVE",
"48 -15 OFFCURVE",
"56 -15 CURVE SMOOTH"
);
}
);
width = 990;
},
{
layerId = "CD9C77F0-B5D7-44C5-837C-E198B13B6DCE";
paths = (
{
closed = 1;
nodes = (
"945 -55 LINE SMOOTH",
"973 -55 OFFCURVE",
"993 -47 OFFCURVE",
"1013 -28 CURVE SMOOTH",
"1032 -8 OFFCURVE",
"1040 12 OFFCURVE",
"1040 40 CURVE SMOOTH",
"1040 460 LINE SMOOTH",
"1040 488 OFFCURVE",
"1032 508 OFFCURVE",
"1013 528 CURVE SMOOTH",
"993 547 OFFCURVE",
"973 555 OFFCURVE",
"945 555 CURVE SMOOTH",
"85 555 LINE SMOOTH",
"55 555 OFFCURVE",
"30 530 OFFCURVE",
"30 500 CURVE SMOOTH",
"30 470 OFFCURVE",
"55 445 OFFCURVE",
"85 445 CURVE SMOOTH",
"930 445 LINE",
"930 55 LINE",
"140 55 LINE",
"140 250 LINE SMOOTH",
"140 280 OFFCURVE",
"115 305 OFFCURVE",
"85 305 CURVE SMOOTH",
"55 305 OFFCURVE",
"30 280 OFFCURVE",
"30 250 CURVE SMOOTH",
"30 40 LINE SMOOTH",
"30 12 OFFCURVE",
"38 -8 OFFCURVE",
"58 -28 CURVE SMOOTH",
"77 -47 OFFCURVE",
"97 -55 OFFCURVE",
"125 -55 CURVE SMOOTH"
);
}
);
width = 1070;
},
{
associatedMasterId = "ADA7F6FF-5955-4EF3-8FA7-BADC10F8EE4C";
layerId = "67487509-6E13-494D-BE97-349E6507B7EB";
name = "Color 0";
paths = (
{
closed = 1;
nodes = (
"942 -45 LINE SMOOTH",
"966 -45 OFFCURVE",
"982 -38 OFFCURVE",
"998 -23 CURVE SMOOTH",
"1013 -7 OFFCURVE",
"1020 9 OFFCURVE",
"1020 33 CURVE SMOOTH",
"1020 467 LINE SMOOTH",
"1020 491 OFFCURVE",
"1013 507 OFFCURVE",
"998 523 CURVE SMOOTH",
"982 538 OFFCURVE",
"966 545 OFFCURVE",
"942 545 CURVE SMOOTH",
"75 545 LINE SMOOTH",
"50 545 OFFCURVE",
"30 525 OFFCURVE",
"30 500 CURVE SMOOTH",
"30 475 OFFCURVE",
"50 455 OFFCURVE",
"75 455 CURVE SMOOTH",
"930 455 LINE",
"930 45 LINE",
"120 45 LINE",
"120 250 LINE SMOOTH",
"120 275 OFFCURVE",
"100 295 OFFCURVE",
"75 295 CURVE SMOOTH",
"50 295 OFFCURVE",
"30 275 OFFCURVE",
"30 250 CURVE SMOOTH",
"30 33 LINE SMOOTH",
"30 9 OFFCURVE",
"37 -7 OFFCURVE",
"53 -23 CURVE SMOOTH",
"68 -38 OFFCURVE",
"84 -45 OFFCURVE",
"108 -45 CURVE SMOOTH"
);
}
);
visible = 1;
width = 1050;
},
{
associatedMasterId = "DB0132F3-CD2F-4AE3-8556-0788338384B9";
layerId = "A489ED38-6BEE-4271-8D71-7D81DD71278B";
name = "Color 0";
paths = (
{
closed = 1;
nodes = (
"934 -15 LINE SMOOTH",
"942 -15 OFFCURVE",
"947 -13 OFFCURVE",
"953 -8 CURVE SMOOTH",
"958 -2 OFFCURVE",
"960 3 OFFCURVE",
"960 11 CURVE SMOOTH",
"960 489 LINE SMOOTH",
"960 497 OFFCURVE",
"958 502 OFFCURVE",
"953 508 CURVE SMOOTH",
"947 513 OFFCURVE",
"942 515 OFFCURVE",
"934 515 CURVE SMOOTH",
"45 515 LINE SMOOTH",
"37 515 OFFCURVE",
"30 508 OFFCURVE",
"30 500 CURVE SMOOTH",
"30 492 OFFCURVE",
"37 485 OFFCURVE",
"45 485 CURVE SMOOTH",
"930 485 LINE",
"930 15 LINE",
"60 15 LINE",
"60 250 LINE SMOOTH",
"60 258 OFFCURVE",
"53 265 OFFCURVE",
"45 265 CURVE SMOOTH",
"37 265 OFFCURVE",
"30 258 OFFCURVE",
"30 250 CURVE SMOOTH",
"30 11 LINE SMOOTH",
"30 3 OFFCURVE",
"32 -2 OFFCURVE",
"38 -8 CURVE SMOOTH",
"43 -13 OFFCURVE",
"48 -15 OFFCURVE",
"56 -15 CURVE SMOOTH"
);
}
);
visible = 1;
width = 990;
},
{
associatedMasterId = "CD9C77F0-B5D7-44C5-837C-E198B13B6DCE";
layerId = "34CD140C-3314-4F0E-90AC-0782A11A0349";
name = "Color 0";
paths = (
{
closed = 1;
nodes = (
"945 -55 LINE SMOOTH",
"973 -55 OFFCURVE",
"993 -47 OFFCURVE",
"1013 -28 CURVE SMOOTH",
"1032 -8 OFFCURVE",
"1040 12 OFFCURVE",
"1040 40 CURVE SMOOTH",
"1040 460 LINE SMOOTH",
"1040 488 OFFCURVE",
"1032 508 OFFCURVE",
"1013 528 CURVE SMOOTH",
"993 547 OFFCURVE",
"973 555 OFFCURVE",
"945 555 CURVE SMOOTH",
"85 555 LINE SMOOTH",
"55 555 OFFCURVE",
"30 530 OFFCURVE",
"30 500 CURVE SMOOTH",
"30 470 OFFCURVE",
"55 445 OFFCURVE",
"85 445 CURVE SMOOTH",
"930 445 LINE",
"930 55 LINE",
"140 55 LINE",
"140 250 LINE SMOOTH",
"140 280 OFFCURVE",
"115 305 OFFCURVE",
"85 305 CURVE SMOOTH",
"55 305 OFFCURVE",
"30 280 OFFCURVE",
"30 250 CURVE SMOOTH",
"30 40 LINE SMOOTH",
"30 12 OFFCURVE",
"38 -8 OFFCURVE",
"58 -28 CURVE SMOOTH",
"77 -47 OFFCURVE",
"97 -55 OFFCURVE",
"125 -55 CURVE SMOOTH"
);
}
);
visible = 1;
width = 1070;
}
);
unicode = 004A;
},
{
glyphname = K;
lastChange = "2018-12-05 10:07:32 +0000";
layers = (
{
layerId = "ADA7F6FF-5955-4EF3-8FA7-BADC10F8EE4C";
paths = (
{
closed = 1;
nodes = (
"100 -45 OFFCURVE",
"120 -25 OFFCURVE",
"120 0 CURVE SMOOTH",
"120 168 LINE",
"281 221 LINE",
"958 -42 LINE SMOOTH",
"963 -44 OFFCURVE",
"969 -45 OFFCURVE",
"975 -45 CURVE SMOOTH",
"1000 -45 OFFCURVE",
"1020 -25 OFFCURVE",
"1020 0 CURVE SMOOTH",
"1020 19 OFFCURVE",
"1008 36 OFFCURVE",
"990 42 CURVE SMOOTH",
"415 266 LINE",
"988 457 LINE SMOOTH",
"1007 463 OFFCURVE",
"1020 480 OFFCURVE",
"1020 500 CURVE SMOOTH",
"1020 525 OFFCURVE",
"1000 545 OFFCURVE",
"975 545 CURVE SMOOTH",
"970 545 OFFCURVE",
"965 544 OFFCURVE",
"960 542 CURVE SMOOTH",
"120 262 LINE",
"120 500 LINE SMOOTH",
"120 525 OFFCURVE",
"100 545 OFFCURVE",
"75 545 CURVE SMOOTH",
"50 545 OFFCURVE",
"30 525 OFFCURVE",
"30 500 CURVE SMOOTH",
"30 0 LINE SMOOTH",
"30 -25 OFFCURVE",
"50 -45 OFFCURVE",
"75 -45 CURVE SMOOTH"
);
}
);
width = 1050;
},
{
layerId = "DB0132F3-CD2F-4AE3-8556-0788338384B9";
paths = (
{
closed = 1;
nodes = (
"53 -15 OFFCURVE",
"60 -8 OFFCURVE",
"60 0 CURVE SMOOTH",
"60 189 LINE",
"252 253 LINE",
"939 -14 LINE SMOOTH",
"941 -15 OFFCURVE",
"943 -15 OFFCURVE",
"945 -15 CURVE SMOOTH",
"953 -15 OFFCURVE",
"960 -8 OFFCURVE",
"960 0 CURVE SMOOTH",
"960 6 OFFCURVE",
"956 12 OFFCURVE",
"950 14 CURVE SMOOTH",
"297 268 LINE",
"949 486 LINE SMOOTH",
"956 488 OFFCURVE",
"960 493 OFFCURVE",
"960 500 CURVE SMOOTH",
"960 508 OFFCURVE",
"953 515 OFFCURVE",
"945 515 CURVE SMOOTH",
"943 515 OFFCURVE",
"942 515 OFFCURVE",
"940 514 CURVE SMOOTH",
"60 221 LINE",
"60 500 LINE SMOOTH",
"60 508 OFFCURVE",
"53 515 OFFCURVE",
"45 515 CURVE SMOOTH",
"37 515 OFFCURVE",
"30 508 OFFCURVE",
"30 500 CURVE SMOOTH",
"30 0 LINE SMOOTH",
"30 -8 OFFCURVE",
"37 -15 OFFCURVE",
"45 -15 CURVE SMOOTH"
);
}
);
width = 990;
},
{
layerId = "CD9C77F0-B5D7-44C5-837C-E198B13B6DCE";
paths = (
{
closed = 1;
nodes = (
"115 -55 OFFCURVE",
"140 -30 OFFCURVE",
"140 0 CURVE SMOOTH",
"140 160 LINE",
"291 211 LINE",
"964 -51 LINE SMOOTH",
"970 -54 OFFCURVE",
"978 -55 OFFCURVE",
"985 -55 CURVE SMOOTH",
"1015 -55 OFFCURVE",
"1040 -30 OFFCURVE",
"1040 0 CURVE SMOOTH",
"1040 24 OFFCURVE",
"1025 44 OFFCURVE",
"1004 52 CURVE SMOOTH",
"455 265 LINE",
"1001 447 LINE SMOOTH",
"1024 454 OFFCURVE",
"1040 475 OFFCURVE",
"1040 500 CURVE SMOOTH",
"1040 530 OFFCURVE",
"1015 555 OFFCURVE",
"985 555 CURVE SMOOTH",
"978 555 OFFCURVE",
"972 554 OFFCURVE",
"966 552 CURVE SMOOTH",
"140 276 LINE",
"140 500 LINE SMOOTH",
"140 530 OFFCURVE",
"115 555 OFFCURVE",
"85 555 CURVE SMOOTH",
"55 555 OFFCURVE",
"30 530 OFFCURVE",
"30 500 CURVE SMOOTH",
"30 0 LINE SMOOTH",
"30 -30 OFFCURVE",
"55 -55 OFFCURVE",
"85 -55 CURVE SMOOTH"
);
}
);
width = 1070;
},
{
associatedMasterId = "ADA7F6FF-5955-4EF3-8FA7-BADC10F8EE4C";
layerId = "559276C3-BCC7-40A2-B46A-5C821D78F1D4";
name = "Color 0";
paths = (
{
closed = 1;
nodes = (
"100 -45 OFFCURVE",
"120 -25 OFFCURVE",
"120 0 CURVE SMOOTH",
"120 168 LINE",
"281 221 LINE",
"958 -42 LINE SMOOTH",
"963 -44 OFFCURVE",
"969 -45 OFFCURVE",
"975 -45 CURVE SMOOTH",
"1000 -45 OFFCURVE",
"1020 -25 OFFCURVE",
"1020 0 CURVE SMOOTH",
"1020 19 OFFCURVE",
"1008 36 OFFCURVE",
"990 42 CURVE SMOOTH",
"415 266 LINE",
"988 457 LINE SMOOTH",
"1007 463 OFFCURVE",
"1020 480 OFFCURVE",
"1020 500 CURVE SMOOTH",
"1020 525 OFFCURVE",
"1000 545 OFFCURVE",
"975 545 CURVE SMOOTH",
"970 545 OFFCURVE",
"965 544 OFFCURVE",
"960 542 CURVE SMOOTH",
"120 262 LINE",
"120 500 LINE SMOOTH",
"120 525 OFFCURVE",
"100 545 OFFCURVE",
"75 545 CURVE SMOOTH",
"50 545 OFFCURVE",
"30 525 OFFCURVE",
"30 500 CURVE SMOOTH",
"30 0 LINE SMOOTH",
"30 -25 OFFCURVE",
"50 -45 OFFCURVE",
"75 -45 CURVE SMOOTH"
);
}
);
visible = 1;
width = 1050;
},
{
associatedMasterId = "DB0132F3-CD2F-4AE3-8556-0788338384B9";
layerId = "7A301790-5615-4B08-B1C7-7D3F556D937B";
name = "Color 0";
paths = (
{
closed = 1;
nodes = (
"53 -15 OFFCURVE",
"60 -8 OFFCURVE",
"60 0 CURVE SMOOTH",
"60 189 LINE",
"252 253 LINE",
"939 -14 LINE SMOOTH",
"941 -15 OFFCURVE",
"943 -15 OFFCURVE",
"945 -15 CURVE SMOOTH",
"953 -15 OFFCURVE",
"960 -8 OFFCURVE",
"960 0 CURVE SMOOTH",
"960 6 OFFCURVE",
"956 12 OFFCURVE",
"950 14 CURVE SMOOTH",
"297 268 LINE",
"949 486 LINE SMOOTH",
"956 488 OFFCURVE",
"960 493 OFFCURVE",
"960 500 CURVE SMOOTH",
"960 508 OFFCURVE",
"953 515 OFFCURVE",
"945 515 CURVE SMOOTH",
"943 515 OFFCURVE",
"942 515 OFFCURVE",
"940 514 CURVE SMOOTH",
"60 221 LINE",
"60 500 LINE SMOOTH",
"60 508 OFFCURVE",
"53 515 OFFCURVE",
"45 515 CURVE SMOOTH",
"37 515 OFFCURVE",
"30 508 OFFCURVE",
"30 500 CURVE SMOOTH",
"30 0 LINE SMOOTH",
"30 -8 OFFCURVE",
"37 -15 OFFCURVE",
"45 -15 CURVE SMOOTH"
);
}
);
visible = 1;
width = 990;
},
{
associatedMasterId = "CD9C77F0-B5D7-44C5-837C-E198B13B6DCE";
layerId = "0F2A6722-997F-4661-BAB3-87FA49B8DEFA";
name = "Color 0";
paths = (
{
closed = 1;
nodes = (
"115 -55 OFFCURVE",
"140 -30 OFFCURVE",
"140 0 CURVE SMOOTH",
"140 160 LINE",
"291 211 LINE",
"964 -51 LINE SMOOTH",
"970 -54 OFFCURVE",
"978 -55 OFFCURVE",
"985 -55 CURVE SMOOTH",
"1015 -55 OFFCURVE",
"1040 -30 OFFCURVE",
"1040 0 CURVE SMOOTH",
"1040 24 OFFCURVE",
"1025 44 OFFCURVE",
"1004 52 CURVE SMOOTH",
"455 265 LINE",
"1001 447 LINE SMOOTH",
"1024 454 OFFCURVE",
"1040 475 OFFCURVE",
"1040 500 CURVE SMOOTH",
"1040 530 OFFCURVE",
"1015 555 OFFCURVE",
"985 555 CURVE SMOOTH",
"978 555 OFFCURVE",
"972 554 OFFCURVE",
"966 552 CURVE SMOOTH",
"140 276 LINE",
"140 500 LINE SMOOTH",
"140 530 OFFCURVE",
"115 555 OFFCURVE",
"85 555 CURVE SMOOTH",
"55 555 OFFCURVE",
"30 530 OFFCURVE",
"30 500 CURVE SMOOTH",
"30 0 LINE SMOOTH",
"30 -30 OFFCURVE",
"55 -55 OFFCURVE",
"85 -55 CURVE SMOOTH"
);
}
);
visible = 1;
width = 1070;
}
);
unicode = 004B;
},
{
glyphname = L;
lastChange = "2018-12-05 10:07:39 +0000";
layers = (
{
layerId = "ADA7F6FF-5955-4EF3-8FA7-BADC10F8EE4C";
paths = (
{
closed = 1;
nodes = (
"975 -45 LINE SMOOTH",
"1000 -45 OFFCURVE",
"1020 -25 OFFCURVE",
"1020 0 CURVE SMOOTH",
"1020 25 OFFCURVE",
"1000 45 OFFCURVE",
"975 45 CURVE SMOOTH",
"120 45 LINE",
"120 500 LINE SMOOTH",
"120 525 OFFCURVE",
"100 545 OFFCURVE",
"75 545 CURVE SMOOTH",
"50 545 OFFCURVE",
"30 525 OFFCURVE",
"30 500 CURVE SMOOTH",
"30 33 LINE SMOOTH",
"30 9 OFFCURVE",
"37 -7 OFFCURVE",
"53 -23 CURVE SMOOTH",
"68 -38 OFFCURVE",
"84 -45 OFFCURVE",
"108 -45 CURVE SMOOTH"
);
}
);
width = 1050;
},
{
layerId = "DB0132F3-CD2F-4AE3-8556-0788338384B9";
paths = (
{
closed = 1;
nodes = (
"945 -15 LINE SMOOTH",
"953 -15 OFFCURVE",
"960 -8 OFFCURVE",
"960 0 CURVE SMOOTH",
"960 8 OFFCURVE",
"953 15 OFFCURVE",
"945 15 CURVE SMOOTH",
"60 15 LINE",
"60 500 LINE SMOOTH",
"60 508 OFFCURVE",
"53 515 OFFCURVE",
"45 515 CURVE SMOOTH",
"37 515 OFFCURVE",
"30 508 OFFCURVE",
"30 500 CURVE SMOOTH",
"30 11 LINE SMOOTH",
"30 3 OFFCURVE",
"32 -2 OFFCURVE",
"38 -8 CURVE SMOOTH",
"43 -13 OFFCURVE",
"48 -15 OFFCURVE",
"56 -15 CURVE SMOOTH"
);
}
);
width = 990;
},
{
layerId = "CD9C77F0-B5D7-44C5-837C-E198B13B6DCE";
paths = (
{
closed = 1;
nodes = (
"985 -55 LINE SMOOTH",
"1015 -55 OFFCURVE",
"1040 -30 OFFCURVE",
"1040 0 CURVE SMOOTH",
"1040 30 OFFCURVE",
"1015 55 OFFCURVE",
"985 55 CURVE SMOOTH",
"140 55 LINE",
"140 500 LINE SMOOTH",
"140 530 OFFCURVE",
"115 555 OFFCURVE",
"85 555 CURVE SMOOTH",
"55 555 OFFCURVE",
"30 530 OFFCURVE",
"30 500 CURVE SMOOTH",
"30 40 LINE SMOOTH",
"30 12 OFFCURVE",
"38 -8 OFFCURVE",
"58 -28 CURVE SMOOTH",
"77 -47 OFFCURVE",
"97 -55 OFFCURVE",
"125 -55 CURVE SMOOTH"
);
}
);
width = 1070;
},
{
associatedMasterId = "ADA7F6FF-5955-4EF3-8FA7-BADC10F8EE4C";
layerId = "92C7727B-C0B3-495A-A0FF-0BD20B8282F1";
name = "Color 0";
paths = (
{
closed = 1;
nodes = (
"975 -45 LINE SMOOTH",
"1000 -45 OFFCURVE",
"1020 -25 OFFCURVE",
"1020 0 CURVE SMOOTH",
"1020 25 OFFCURVE",
"1000 45 OFFCURVE",
"975 45 CURVE SMOOTH",
"120 45 LINE",
"120 500 LINE SMOOTH",
"120 525 OFFCURVE",
"100 545 OFFCURVE",
"75 545 CURVE SMOOTH",
"50 545 OFFCURVE",
"30 525 OFFCURVE",
"30 500 CURVE SMOOTH",
"30 33 LINE SMOOTH",
"30 9 OFFCURVE",
"37 -7 OFFCURVE",
"53 -23 CURVE SMOOTH",
"68 -38 OFFCURVE",
"84 -45 OFFCURVE",
"108 -45 CURVE SMOOTH"
);
}
);
visible = 1;
width = 1050;
},
{
associatedMasterId = "DB0132F3-CD2F-4AE3-8556-0788338384B9";
layerId = "1DAA72A3-D32B-41F4-869F-C26ABB1818AC";
name = "Color 0";
paths = (
{
closed = 1;
nodes = (
"945 -15 LINE SMOOTH",
"953 -15 OFFCURVE",
"960 -8 OFFCURVE",
"960 0 CURVE SMOOTH",
"960 8 OFFCURVE",
"953 15 OFFCURVE",
"945 15 CURVE SMOOTH",
"60 15 LINE",
"60 500 LINE SMOOTH",
"60 508 OFFCURVE",
"53 515 OFFCURVE",
"45 515 CURVE SMOOTH",
"37 515 OFFCURVE",
"30 508 OFFCURVE",
"30 500 CURVE SMOOTH",
"30 11 LINE SMOOTH",
"30 3 OFFCURVE",
"32 -2 OFFCURVE",
"38 -8 CURVE SMOOTH",
"43 -13 OFFCURVE",
"48 -15 OFFCURVE",
"56 -15 CURVE SMOOTH"
);
}
);
visible = 1;
width = 990;
},
{
associatedMasterId = "CD9C77F0-B5D7-44C5-837C-E198B13B6DCE";
layerId = "8A407F90-D520-4932-ADE0-1E338B45A7A9";
name = "Color 0";
paths = (
{
closed = 1;
nodes = (
"985 -55 LINE SMOOTH",
"1015 -55 OFFCURVE",
"1040 -30 OFFCURVE",
"1040 0 CURVE SMOOTH",
"1040 30 OFFCURVE",
"1015 55 OFFCURVE",
"985 55 CURVE SMOOTH",
"140 55 LINE",
"140 500 LINE SMOOTH",
"140 530 OFFCURVE",
"115 555 OFFCURVE",
"85 555 CURVE SMOOTH",
"55 555 OFFCURVE",
"30 530 OFFCURVE",
"30 500 CURVE SMOOTH",
"30 40 LINE SMOOTH",
"30 12 OFFCURVE",
"38 -8 OFFCURVE",
"58 -28 CURVE SMOOTH",
"77 -47 OFFCURVE",
"97 -55 OFFCURVE",
"125 -55 CURVE SMOOTH"
);
}
);
visible = 1;
width = 1070;
}
);
unicode = 004C;
},
{
glyphname = M;
lastChange = "2018-12-05 10:07:47 +0000";
layers = (
{
layerId = "ADA7F6FF-5955-4EF3-8FA7-BADC10F8EE4C";
paths = (
{
closed = 1;
nodes = (
"100 -45 OFFCURVE",
"120 -25 OFFCURVE",
"120 0 CURVE SMOOTH",
"120 383 LINE",
"469 -5 LINE SMOOTH",
"485 -23 OFFCURVE",
"501 -30 OFFCURVE",
"525 -30 CURVE SMOOTH",
"549 -30 OFFCURVE",
"565 -23 OFFCURVE",
"581 -5 CURVE SMOOTH",
"930 383 LINE",
"930 0 LINE SMOOTH",
"930 -25 OFFCURVE",
"950 -45 OFFCURVE",
"975 -45 CURVE SMOOTH",
"1000 -45 OFFCURVE",
"1020 -25 OFFCURVE",
"1020 0 CURVE SMOOTH",
"1020 462 LINE SMOOTH",
"1020 488 OFFCURVE",
"1009 504 OFFCURVE",
"984 514 CURVE",
"977 516 LINE",
"953 526 OFFCURVE",
"933 521 OFFCURVE",
"916 502 CURVE SMOOTH",
"525 67 LINE",
"134 502 LINE SMOOTH",
"117 521 OFFCURVE",
"97 526 OFFCURVE",
"73 516 CURVE",
"66 514 LINE",
"41 504 OFFCURVE",
"30 488 OFFCURVE",
"30 462 CURVE SMOOTH",
"30 0 LINE SMOOTH",
"30 -25 OFFCURVE",
"50 -45 OFFCURVE",
"75 -45 CURVE SMOOTH"
);
}
);
width = 1050;
},
{
layerId = "DB0132F3-CD2F-4AE3-8556-0788338384B9";
paths = (
{
closed = 1;
nodes = (
"53 -15 OFFCURVE",
"60 -8 OFFCURVE",
"60 0 CURVE SMOOTH",
"60 461 LINE",
"476 -2 LINE SMOOTH",
"482 -8 OFFCURVE",
"487 -10 OFFCURVE",
"495 -10 CURVE SMOOTH",
"503 -10 OFFCURVE",
"508 -8 OFFCURVE",
"514 -2 CURVE SMOOTH",
"930 461 LINE",
"930 0 LINE SMOOTH",
"930 -8 OFFCURVE",
"937 -15 OFFCURVE",
"945 -15 CURVE SMOOTH",
"953 -15 OFFCURVE",
"960 -8 OFFCURVE",
"960 0 CURVE SMOOTH",
"960 487 LINE SMOOTH",
"960 496 OFFCURVE",
"956 501 OFFCURVE",
"948 505 CURVE SMOOTH",
"946 505 LINE SMOOTH",
"938 509 OFFCURVE",
"931 507 OFFCURVE",
"925 501 CURVE SMOOTH",
"495 22 LINE",
"65 501 LINE SMOOTH",
"59 507 OFFCURVE",
"52 509 OFFCURVE",
"44 505 CURVE SMOOTH",
"42 505 LINE SMOOTH",
"34 501 OFFCURVE",
"30 496 OFFCURVE",
"30 487 CURVE SMOOTH",
"30 0 LINE SMOOTH",
"30 -8 OFFCURVE",
"37 -15 OFFCURVE",
"45 -15 CURVE SMOOTH"
);
}
);
width = 990;
},
{
layerId = "CD9C77F0-B5D7-44C5-837C-E198B13B6DCE";
paths = (
{
closed = 1;
nodes = (
"115 -55 OFFCURVE",
"140 -30 OFFCURVE",
"140 0 CURVE SMOOTH",
"140 357 LINE",
"467 -7 LINE SMOOTH",
"486 -28 OFFCURVE",
"506 -37 OFFCURVE",
"535 -37 CURVE SMOOTH",
"564 -37 OFFCURVE",
"584 -28 OFFCURVE",
"603 -7 CURVE SMOOTH",
"930 357 LINE",
"930 0 LINE SMOOTH",
"930 -30 OFFCURVE",
"955 -55 OFFCURVE",
"985 -55 CURVE SMOOTH",
"1015 -55 OFFCURVE",
"1040 -30 OFFCURVE",
"1040 0 CURVE SMOOTH",
"1040 453 LINE SMOOTH",
"1040 485 OFFCURVE",
"1026 505 OFFCURVE",
"997 517 CURVE SMOOTH",
"988 520 LINE SMOOTH",
"958 532 OFFCURVE",
"934 526 OFFCURVE",
"913 502 CURVE SMOOTH",
"535 82 LINE",
"157 502 LINE SMOOTH",
"136 526 OFFCURVE",
"112 532 OFFCURVE",
"82 520 CURVE SMOOTH",
"73 517 LINE SMOOTH",
"44 505 OFFCURVE",
"30 485 OFFCURVE",
"30 453 CURVE SMOOTH",
"30 0 LINE SMOOTH",
"30 -30 OFFCURVE",
"55 -55 OFFCURVE",
"85 -55 CURVE SMOOTH"
);
}
);
width = 1070;
},
{
associatedMasterId = "ADA7F6FF-5955-4EF3-8FA7-BADC10F8EE4C";
layerId = "79ED66B0-B12D-4170-98FE-E972F35A1D55";
name = "Color 0";
paths = (
{
closed = 1;
nodes = (
"100 -45 OFFCURVE",
"120 -25 OFFCURVE",
"120 0 CURVE SMOOTH",
"120 383 LINE",
"469 -5 LINE SMOOTH",
"485 -23 OFFCURVE",
"501 -30 OFFCURVE",
"525 -30 CURVE SMOOTH",
"549 -30 OFFCURVE",
"565 -23 OFFCURVE",
"581 -5 CURVE SMOOTH",
"930 383 LINE",
"930 0 LINE SMOOTH",
"930 -25 OFFCURVE",
"950 -45 OFFCURVE",
"975 -45 CURVE SMOOTH",
"1000 -45 OFFCURVE",
"1020 -25 OFFCURVE",
"1020 0 CURVE SMOOTH",
"1020 462 LINE SMOOTH",
"1020 488 OFFCURVE",
"1009 504 OFFCURVE",
"984 514 CURVE",
"977 516 LINE",
"953 526 OFFCURVE",
"933 521 OFFCURVE",
"916 502 CURVE SMOOTH",
"525 67 LINE",
"134 502 LINE SMOOTH",
"117 521 OFFCURVE",
"97 526 OFFCURVE",
"73 516 CURVE",
"66 514 LINE",
"41 504 OFFCURVE",
"30 488 OFFCURVE",
"30 462 CURVE SMOOTH",
"30 0 LINE SMOOTH",
"30 -25 OFFCURVE",
"50 -45 OFFCURVE",
"75 -45 CURVE SMOOTH"
);
}
);
visible = 1;
width = 1050;
},
{
associatedMasterId = "DB0132F3-CD2F-4AE3-8556-0788338384B9";
layerId = "B9DF45B4-EBBD-49FF-B2BD-D3AFD2ABE872";
name = "Color 0";
paths = (
{
closed = 1;
nodes = (
"53 -15 OFFCURVE",
"60 -8 OFFCURVE",
"60 0 CURVE SMOOTH",
"60 461 LINE",
"476 -2 LINE SMOOTH",
"482 -8 OFFCURVE",
"487 -10 OFFCURVE",
"495 -10 CURVE SMOOTH",
"503 -10 OFFCURVE",
"508 -8 OFFCURVE",
"514 -2 CURVE SMOOTH",
"930 461 LINE",
"930 0 LINE SMOOTH",
"930 -8 OFFCURVE",
"937 -15 OFFCURVE",
"945 -15 CURVE SMOOTH",
"953 -15 OFFCURVE",
"960 -8 OFFCURVE",
"960 0 CURVE SMOOTH",
"960 487 LINE SMOOTH",
"960 496 OFFCURVE",
"956 501 OFFCURVE",
"948 505 CURVE SMOOTH",
"946 505 LINE SMOOTH",
"938 509 OFFCURVE",
"931 507 OFFCURVE",
"925 501 CURVE SMOOTH",
"495 22 LINE",
"65 501 LINE SMOOTH",
"59 507 OFFCURVE",
"52 509 OFFCURVE",
"44 505 CURVE SMOOTH",
"42 505 LINE SMOOTH",
"34 501 OFFCURVE",
"30 496 OFFCURVE",
"30 487 CURVE SMOOTH",
"30 0 LINE SMOOTH",
"30 -8 OFFCURVE",
"37 -15 OFFCURVE",
"45 -15 CURVE SMOOTH"
);
}
);
visible = 1;
width = 990;
},
{
associatedMasterId = "CD9C77F0-B5D7-44C5-837C-E198B13B6DCE";
layerId = "EC892E2F-A1E4-458B-8218-3127074C5BC2";
name = "Color 0";
paths = (
{
closed = 1;
nodes = (
"115 -55 OFFCURVE",
"140 -30 OFFCURVE",
"140 0 CURVE SMOOTH",
"140 357 LINE",
"467 -7 LINE SMOOTH",
"486 -28 OFFCURVE",
"506 -37 OFFCURVE",
"535 -37 CURVE SMOOTH",
"564 -37 OFFCURVE",
"584 -28 OFFCURVE",
"603 -7 CURVE SMOOTH",
"930 357 LINE",
"930 0 LINE SMOOTH",
"930 -30 OFFCURVE",
"955 -55 OFFCURVE",
"985 -55 CURVE SMOOTH",
"1015 -55 OFFCURVE",
"1040 -30 OFFCURVE",
"1040 0 CURVE SMOOTH",
"1040 453 LINE SMOOTH",
"1040 485 OFFCURVE",
"1026 505 OFFCURVE",
"997 517 CURVE SMOOTH",
"988 520 LINE SMOOTH",
"958 532 OFFCURVE",
"934 526 OFFCURVE",
"913 502 CURVE SMOOTH",
"535 82 LINE",
"157 502 LINE SMOOTH",
"136 526 OFFCURVE",
"112 532 OFFCURVE",
"82 520 CURVE SMOOTH",
"73 517 LINE SMOOTH",
"44 505 OFFCURVE",
"30 485 OFFCURVE",
"30 453 CURVE SMOOTH",
"30 0 LINE SMOOTH",
"30 -30 OFFCURVE",
"55 -55 OFFCURVE",
"85 -55 CURVE SMOOTH"
);
}
);
visible = 1;
width = 1070;
}
);
unicode = 004D;
},
{
glyphname = N;
lastChange = "2018-12-05 10:07:56 +0000";
layers = (
{
layerId = "ADA7F6FF-5955-4EF3-8FA7-BADC10F8EE4C";
paths = (
{
closed = 1;
nodes = (
"100 -45 OFFCURVE",
"120 -25 OFFCURVE",
"120 0 CURVE SMOOTH",
"120 424 LINE",
"922 -22 LINE SMOOTH",
"944 -34 OFFCURVE",
"963 -34 OFFCURVE",
"984 -21 CURVE SMOOTH",
"989 -18 LINE SMOOTH",
"1011 -6 OFFCURVE",
"1020 11 OFFCURVE",
"1020 36 CURVE SMOOTH",
"1020 500 LINE SMOOTH",
"1020 525 OFFCURVE",
"1000 545 OFFCURVE",
"975 545 CURVE SMOOTH",
"950 545 OFFCURVE",
"930 525 OFFCURVE",
"930 500 CURVE SMOOTH",
"930 76 LINE",
"128 522 LINE SMOOTH",
"106 534 OFFCURVE",
"87 534 OFFCURVE",
"66 521 CURVE SMOOTH",
"61 518 LINE SMOOTH",
"39 506 OFFCURVE",
"30 489 OFFCURVE",
"30 464 CURVE SMOOTH",
"30 0 LINE SMOOTH",
"30 -25 OFFCURVE",
"50 -45 OFFCURVE",
"75 -45 CURVE SMOOTH"
);
}
);
width = 1050;
},
{
layerId = "DB0132F3-CD2F-4AE3-8556-0788338384B9";
paths = (
{
closed = 1;
nodes = (
"53 -15 OFFCURVE",
"60 -8 OFFCURVE",
"60 0 CURVE SMOOTH",
"60 475 LINE",
"927 -7 LINE SMOOTH",
"935 -11 OFFCURVE",
"941 -11 OFFCURVE",
"948 -7 CURVE SMOOTH",
"950 -6 LINE SMOOTH",
"957 -2 OFFCURVE",
"960 4 OFFCURVE",
"960 12 CURVE SMOOTH",
"960 500 LINE SMOOTH",
"960 508 OFFCURVE",
"953 515 OFFCURVE",
"945 515 CURVE SMOOTH",
"937 515 OFFCURVE",
"930 508 OFFCURVE",
"930 500 CURVE SMOOTH",
"930 25 LINE",
"63 507 LINE SMOOTH",
"55 511 OFFCURVE",
"49 511 OFFCURVE",
"42 507 CURVE SMOOTH",
"40 506 LINE SMOOTH",
"33 502 OFFCURVE",
"30 496 OFFCURVE",
"30 488 CURVE SMOOTH",
"30 0 LINE SMOOTH",
"30 -8 OFFCURVE",
"37 -15 OFFCURVE",
"45 -15 CURVE SMOOTH"
);
}
);
width = 990;
},
{
layerId = "CD9C77F0-B5D7-44C5-837C-E198B13B6DCE";
paths = (
{
closed = 1;
nodes = (
"115 -55 OFFCURVE",
"140 -30 OFFCURVE",
"140 0 CURVE SMOOTH",
"140 407 LINE",
"920 -27 LINE SMOOTH",
"947 -42 OFFCURVE",
"970 -41 OFFCURVE",
"996 -26 CURVE SMOOTH",
"1002 -22 LINE SMOOTH",
"1029 -7 OFFCURVE",
"1040 13 OFFCURVE",
"1040 44 CURVE SMOOTH",
"1040 500 LINE SMOOTH",
"1040 530 OFFCURVE",
"1015 555 OFFCURVE",
"985 555 CURVE SMOOTH",
"955 555 OFFCURVE",
"930 530 OFFCURVE",
"930 500 CURVE SMOOTH",
"930 93 LINE",
"150 527 LINE SMOOTH",
"123 542 OFFCURVE",
"100 541 OFFCURVE",
"74 526 CURVE SMOOTH",
"68 522 LINE SMOOTH",
"41 507 OFFCURVE",
"30 487 OFFCURVE",
"30 456 CURVE SMOOTH",
"30 0 LINE SMOOTH",
"30 -30 OFFCURVE",
"55 -55 OFFCURVE",
"85 -55 CURVE SMOOTH"
);
}
);
width = 1070;
},
{
associatedMasterId = "ADA7F6FF-5955-4EF3-8FA7-BADC10F8EE4C";
layerId = "95D53E73-A37C-4D14-A4E1-05ACEC6501EF";
name = "Color 0";
paths = (
{
closed = 1;
nodes = (
"100 -45 OFFCURVE",
"120 -25 OFFCURVE",
"120 0 CURVE SMOOTH",
"120 424 LINE",
"922 -22 LINE SMOOTH",
"944 -34 OFFCURVE",
"963 -34 OFFCURVE",
"984 -21 CURVE SMOOTH",
"989 -18 LINE SMOOTH",
"1011 -6 OFFCURVE",
"1020 11 OFFCURVE",
"1020 36 CURVE SMOOTH",
"1020 500 LINE SMOOTH",
"1020 525 OFFCURVE",
"1000 545 OFFCURVE",
"975 545 CURVE SMOOTH",
"950 545 OFFCURVE",
"930 525 OFFCURVE",
"930 500 CURVE SMOOTH",
"930 76 LINE",
"128 522 LINE SMOOTH",
"106 534 OFFCURVE",
"87 534 OFFCURVE",
"66 521 CURVE SMOOTH",
"61 518 LINE SMOOTH",
"39 506 OFFCURVE",
"30 489 OFFCURVE",
"30 464 CURVE SMOOTH",
"30 0 LINE SMOOTH",
"30 -25 OFFCURVE",
"50 -45 OFFCURVE",
"75 -45 CURVE SMOOTH"
);
}
);
visible = 1;
width = 1050;
},
{
associatedMasterId = "DB0132F3-CD2F-4AE3-8556-0788338384B9";
layerId = "71D8FCF1-6F65-41DF-9643-F34A7D58E2FD";
name = "Color 0";
paths = (
{
closed = 1;
nodes = (
"53 -15 OFFCURVE",
"60 -8 OFFCURVE",
"60 0 CURVE SMOOTH",
"60 475 LINE",
"927 -7 LINE SMOOTH",
"935 -11 OFFCURVE",
"941 -11 OFFCURVE",
"948 -7 CURVE SMOOTH",
"950 -6 LINE SMOOTH",
"957 -2 OFFCURVE",
"960 4 OFFCURVE",
"960 12 CURVE SMOOTH",
"960 500 LINE SMOOTH",
"960 508 OFFCURVE",
"953 515 OFFCURVE",
"945 515 CURVE SMOOTH",
"937 515 OFFCURVE",
"930 508 OFFCURVE",
"930 500 CURVE SMOOTH",
"930 25 LINE",
"63 507 LINE SMOOTH",
"55 511 OFFCURVE",
"49 511 OFFCURVE",
"42 507 CURVE SMOOTH",
"40 506 LINE SMOOTH",
"33 502 OFFCURVE",
"30 496 OFFCURVE",
"30 488 CURVE SMOOTH",
"30 0 LINE SMOOTH",
"30 -8 OFFCURVE",
"37 -15 OFFCURVE",
"45 -15 CURVE SMOOTH"
);
}
);
visible = 1;
width = 990;
},
{
associatedMasterId = "CD9C77F0-B5D7-44C5-837C-E198B13B6DCE";
layerId = "DAE03E31-401B-41B1-8C81-418348139307";
name = "Color 0";
paths = (
{
closed = 1;
nodes = (
"115 -55 OFFCURVE",
"140 -30 OFFCURVE",
"140 0 CURVE SMOOTH",
"140 407 LINE",
"920 -27 LINE SMOOTH",
"947 -42 OFFCURVE",
"970 -41 OFFCURVE",
"996 -26 CURVE SMOOTH",
"1002 -22 LINE SMOOTH",
"1029 -7 OFFCURVE",
"1040 13 OFFCURVE",
"1040 44 CURVE SMOOTH",
"1040 500 LINE SMOOTH",
"1040 530 OFFCURVE",
"1015 555 OFFCURVE",
"985 555 CURVE SMOOTH",
"955 555 OFFCURVE",
"930 530 OFFCURVE",
"930 500 CURVE SMOOTH",
"930 93 LINE",
"150 527 LINE SMOOTH",
"123 542 OFFCURVE",
"100 541 OFFCURVE",
"74 526 CURVE SMOOTH",
"68 522 LINE SMOOTH",
"41 507 OFFCURVE",
"30 487 OFFCURVE",
"30 456 CURVE SMOOTH",
"30 0 LINE SMOOTH",
"30 -30 OFFCURVE",
"55 -55 OFFCURVE",
"85 -55 CURVE SMOOTH"
);
}
);
visible = 1;
width = 1070;
}
);
unicode = 004E;
},
{
glyphname = O;
lastChange = "2018-12-05 10:08:01 +0000";
layers = (
{
layerId = "ADA7F6FF-5955-4EF3-8FA7-BADC10F8EE4C";
paths = (
{
closed = 1;
nodes = (
"942 -45 LINE SMOOTH",
"966 -45 OFFCURVE",
"982 -38 OFFCURVE",
"998 -23 CURVE SMOOTH",
"1013 -7 OFFCURVE",
"1020 9 OFFCURVE",
"1020 33 CURVE SMOOTH",
"1020 467 LINE SMOOTH",
"1020 491 OFFCURVE",
"1013 507 OFFCURVE",
"998 523 CURVE SMOOTH",
"982 538 OFFCURVE",
"966 545 OFFCURVE",
"942 545 CURVE SMOOTH",
"108 545 LINE SMOOTH",
"84 545 OFFCURVE",
"68 538 OFFCURVE",
"53 523 CURVE SMOOTH",
"37 507 OFFCURVE",
"30 491 OFFCURVE",
"30 467 CURVE SMOOTH",
"30 33 LINE SMOOTH",
"30 9 OFFCURVE",
"37 -7 OFFCURVE",
"53 -23 CURVE SMOOTH",
"68 -38 OFFCURVE",
"84 -45 OFFCURVE",
"108 -45 CURVE SMOOTH"
);
},
{
closed = 1;
nodes = (
"120 455 LINE",
"930 455 LINE",
"930 45 LINE",
"120 45 LINE"
);
}
);
width = 1050;
},
{
layerId = "DB0132F3-CD2F-4AE3-8556-0788338384B9";
paths = (
{
closed = 1;
nodes = (
"934 -15 LINE SMOOTH",
"942 -15 OFFCURVE",
"947 -13 OFFCURVE",
"953 -8 CURVE SMOOTH",
"958 -2 OFFCURVE",
"960 3 OFFCURVE",
"960 11 CURVE SMOOTH",
"960 489 LINE SMOOTH",
"960 497 OFFCURVE",
"958 502 OFFCURVE",
"953 508 CURVE SMOOTH",
"947 513 OFFCURVE",
"942 515 OFFCURVE",
"934 515 CURVE SMOOTH",
"56 515 LINE SMOOTH",
"48 515 OFFCURVE",
"43 513 OFFCURVE",
"38 508 CURVE SMOOTH",
"32 502 OFFCURVE",
"30 497 OFFCURVE",
"30 489 CURVE SMOOTH",
"30 11 LINE SMOOTH",
"30 3 OFFCURVE",
"32 -2 OFFCURVE",
"38 -8 CURVE SMOOTH",
"43 -13 OFFCURVE",
"48 -15 OFFCURVE",
"56 -15 CURVE SMOOTH"
);
},
{
closed = 1;
nodes = (
"60 485 LINE",
"930 485 LINE",
"930 15 LINE",
"60 15 LINE"
);
}
);
width = 990;
},
{
layerId = "CD9C77F0-B5D7-44C5-837C-E198B13B6DCE";
paths = (
{
closed = 1;
nodes = (
"945 -55 LINE SMOOTH",
"973 -55 OFFCURVE",
"993 -47 OFFCURVE",
"1013 -28 CURVE SMOOTH",
"1032 -8 OFFCURVE",
"1040 12 OFFCURVE",
"1040 40 CURVE SMOOTH",
"1040 460 LINE SMOOTH",
"1040 488 OFFCURVE",
"1032 508 OFFCURVE",
"1013 528 CURVE SMOOTH",
"993 547 OFFCURVE",
"973 555 OFFCURVE",
"945 555 CURVE SMOOTH",
"125 555 LINE SMOOTH",
"97 555 OFFCURVE",
"77 547 OFFCURVE",
"58 528 CURVE SMOOTH",
"38 508 OFFCURVE",
"30 488 OFFCURVE",
"30 460 CURVE SMOOTH",
"30 40 LINE SMOOTH",
"30 12 OFFCURVE",
"38 -8 OFFCURVE",
"58 -28 CURVE SMOOTH",
"77 -47 OFFCURVE",
"97 -55 OFFCURVE",
"125 -55 CURVE SMOOTH"
);
},
{
closed = 1;
nodes = (
"140 445 LINE",
"930 445 LINE",
"930 55 LINE",
"140 55 LINE"
);
}
);
width = 1070;
},
{
associatedMasterId = "ADA7F6FF-5955-4EF3-8FA7-BADC10F8EE4C";
layerId = "1D516A4E-AAD8-43B4-B944-AF8A55F20A9E";
name = "Color 0";
paths = (
{
closed = 1;
nodes = (
"942 -45 LINE SMOOTH",
"966 -45 OFFCURVE",
"982 -38 OFFCURVE",
"998 -23 CURVE SMOOTH",
"1013 -7 OFFCURVE",
"1020 9 OFFCURVE",
"1020 33 CURVE SMOOTH",
"1020 467 LINE SMOOTH",
"1020 491 OFFCURVE",
"1013 507 OFFCURVE",
"998 523 CURVE SMOOTH",
"982 538 OFFCURVE",
"966 545 OFFCURVE",
"942 545 CURVE SMOOTH",
"108 545 LINE SMOOTH",
"84 545 OFFCURVE",
"68 538 OFFCURVE",
"53 523 CURVE SMOOTH",
"37 507 OFFCURVE",
"30 491 OFFCURVE",
"30 467 CURVE SMOOTH",
"30 33 LINE SMOOTH",
"30 9 OFFCURVE",
"37 -7 OFFCURVE",
"53 -23 CURVE SMOOTH",
"68 -38 OFFCURVE",
"84 -45 OFFCURVE",
"108 -45 CURVE SMOOTH"
);
},
{
closed = 1;
nodes = (
"120 455 LINE",
"930 455 LINE",
"930 45 LINE",
"120 45 LINE"
);
}
);
visible = 1;
width = 1050;
},
{
associatedMasterId = "DB0132F3-CD2F-4AE3-8556-0788338384B9";
layerId = "CC54FF7D-C7CF-4CF3-89A8-F85E3077C7A8";
name = "Color 0";
paths = (
{
closed = 1;
nodes = (
"934 -15 LINE SMOOTH",
"942 -15 OFFCURVE",
"947 -13 OFFCURVE",
"953 -8 CURVE SMOOTH",
"958 -2 OFFCURVE",
"960 3 OFFCURVE",
"960 11 CURVE SMOOTH",
"960 489 LINE SMOOTH",
"960 497 OFFCURVE",
"958 502 OFFCURVE",
"953 508 CURVE SMOOTH",
"947 513 OFFCURVE",
"942 515 OFFCURVE",
"934 515 CURVE SMOOTH",
"56 515 LINE SMOOTH",
"48 515 OFFCURVE",
"43 513 OFFCURVE",
"38 508 CURVE SMOOTH",
"32 502 OFFCURVE",
"30 497 OFFCURVE",
"30 489 CURVE SMOOTH",
"30 11 LINE SMOOTH",
"30 3 OFFCURVE",
"32 -2 OFFCURVE",
"38 -8 CURVE SMOOTH",
"43 -13 OFFCURVE",
"48 -15 OFFCURVE",
"56 -15 CURVE SMOOTH"
);
},
{
closed = 1;
nodes = (
"60 485 LINE",
"930 485 LINE",
"930 15 LINE",
"60 15 LINE"
);
}
);
visible = 1;
width = 990;
},
{
associatedMasterId = "CD9C77F0-B5D7-44C5-837C-E198B13B6DCE";
layerId = "A3A09DBA-60EE-42C7-92F1-FEA61AAEE623";
name = "Color 0";
paths = (
{
closed = 1;
nodes = (
"945 -55 LINE SMOOTH",
"973 -55 OFFCURVE",
"993 -47 OFFCURVE",
"1013 -28 CURVE SMOOTH",
"1032 -8 OFFCURVE",
"1040 12 OFFCURVE",
"1040 40 CURVE SMOOTH",
"1040 460 LINE SMOOTH",
"1040 488 OFFCURVE",
"1032 508 OFFCURVE",
"1013 528 CURVE SMOOTH",
"993 547 OFFCURVE",
"973 555 OFFCURVE",
"945 555 CURVE SMOOTH",
"125 555 LINE SMOOTH",
"97 555 OFFCURVE",
"77 547 OFFCURVE",
"58 528 CURVE SMOOTH",
"38 508 OFFCURVE",
"30 488 OFFCURVE",
"30 460 CURVE SMOOTH",
"30 40 LINE SMOOTH",
"30 12 OFFCURVE",
"38 -8 OFFCURVE",
"58 -28 CURVE SMOOTH",
"77 -47 OFFCURVE",
"97 -55 OFFCURVE",
"125 -55 CURVE SMOOTH"
);
},
{
closed = 1;
nodes = (
"140 445 LINE",
"930 445 LINE",
"930 55 LINE",
"140 55 LINE"
);
}
);
visible = 1;
width = 1070;
}
);
unicode = 004F;
},
{
glyphname = P;
lastChange = "2018-12-05 10:08:09 +0000";
layers = (
{
layerId = "ADA7F6FF-5955-4EF3-8FA7-BADC10F8EE4C";
paths = (
{
closed = 1;
nodes = (
"100 -45 OFFCURVE",
"120 -25 OFFCURVE",
"120 0 CURVE SMOOTH",
"120 205 LINE",
"942 205 LINE SMOOTH",
"966 205 OFFCURVE",
"982 212 OFFCURVE",
"998 228 CURVE SMOOTH",
"1013 243 OFFCURVE",
"1020 259 OFFCURVE",
"1020 283 CURVE SMOOTH",
"1020 467 LINE SMOOTH",
"1020 491 OFFCURVE",
"1013 507 OFFCURVE",
"998 523 CURVE SMOOTH",
"982 538 OFFCURVE",
"966 545 OFFCURVE",
"942 545 CURVE SMOOTH",
"108 545 LINE SMOOTH",
"84 545 OFFCURVE",
"68 538 OFFCURVE",
"53 523 CURVE SMOOTH",
"37 507 OFFCURVE",
"30 491 OFFCURVE",
"30 467 CURVE SMOOTH",
"30 0 LINE SMOOTH",
"30 -25 OFFCURVE",
"50 -45 OFFCURVE",
"75 -45 CURVE SMOOTH"
);
},
{
closed = 1;
nodes = (
"120 455 LINE",
"930 455 LINE",
"930 295 LINE",
"120 295 LINE"
);
}
);
width = 1050;
},
{
layerId = "DB0132F3-CD2F-4AE3-8556-0788338384B9";
paths = (
{
closed = 1;
nodes = (
"53 -15 OFFCURVE",
"60 -8 OFFCURVE",
"60 0 CURVE SMOOTH",
"60 235 LINE",
"934 235 LINE SMOOTH",
"942 235 OFFCURVE",
"947 237 OFFCURVE",
"953 243 CURVE SMOOTH",
"958 248 OFFCURVE",
"960 253 OFFCURVE",
"960 261 CURVE SMOOTH",
"960 489 LINE SMOOTH",
"960 497 OFFCURVE",
"958 502 OFFCURVE",
"953 508 CURVE SMOOTH",
"947 513 OFFCURVE",
"942 515 OFFCURVE",
"934 515 CURVE SMOOTH",
"56 515 LINE SMOOTH",
"48 515 OFFCURVE",
"43 513 OFFCURVE",
"38 508 CURVE SMOOTH",
"32 502 OFFCURVE",
"30 497 OFFCURVE",
"30 489 CURVE SMOOTH",
"30 0 LINE SMOOTH",
"30 -8 OFFCURVE",
"37 -15 OFFCURVE",
"45 -15 CURVE SMOOTH"
);
},
{
closed = 1;
nodes = (
"60 485 LINE",
"930 485 LINE",
"930 265 LINE",
"60 265 LINE"
);
}
);
width = 990;
},
{
layerId = "CD9C77F0-B5D7-44C5-837C-E198B13B6DCE";
paths = (
{
closed = 1;
nodes = (
"115 -55 OFFCURVE",
"140 -30 OFFCURVE",
"140 0 CURVE SMOOTH",
"140 195 LINE",
"945 195 LINE SMOOTH",
"973 195 OFFCURVE",
"993 203 OFFCURVE",
"1013 223 CURVE SMOOTH",
"1032 242 OFFCURVE",
"1040 262 OFFCURVE",
"1040 290 CURVE SMOOTH",
"1040 460 LINE SMOOTH",
"1040 488 OFFCURVE",
"1032 508 OFFCURVE",
"1013 528 CURVE SMOOTH",
"993 547 OFFCURVE",
"973 555 OFFCURVE",
"945 555 CURVE SMOOTH",
"125 555 LINE SMOOTH",
"97 555 OFFCURVE",
"77 547 OFFCURVE",
"58 528 CURVE SMOOTH",
"38 508 OFFCURVE",
"30 488 OFFCURVE",
"30 460 CURVE SMOOTH",
"30 0 LINE SMOOTH",
"30 -30 OFFCURVE",
"55 -55 OFFCURVE",
"85 -55 CURVE SMOOTH"
);
},
{
closed = 1;
nodes = (
"140 445 LINE",
"930 445 LINE",
"930 305 LINE",
"140 305 LINE"
);
}
);
width = 1070;
},
{
associatedMasterId = "ADA7F6FF-5955-4EF3-8FA7-BADC10F8EE4C";
layerId = "8E856F7D-BE0A-4FC5-B3E9-EEB8D6CA6E59";
name = "Color 0";
paths = (
{
closed = 1;
nodes = (
"100 -45 OFFCURVE",
"120 -25 OFFCURVE",
"120 0 CURVE SMOOTH",
"120 205 LINE",
"942 205 LINE SMOOTH",
"966 205 OFFCURVE",
"982 212 OFFCURVE",
"998 228 CURVE SMOOTH",
"1013 243 OFFCURVE",
"1020 259 OFFCURVE",
"1020 283 CURVE SMOOTH",
"1020 467 LINE SMOOTH",
"1020 491 OFFCURVE",
"1013 507 OFFCURVE",
"998 523 CURVE SMOOTH",
"982 538 OFFCURVE",
"966 545 OFFCURVE",
"942 545 CURVE SMOOTH",
"108 545 LINE SMOOTH",
"84 545 OFFCURVE",
"68 538 OFFCURVE",
"53 523 CURVE SMOOTH",
"37 507 OFFCURVE",
"30 491 OFFCURVE",
"30 467 CURVE SMOOTH",
"30 0 LINE SMOOTH",
"30 -25 OFFCURVE",
"50 -45 OFFCURVE",
"75 -45 CURVE SMOOTH"
);
},
{
closed = 1;
nodes = (
"120 455 LINE",
"930 455 LINE",
"930 295 LINE",
"120 295 LINE"
);
}
);
visible = 1;
width = 1050;
},
{
associatedMasterId = "DB0132F3-CD2F-4AE3-8556-0788338384B9";
layerId = "2C08BD51-02ED-4D42-B1BD-C84997F7163E";
name = "Color 0";
paths = (
{
closed = 1;
nodes = (
"53 -15 OFFCURVE",
"60 -8 OFFCURVE",
"60 0 CURVE SMOOTH",
"60 235 LINE",
"934 235 LINE SMOOTH",
"942 235 OFFCURVE",
"947 237 OFFCURVE",
"953 243 CURVE SMOOTH",
"958 248 OFFCURVE",
"960 253 OFFCURVE",
"960 261 CURVE SMOOTH",
"960 489 LINE SMOOTH",
"960 497 OFFCURVE",
"958 502 OFFCURVE",
"953 508 CURVE SMOOTH",
"947 513 OFFCURVE",
"942 515 OFFCURVE",
"934 515 CURVE SMOOTH",
"56 515 LINE SMOOTH",
"48 515 OFFCURVE",
"43 513 OFFCURVE",
"38 508 CURVE SMOOTH",
"32 502 OFFCURVE",
"30 497 OFFCURVE",
"30 489 CURVE SMOOTH",
"30 0 LINE SMOOTH",
"30 -8 OFFCURVE",
"37 -15 OFFCURVE",
"45 -15 CURVE SMOOTH"
);
},
{
closed = 1;
nodes = (
"60 485 LINE",
"930 485 LINE",
"930 265 LINE",
"60 265 LINE"
);
}
);
visible = 1;
width = 990;
},
{
associatedMasterId = "CD9C77F0-B5D7-44C5-837C-E198B13B6DCE";
layerId = "C39BA87E-1A04-47EB-8EFE-345D4EE7BC3E";
name = "Color 0";
paths = (
{
closed = 1;
nodes = (
"115 -55 OFFCURVE",
"140 -30 OFFCURVE",
"140 0 CURVE SMOOTH",
"140 195 LINE",
"945 195 LINE SMOOTH",
"973 195 OFFCURVE",
"993 203 OFFCURVE",
"1013 223 CURVE SMOOTH",
"1032 242 OFFCURVE",
"1040 262 OFFCURVE",
"1040 290 CURVE SMOOTH",
"1040 460 LINE SMOOTH",
"1040 488 OFFCURVE",
"1032 508 OFFCURVE",
"1013 528 CURVE SMOOTH",
"993 547 OFFCURVE",
"973 555 OFFCURVE",
"945 555 CURVE SMOOTH",
"125 555 LINE SMOOTH",
"97 555 OFFCURVE",
"77 547 OFFCURVE",
"58 528 CURVE SMOOTH",
"38 508 OFFCURVE",
"30 488 OFFCURVE",
"30 460 CURVE SMOOTH",
"30 0 LINE SMOOTH",
"30 -30 OFFCURVE",
"55 -55 OFFCURVE",
"85 -55 CURVE SMOOTH"
);
},
{
closed = 1;
nodes = (
"140 445 LINE",
"930 445 LINE",
"930 305 LINE",
"140 305 LINE"
);
}
);
visible = 1;
width = 1070;
}
);
unicode = 0050;
},
{
glyphname = Q;
lastChange = "2018-12-05 10:08:14 +0000";
layers = (
{
layerId = "ADA7F6FF-5955-4EF3-8FA7-BADC10F8EE4C";
paths = (
{
closed = 1;
nodes = (
"942 -45 LINE SMOOTH",
"966 -45 OFFCURVE",
"982 -38 OFFCURVE",
"998 -23 CURVE SMOOTH",
"1013 -7 OFFCURVE",
"1020 9 OFFCURVE",
"1020 33 CURVE SMOOTH",
"1020 467 LINE SMOOTH",
"1020 491 OFFCURVE",
"1013 507 OFFCURVE",
"998 523 CURVE SMOOTH",
"982 538 OFFCURVE",
"966 545 OFFCURVE",
"942 545 CURVE SMOOTH",
"108 545 LINE SMOOTH",
"84 545 OFFCURVE",
"68 538 OFFCURVE",
"53 523 CURVE SMOOTH",
"37 507 OFFCURVE",
"30 491 OFFCURVE",
"30 467 CURVE SMOOTH",
"30 33 LINE SMOOTH",
"30 9 OFFCURVE",
"37 -7 OFFCURVE",
"53 -23 CURVE SMOOTH",
"68 -38 OFFCURVE",
"84 -45 OFFCURVE",
"108 -45 CURVE SMOOTH"
);
},
{
closed = 1;
nodes = (
"120 455 LINE",
"930 455 LINE",
"930 76 LINE",
"548 289 LINE SMOOTH",
"541 293 OFFCURVE",
"533 295 OFFCURVE",
"525 295 CURVE SMOOTH",
"500 295 OFFCURVE",
"480 275 OFFCURVE",
"480 250 CURVE SMOOTH",
"480 233 OFFCURVE",
"490 218 OFFCURVE",
"504 210 CURVE SMOOTH",
"801 45 LINE",
"120 45 LINE"
);
}
);
width = 1050;
},
{
layerId = "DB0132F3-CD2F-4AE3-8556-0788338384B9";
paths = (
{
closed = 1;
nodes = (
"934 -15 LINE SMOOTH",
"942 -15 OFFCURVE",
"947 -13 OFFCURVE",
"953 -8 CURVE SMOOTH",
"958 -2 OFFCURVE",
"960 3 OFFCURVE",
"960 11 CURVE SMOOTH",
"960 489 LINE SMOOTH",
"960 497 OFFCURVE",
"958 502 OFFCURVE",
"953 508 CURVE SMOOTH",
"947 513 OFFCURVE",
"942 515 OFFCURVE",
"934 515 CURVE SMOOTH",
"56 515 LINE SMOOTH",
"48 515 OFFCURVE",
"43 513 OFFCURVE",
"38 508 CURVE SMOOTH",
"32 502 OFFCURVE",
"30 497 OFFCURVE",
"30 489 CURVE SMOOTH",
"30 11 LINE SMOOTH",
"30 3 OFFCURVE",
"32 -2 OFFCURVE",
"38 -8 CURVE SMOOTH",
"43 -13 OFFCURVE",
"48 -15 OFFCURVE",
"56 -15 CURVE SMOOTH"
);
},
{
closed = 1;
nodes = (
"60 485 LINE",
"930 485 LINE",
"930 25 LINE",
"503 263 LINE SMOOTH",
"500 264 OFFCURVE",
"498 265 OFFCURVE",
"495 265 CURVE SMOOTH",
"487 265 OFFCURVE",
"480 258 OFFCURVE",
"480 250 CURVE SMOOTH",
"480 244 OFFCURVE",
"483 239 OFFCURVE",
"488 237 CURVE SMOOTH",
"887 15 LINE",
"60 15 LINE"
);
}
);
width = 990;
},
{
layerId = "CD9C77F0-B5D7-44C5-837C-E198B13B6DCE";
paths = (
{
closed = 1;
nodes = (
"945 -55 LINE SMOOTH",
"973 -55 OFFCURVE",
"993 -47 OFFCURVE",
"1013 -28 CURVE SMOOTH",
"1032 -8 OFFCURVE",
"1040 12 OFFCURVE",
"1040 40 CURVE SMOOTH",
"1040 460 LINE SMOOTH",
"1040 488 OFFCURVE",
"1032 508 OFFCURVE",
"1013 528 CURVE SMOOTH",
"993 547 OFFCURVE",
"973 555 OFFCURVE",
"945 555 CURVE SMOOTH",
"125 555 LINE SMOOTH",
"97 555 OFFCURVE",
"77 547 OFFCURVE",
"58 528 CURVE SMOOTH",
"38 508 OFFCURVE",
"30 488 OFFCURVE",
"30 460 CURVE SMOOTH",
"30 40 LINE SMOOTH",
"30 12 OFFCURVE",
"38 -8 OFFCURVE",
"58 -28 CURVE SMOOTH",
"77 -47 OFFCURVE",
"97 -55 OFFCURVE",
"125 -55 CURVE SMOOTH"
);
},
{
closed = 1;
nodes = (
"140 445 LINE",
"930 445 LINE",
"930 93 LINE",
"563 298 LINE SMOOTH",
"554 302 OFFCURVE",
"545 305 OFFCURVE",
"535 305 CURVE SMOOTH",
"505 305 OFFCURVE",
"480 280 OFFCURVE",
"480 250 CURVE SMOOTH",
"480 229 OFFCURVE",
"492 211 OFFCURVE",
"509 201 CURVE SMOOTH",
"773 55 LINE",
"140 55 LINE"
);
}
);
width = 1070;
},
{
associatedMasterId = "ADA7F6FF-5955-4EF3-8FA7-BADC10F8EE4C";
layerId = "CD0604C5-5519-4936-9E92-FA6989EF0E5D";
name = "Color 0";
paths = (
{
closed = 1;
nodes = (
"942 -45 LINE SMOOTH",
"966 -45 OFFCURVE",
"982 -38 OFFCURVE",
"998 -23 CURVE SMOOTH",
"1013 -7 OFFCURVE",
"1020 9 OFFCURVE",
"1020 33 CURVE SMOOTH",
"1020 467 LINE SMOOTH",
"1020 491 OFFCURVE",
"1013 507 OFFCURVE",
"998 523 CURVE SMOOTH",
"982 538 OFFCURVE",
"966 545 OFFCURVE",
"942 545 CURVE SMOOTH",
"108 545 LINE SMOOTH",
"84 545 OFFCURVE",
"68 538 OFFCURVE",
"53 523 CURVE SMOOTH",
"37 507 OFFCURVE",
"30 491 OFFCURVE",
"30 467 CURVE SMOOTH",
"30 33 LINE SMOOTH",
"30 9 OFFCURVE",
"37 -7 OFFCURVE",
"53 -23 CURVE SMOOTH",
"68 -38 OFFCURVE",
"84 -45 OFFCURVE",
"108 -45 CURVE SMOOTH"
);
},
{
closed = 1;
nodes = (
"120 455 LINE",
"930 455 LINE",
"930 76 LINE",
"548 289 LINE SMOOTH",
"541 293 OFFCURVE",
"533 295 OFFCURVE",
"525 295 CURVE SMOOTH",
"500 295 OFFCURVE",
"480 275 OFFCURVE",
"480 250 CURVE SMOOTH",
"480 233 OFFCURVE",
"490 218 OFFCURVE",
"504 210 CURVE SMOOTH",
"801 45 LINE",
"120 45 LINE"
);
}
);
visible = 1;
width = 1050;
},
{
associatedMasterId = "DB0132F3-CD2F-4AE3-8556-0788338384B9";
layerId = "988C0413-7E35-4E9A-A68A-04E6D46DA010";
name = "Color 0";
paths = (
{
closed = 1;
nodes = (
"934 -15 LINE SMOOTH",
"942 -15 OFFCURVE",
"947 -13 OFFCURVE",
"953 -8 CURVE SMOOTH",
"958 -2 OFFCURVE",
"960 3 OFFCURVE",
"960 11 CURVE SMOOTH",
"960 489 LINE SMOOTH",
"960 497 OFFCURVE",
"958 502 OFFCURVE",
"953 508 CURVE SMOOTH",
"947 513 OFFCURVE",
"942 515 OFFCURVE",
"934 515 CURVE SMOOTH",
"56 515 LINE SMOOTH",
"48 515 OFFCURVE",
"43 513 OFFCURVE",
"38 508 CURVE SMOOTH",
"32 502 OFFCURVE",
"30 497 OFFCURVE",
"30 489 CURVE SMOOTH",
"30 11 LINE SMOOTH",
"30 3 OFFCURVE",
"32 -2 OFFCURVE",
"38 -8 CURVE SMOOTH",
"43 -13 OFFCURVE",
"48 -15 OFFCURVE",
"56 -15 CURVE SMOOTH"
);
},
{
closed = 1;
nodes = (
"60 485 LINE",
"930 485 LINE",
"930 25 LINE",
"503 263 LINE SMOOTH",
"500 264 OFFCURVE",
"498 265 OFFCURVE",
"495 265 CURVE SMOOTH",
"487 265 OFFCURVE",
"480 258 OFFCURVE",
"480 250 CURVE SMOOTH",
"480 244 OFFCURVE",
"483 239 OFFCURVE",
"488 237 CURVE SMOOTH",
"887 15 LINE",
"60 15 LINE"
);
}
);
visible = 1;
width = 990;
},
{
associatedMasterId = "CD9C77F0-B5D7-44C5-837C-E198B13B6DCE";
layerId = "2295C0A9-F63C-413B-AFE5-9FAD3B247CAA";
name = "Color 0";
paths = (
{
closed = 1;
nodes = (
"945 -55 LINE SMOOTH",
"973 -55 OFFCURVE",
"993 -47 OFFCURVE",
"1013 -28 CURVE SMOOTH",
"1032 -8 OFFCURVE",
"1040 12 OFFCURVE",
"1040 40 CURVE SMOOTH",
"1040 460 LINE SMOOTH",
"1040 488 OFFCURVE",
"1032 508 OFFCURVE",
"1013 528 CURVE SMOOTH",
"993 547 OFFCURVE",
"973 555 OFFCURVE",
"945 555 CURVE SMOOTH",
"125 555 LINE SMOOTH",
"97 555 OFFCURVE",
"77 547 OFFCURVE",
"58 528 CURVE SMOOTH",
"38 508 OFFCURVE",
"30 488 OFFCURVE",
"30 460 CURVE SMOOTH",
"30 40 LINE SMOOTH",
"30 12 OFFCURVE",
"38 -8 OFFCURVE",
"58 -28 CURVE SMOOTH",
"77 -47 OFFCURVE",
"97 -55 OFFCURVE",
"125 -55 CURVE SMOOTH"
);
},
{
closed = 1;
nodes = (
"140 445 LINE",
"930 445 LINE",
"930 93 LINE",
"563 298 LINE SMOOTH",
"554 302 OFFCURVE",
"545 305 OFFCURVE",
"535 305 CURVE SMOOTH",
"505 305 OFFCURVE",
"480 280 OFFCURVE",
"480 250 CURVE SMOOTH",
"480 229 OFFCURVE",
"492 211 OFFCURVE",
"509 201 CURVE SMOOTH",
"773 55 LINE",
"140 55 LINE"
);
}
);
visible = 1;
width = 1070;
}
);
unicode = 0051;
},
{
glyphname = R;
lastChange = "2018-12-05 10:08:21 +0000";
layers = (
{
layerId = "ADA7F6FF-5955-4EF3-8FA7-BADC10F8EE4C";
paths = (
{
closed = 1;
nodes = (
"1000 -46 OFFCURVE",
"1020 -26 OFFCURVE",
"1020 -1 CURVE SMOOTH",
"1020 124 LINE SMOOTH",
"1020 176 OFFCURVE",
"1001 219 OFFCURVE",
"969 250 CURVE",
"1001 280 OFFCURVE",
"1020 323 OFFCURVE",
"1020 375 CURVE SMOOTH",
"1020 467 LINE SMOOTH",
"1020 491 OFFCURVE",
"1013 507 OFFCURVE",
"998 523 CURVE",
"982 538 OFFCURVE",
"966 545 OFFCURVE",
"942 545 CURVE SMOOTH",
"108 545 LINE SMOOTH",
"84 545 OFFCURVE",
"68 538 OFFCURVE",
"53 523 CURVE SMOOTH",
"37 507 OFFCURVE",
"30 491 OFFCURVE",
"30 467 CURVE SMOOTH",
"30 0 LINE SMOOTH",
"30 -25 OFFCURVE",
"50 -45 OFFCURVE",
"75 -45 CURVE SMOOTH",
"100 -45 OFFCURVE",
"120 -25 OFFCURVE",
"120 0 CURVE SMOOTH",
"120 205 LINE",
"850 205 LINE",
"850 204 OFFCURVE",
"857 206 OFFCURVE",
"876 201 CURVE SMOOTH",
"910 192 OFFCURVE",
"930 165 OFFCURVE",
"930 124 CURVE SMOOTH",
"930 -1 LINE SMOOTH",
"930 -26 OFFCURVE",
"950 -46 OFFCURVE",
"975 -46 CURVE SMOOTH"
);
},
{
closed = 1;
nodes = (
"120 455 LINE",
"930 455 LINE",
"930 375 LINE SMOOTH",
"930 325 OFFCURVE",
"900 295 OFFCURVE",
"850 295 CURVE SMOOTH",
"120 295 LINE"
);
}
);
width = 1050;
},
{
layerId = "DB0132F3-CD2F-4AE3-8556-0788338384B9";
paths = (
{
closed = 1;
nodes = (
"953 -16 OFFCURVE",
"960 -9 OFFCURVE",
"960 -1 CURVE SMOOTH",
"960 124 LINE SMOOTH",
"960 182 OFFCURVE",
"932 228 OFFCURVE",
"887 250 CURVE",
"932 271 OFFCURVE",
"960 317 OFFCURVE",
"960 375 CURVE SMOOTH",
"960 489 LINE SMOOTH",
"960 497 OFFCURVE",
"958 502 OFFCURVE",
"953 508 CURVE",
"947 513 OFFCURVE",
"942 515 OFFCURVE",
"934 515 CURVE SMOOTH",
"56 515 LINE SMOOTH",
"48 515 OFFCURVE",
"43 513 OFFCURVE",
"38 508 CURVE SMOOTH",
"32 502 OFFCURVE",
"30 497 OFFCURVE",
"30 489 CURVE SMOOTH",
"30 0 LINE SMOOTH",
"30 -8 OFFCURVE",
"37 -15 OFFCURVE",
"45 -15 CURVE SMOOTH",
"53 -15 OFFCURVE",
"60 -8 OFFCURVE",
"60 0 CURVE SMOOTH",
"60 235 LINE",
"820 235 LINE",
"820 234 OFFCURVE",
"822 234 OFFCURVE",
"829 234 CURVE",
"891 230 OFFCURVE",
"930 188 OFFCURVE",
"930 124 CURVE SMOOTH",
"930 -1 LINE SMOOTH",
"930 -9 OFFCURVE",
"937 -16 OFFCURVE",
"945 -16 CURVE SMOOTH"
);
},
{
closed = 1;
nodes = (
"60 485 LINE",
"930 485 LINE",
"930 375 LINE SMOOTH",
"930 308 OFFCURVE",
"887 265 OFFCURVE",
"820 265 CURVE SMOOTH",
"60 265 LINE"
);
}
);
width = 990;
},
{
layerId = "CD9C77F0-B5D7-44C5-837C-E198B13B6DCE";
paths = (
{
closed = 1;
nodes = (
"1015 -56 OFFCURVE",
"1040 -31 OFFCURVE",
"1040 -1 CURVE SMOOTH",
"1040 124 LINE SMOOTH",
"1040 174 OFFCURVE",
"1023 218 OFFCURVE",
"993 250 CURVE",
"1023 281 OFFCURVE",
"1040 325 OFFCURVE",
"1040 375 CURVE SMOOTH",
"1040 460 LINE SMOOTH",
"1040 488 OFFCURVE",
"1032 508 OFFCURVE",
"1013 528 CURVE",
"993 547 OFFCURVE",
"973 555 OFFCURVE",
"945 555 CURVE SMOOTH",
"125 555 LINE SMOOTH",
"97 555 OFFCURVE",
"77 547 OFFCURVE",
"58 528 CURVE SMOOTH",
"38 508 OFFCURVE",
"30 488 OFFCURVE",
"30 460 CURVE SMOOTH",
"30 0 LINE SMOOTH",
"30 -30 OFFCURVE",
"55 -55 OFFCURVE",
"85 -55 CURVE SMOOTH",
"115 -55 OFFCURVE",
"140 -30 OFFCURVE",
"140 0 CURVE SMOOTH",
"140 195 LINE",
"860 195 LINE",
"860 194 OFFCURVE",
"869 197 OFFCURVE",
"891 189 CURVE SMOOTH",
"916 179 OFFCURVE",
"930 157 OFFCURVE",
"930 124 CURVE SMOOTH",
"930 -1 LINE SMOOTH",
"930 -31 OFFCURVE",
"955 -56 OFFCURVE",
"985 -56 CURVE SMOOTH"
);
},
{
closed = 1;
nodes = (
"140 445 LINE",
"930 445 LINE",
"930 375 LINE SMOOTH",
"930 330 OFFCURVE",
"905 305 OFFCURVE",
"860 305 CURVE SMOOTH",
"140 305 LINE"
);
}
);
width = 1070;
},
{
associatedMasterId = "ADA7F6FF-5955-4EF3-8FA7-BADC10F8EE4C";
layerId = "138402FF-0C09-44AF-855D-0E8AE2816656";
name = "Color 0";
paths = (
{
closed = 1;
nodes = (
"1000 -46 OFFCURVE",
"1020 -26 OFFCURVE",
"1020 -1 CURVE SMOOTH",
"1020 124 LINE SMOOTH",
"1020 176 OFFCURVE",
"1001 219 OFFCURVE",
"969 250 CURVE",
"1001 280 OFFCURVE",
"1020 323 OFFCURVE",
"1020 375 CURVE SMOOTH",
"1020 467 LINE SMOOTH",
"1020 491 OFFCURVE",
"1013 507 OFFCURVE",
"998 523 CURVE",
"982 538 OFFCURVE",
"966 545 OFFCURVE",
"942 545 CURVE SMOOTH",
"108 545 LINE SMOOTH",
"84 545 OFFCURVE",
"68 538 OFFCURVE",
"53 523 CURVE SMOOTH",
"37 507 OFFCURVE",
"30 491 OFFCURVE",
"30 467 CURVE SMOOTH",
"30 0 LINE SMOOTH",
"30 -25 OFFCURVE",
"50 -45 OFFCURVE",
"75 -45 CURVE SMOOTH",
"100 -45 OFFCURVE",
"120 -25 OFFCURVE",
"120 0 CURVE SMOOTH",
"120 205 LINE",
"850 205 LINE",
"850 204 OFFCURVE",
"857 206 OFFCURVE",
"876 201 CURVE SMOOTH",
"910 192 OFFCURVE",
"930 165 OFFCURVE",
"930 124 CURVE SMOOTH",
"930 -1 LINE SMOOTH",
"930 -26 OFFCURVE",
"950 -46 OFFCURVE",
"975 -46 CURVE SMOOTH"
);
},
{
closed = 1;
nodes = (
"120 455 LINE",
"930 455 LINE",
"930 375 LINE SMOOTH",
"930 325 OFFCURVE",
"900 295 OFFCURVE",
"850 295 CURVE SMOOTH",
"120 295 LINE"
);
}
);
visible = 1;
width = 1050;
},
{
associatedMasterId = "DB0132F3-CD2F-4AE3-8556-0788338384B9";
layerId = "89FC81CB-7A5E-41D4-B972-616B8F5023F6";
name = "Color 0";
paths = (
{
closed = 1;
nodes = (
"953 -16 OFFCURVE",
"960 -9 OFFCURVE",
"960 -1 CURVE SMOOTH",
"960 124 LINE SMOOTH",
"960 182 OFFCURVE",
"932 228 OFFCURVE",
"887 250 CURVE",
"932 271 OFFCURVE",
"960 317 OFFCURVE",
"960 375 CURVE SMOOTH",
"960 489 LINE SMOOTH",
"960 497 OFFCURVE",
"958 502 OFFCURVE",
"953 508 CURVE",
"947 513 OFFCURVE",
"942 515 OFFCURVE",
"934 515 CURVE SMOOTH",
"56 515 LINE SMOOTH",
"48 515 OFFCURVE",
"43 513 OFFCURVE",
"38 508 CURVE SMOOTH",
"32 502 OFFCURVE",
"30 497 OFFCURVE",
"30 489 CURVE SMOOTH",
"30 0 LINE SMOOTH",
"30 -8 OFFCURVE",
"37 -15 OFFCURVE",
"45 -15 CURVE SMOOTH",
"53 -15 OFFCURVE",
"60 -8 OFFCURVE",
"60 0 CURVE SMOOTH",
"60 235 LINE",
"820 235 LINE",
"820 234 OFFCURVE",
"822 234 OFFCURVE",
"829 234 CURVE",
"891 230 OFFCURVE",
"930 188 OFFCURVE",
"930 124 CURVE SMOOTH",
"930 -1 LINE SMOOTH",
"930 -9 OFFCURVE",
"937 -16 OFFCURVE",
"945 -16 CURVE SMOOTH"
);
},
{
closed = 1;
nodes = (
"60 485 LINE",
"930 485 LINE",
"930 375 LINE SMOOTH",
"930 308 OFFCURVE",
"887 265 OFFCURVE",
"820 265 CURVE SMOOTH",
"60 265 LINE"
);
}
);
visible = 1;
width = 990;
},
{
associatedMasterId = "CD9C77F0-B5D7-44C5-837C-E198B13B6DCE";
layerId = "1B8A5DB3-12F2-4281-A250-CE84E9286945";
name = "Color 0";
paths = (
{
closed = 1;
nodes = (
"1015 -56 OFFCURVE",
"1040 -31 OFFCURVE",
"1040 -1 CURVE SMOOTH",
"1040 124 LINE SMOOTH",
"1040 174 OFFCURVE",
"1023 218 OFFCURVE",
"993 250 CURVE",
"1023 281 OFFCURVE",
"1040 325 OFFCURVE",
"1040 375 CURVE SMOOTH",
"1040 460 LINE SMOOTH",
"1040 488 OFFCURVE",
"1032 508 OFFCURVE",
"1013 528 CURVE",
"993 547 OFFCURVE",
"973 555 OFFCURVE",
"945 555 CURVE SMOOTH",
"125 555 LINE SMOOTH",
"97 555 OFFCURVE",
"77 547 OFFCURVE",
"58 528 CURVE SMOOTH",
"38 508 OFFCURVE",
"30 488 OFFCURVE",
"30 460 CURVE SMOOTH",
"30 0 LINE SMOOTH",
"30 -30 OFFCURVE",
"55 -55 OFFCURVE",
"85 -55 CURVE SMOOTH",
"115 -55 OFFCURVE",
"140 -30 OFFCURVE",
"140 0 CURVE SMOOTH",
"140 195 LINE",
"860 195 LINE",
"860 194 OFFCURVE",
"869 197 OFFCURVE",
"891 189 CURVE SMOOTH",
"916 179 OFFCURVE",
"930 157 OFFCURVE",
"930 124 CURVE SMOOTH",
"930 -1 LINE SMOOTH",
"930 -31 OFFCURVE",
"955 -56 OFFCURVE",
"985 -56 CURVE SMOOTH"
);
},
{
closed = 1;
nodes = (
"140 445 LINE",
"930 445 LINE",
"930 375 LINE SMOOTH",
"930 330 OFFCURVE",
"905 305 OFFCURVE",
"860 305 CURVE SMOOTH",
"140 305 LINE"
);
}
);
visible = 1;
width = 1070;
}
);
unicode = 0052;
},
{
glyphname = S;
lastChange = "2018-12-05 10:08:27 +0000";
layers = (
{
layerId = "ADA7F6FF-5955-4EF3-8FA7-BADC10F8EE4C";
paths = (
{
closed = 1;
nodes = (
"942 -45 LINE SMOOTH",
"966 -45 OFFCURVE",
"982 -38 OFFCURVE",
"998 -23 CURVE SMOOTH",
"1013 -7 OFFCURVE",
"1020 9 OFFCURVE",
"1020 33 CURVE SMOOTH",
"1020 217 LINE SMOOTH",
"1020 241 OFFCURVE",
"1013 257 OFFCURVE",
"998 273 CURVE SMOOTH",
"982 288 OFFCURVE",
"966 295 OFFCURVE",
"942 295 CURVE SMOOTH",
"120 295 LINE",
"120 455 LINE",
"975 455 LINE SMOOTH",
"1000 455 OFFCURVE",
"1020 475 OFFCURVE",
"1020 500 CURVE SMOOTH",
"1020 525 OFFCURVE",
"1000 545 OFFCURVE",
"975 545 CURVE SMOOTH",
"108 545 LINE SMOOTH",
"84 545 OFFCURVE",
"68 538 OFFCURVE",
"53 523 CURVE SMOOTH",
"37 507 OFFCURVE",
"30 491 OFFCURVE",
"30 467 CURVE SMOOTH",
"30 283 LINE SMOOTH",
"30 259 OFFCURVE",
"37 243 OFFCURVE",
"53 228 CURVE SMOOTH",
"68 212 OFFCURVE",
"84 205 OFFCURVE",
"108 205 CURVE SMOOTH",
"930 205 LINE",
"930 45 LINE",
"75 45 LINE SMOOTH",
"50 45 OFFCURVE",
"30 25 OFFCURVE",
"30 0 CURVE SMOOTH",
"30 -25 OFFCURVE",
"50 -45 OFFCURVE",
"75 -45 CURVE SMOOTH"
);
}
);
width = 1050;
},
{
layerId = "DB0132F3-CD2F-4AE3-8556-0788338384B9";
paths = (
{
closed = 1;
nodes = (
"934 -15 LINE SMOOTH",
"942 -15 OFFCURVE",
"947 -13 OFFCURVE",
"953 -8 CURVE SMOOTH",
"958 -2 OFFCURVE",
"960 3 OFFCURVE",
"960 11 CURVE SMOOTH",
"960 239 LINE SMOOTH",
"960 247 OFFCURVE",
"958 252 OFFCURVE",
"953 258 CURVE SMOOTH",
"947 263 OFFCURVE",
"942 265 OFFCURVE",
"934 265 CURVE SMOOTH",
"60 265 LINE",
"60 485 LINE",
"945 485 LINE SMOOTH",
"953 485 OFFCURVE",
"960 492 OFFCURVE",
"960 500 CURVE SMOOTH",
"960 508 OFFCURVE",
"953 515 OFFCURVE",
"945 515 CURVE SMOOTH",
"56 515 LINE SMOOTH",
"48 515 OFFCURVE",
"43 513 OFFCURVE",
"38 508 CURVE SMOOTH",
"32 502 OFFCURVE",
"30 497 OFFCURVE",
"30 489 CURVE SMOOTH",
"30 261 LINE SMOOTH",
"30 253 OFFCURVE",
"32 248 OFFCURVE",
"38 243 CURVE SMOOTH",
"43 237 OFFCURVE",
"48 235 OFFCURVE",
"56 235 CURVE SMOOTH",
"930 235 LINE",
"930 15 LINE",
"45 15 LINE SMOOTH",
"37 15 OFFCURVE",
"30 8 OFFCURVE",
"30 0 CURVE SMOOTH",
"30 -8 OFFCURVE",
"37 -15 OFFCURVE",
"45 -15 CURVE SMOOTH"
);
}
);
width = 990;
},
{
layerId = "CD9C77F0-B5D7-44C5-837C-E198B13B6DCE";
paths = (
{
closed = 1;
nodes = (
"945 -55 LINE SMOOTH",
"973 -55 OFFCURVE",
"993 -47 OFFCURVE",
"1013 -28 CURVE SMOOTH",
"1032 -8 OFFCURVE",
"1040 12 OFFCURVE",
"1040 40 CURVE SMOOTH",
"1040 210 LINE SMOOTH",
"1040 238 OFFCURVE",
"1032 258 OFFCURVE",
"1013 278 CURVE SMOOTH",
"993 297 OFFCURVE",
"973 305 OFFCURVE",
"945 305 CURVE SMOOTH",
"140 305 LINE",
"140 445 LINE",
"985 445 LINE SMOOTH",
"1015 445 OFFCURVE",
"1040 470 OFFCURVE",
"1040 500 CURVE SMOOTH",
"1040 530 OFFCURVE",
"1015 555 OFFCURVE",
"985 555 CURVE SMOOTH",
"125 555 LINE SMOOTH",
"97 555 OFFCURVE",
"77 547 OFFCURVE",
"58 528 CURVE SMOOTH",
"38 508 OFFCURVE",
"30 488 OFFCURVE",
"30 460 CURVE SMOOTH",
"30 290 LINE SMOOTH",
"30 262 OFFCURVE",
"38 242 OFFCURVE",
"58 223 CURVE SMOOTH",
"77 203 OFFCURVE",
"97 195 OFFCURVE",
"125 195 CURVE SMOOTH",
"930 195 LINE",
"930 55 LINE",
"85 55 LINE SMOOTH",
"55 55 OFFCURVE",
"30 30 OFFCURVE",
"30 0 CURVE SMOOTH",
"30 -30 OFFCURVE",
"55 -55 OFFCURVE",
"85 -55 CURVE SMOOTH"
);
}
);
width = 1070;
},
{
associatedMasterId = "ADA7F6FF-5955-4EF3-8FA7-BADC10F8EE4C";
layerId = "50FACD65-A151-4223-9DA6-26C37AD49D2E";
name = "Color 0";
paths = (
{
closed = 1;
nodes = (
"942 -45 LINE SMOOTH",
"966 -45 OFFCURVE",
"982 -38 OFFCURVE",
"998 -23 CURVE SMOOTH",
"1013 -7 OFFCURVE",
"1020 9 OFFCURVE",
"1020 33 CURVE SMOOTH",
"1020 217 LINE SMOOTH",
"1020 241 OFFCURVE",
"1013 257 OFFCURVE",
"998 273 CURVE SMOOTH",
"982 288 OFFCURVE",
"966 295 OFFCURVE",
"942 295 CURVE SMOOTH",
"120 295 LINE",
"120 455 LINE",
"975 455 LINE SMOOTH",
"1000 455 OFFCURVE",
"1020 475 OFFCURVE",
"1020 500 CURVE SMOOTH",
"1020 525 OFFCURVE",
"1000 545 OFFCURVE",
"975 545 CURVE SMOOTH",
"108 545 LINE SMOOTH",
"84 545 OFFCURVE",
"68 538 OFFCURVE",
"53 523 CURVE SMOOTH",
"37 507 OFFCURVE",
"30 491 OFFCURVE",
"30 467 CURVE SMOOTH",
"30 283 LINE SMOOTH",
"30 259 OFFCURVE",
"37 243 OFFCURVE",
"53 228 CURVE SMOOTH",
"68 212 OFFCURVE",
"84 205 OFFCURVE",
"108 205 CURVE SMOOTH",
"930 205 LINE",
"930 45 LINE",
"75 45 LINE SMOOTH",
"50 45 OFFCURVE",
"30 25 OFFCURVE",
"30 0 CURVE SMOOTH",
"30 -25 OFFCURVE",
"50 -45 OFFCURVE",
"75 -45 CURVE SMOOTH"
);
}
);
visible = 1;
width = 1050;
},
{
associatedMasterId = "DB0132F3-CD2F-4AE3-8556-0788338384B9";
layerId = "54E3E293-18B4-4707-B4ED-3DB5173B5BF7";
name = "Color 0";
paths = (
{
closed = 1;
nodes = (
"934 -15 LINE SMOOTH",
"942 -15 OFFCURVE",
"947 -13 OFFCURVE",
"953 -8 CURVE SMOOTH",
"958 -2 OFFCURVE",
"960 3 OFFCURVE",
"960 11 CURVE SMOOTH",
"960 239 LINE SMOOTH",
"960 247 OFFCURVE",
"958 252 OFFCURVE",
"953 258 CURVE SMOOTH",
"947 263 OFFCURVE",
"942 265 OFFCURVE",
"934 265 CURVE SMOOTH",
"60 265 LINE",
"60 485 LINE",
"945 485 LINE SMOOTH",
"953 485 OFFCURVE",
"960 492 OFFCURVE",
"960 500 CURVE SMOOTH",
"960 508 OFFCURVE",
"953 515 OFFCURVE",
"945 515 CURVE SMOOTH",
"56 515 LINE SMOOTH",
"48 515 OFFCURVE",
"43 513 OFFCURVE",
"38 508 CURVE SMOOTH",
"32 502 OFFCURVE",
"30 497 OFFCURVE",
"30 489 CURVE SMOOTH",
"30 261 LINE SMOOTH",
"30 253 OFFCURVE",
"32 248 OFFCURVE",
"38 243 CURVE SMOOTH",
"43 237 OFFCURVE",
"48 235 OFFCURVE",
"56 235 CURVE SMOOTH",
"930 235 LINE",
"930 15 LINE",
"45 15 LINE SMOOTH",
"37 15 OFFCURVE",
"30 8 OFFCURVE",
"30 0 CURVE SMOOTH",
"30 -8 OFFCURVE",
"37 -15 OFFCURVE",
"45 -15 CURVE SMOOTH"
);
}
);
visible = 1;
width = 990;
},
{
associatedMasterId = "CD9C77F0-B5D7-44C5-837C-E198B13B6DCE";
layerId = "A9A682DC-C5CF-436F-9537-FF3B5C9608DA";
name = "Color 0";
paths = (
{
closed = 1;
nodes = (
"945 -55 LINE SMOOTH",
"973 -55 OFFCURVE",
"993 -47 OFFCURVE",
"1013 -28 CURVE SMOOTH",
"1032 -8 OFFCURVE",
"1040 12 OFFCURVE",
"1040 40 CURVE SMOOTH",
"1040 210 LINE SMOOTH",
"1040 238 OFFCURVE",
"1032 258 OFFCURVE",
"1013 278 CURVE SMOOTH",
"993 297 OFFCURVE",
"973 305 OFFCURVE",
"945 305 CURVE SMOOTH",
"140 305 LINE",
"140 445 LINE",
"985 445 LINE SMOOTH",
"1015 445 OFFCURVE",
"1040 470 OFFCURVE",
"1040 500 CURVE SMOOTH",
"1040 530 OFFCURVE",
"1015 555 OFFCURVE",
"985 555 CURVE SMOOTH",
"125 555 LINE SMOOTH",
"97 555 OFFCURVE",
"77 547 OFFCURVE",
"58 528 CURVE SMOOTH",
"38 508 OFFCURVE",
"30 488 OFFCURVE",
"30 460 CURVE SMOOTH",
"30 290 LINE SMOOTH",
"30 262 OFFCURVE",
"38 242 OFFCURVE",
"58 223 CURVE SMOOTH",
"77 203 OFFCURVE",
"97 195 OFFCURVE",
"125 195 CURVE SMOOTH",
"930 195 LINE",
"930 55 LINE",
"85 55 LINE SMOOTH",
"55 55 OFFCURVE",
"30 30 OFFCURVE",
"30 0 CURVE SMOOTH",
"30 -30 OFFCURVE",
"55 -55 OFFCURVE",
"85 -55 CURVE SMOOTH"
);
}
);
visible = 1;
width = 1070;
}
);
unicode = 0053;
},
{
glyphname = T;
lastChange = "2018-12-05 10:08:35 +0000";
layers = (
{
layerId = "ADA7F6FF-5955-4EF3-8FA7-BADC10F8EE4C";
paths = (
{
closed = 1;
nodes = (
"550 -45 OFFCURVE",
"570 -25 OFFCURVE",
"570 0 CURVE SMOOTH",
"570 455 LINE",
"975 455 LINE SMOOTH",
"1000 455 OFFCURVE",
"1020 475 OFFCURVE",
"1020 500 CURVE SMOOTH",
"1020 525 OFFCURVE",
"1000 545 OFFCURVE",
"975 545 CURVE SMOOTH",
"75 545 LINE SMOOTH",
"50 545 OFFCURVE",
"30 525 OFFCURVE",
"30 500 CURVE SMOOTH",
"30 475 OFFCURVE",
"50 455 OFFCURVE",
"75 455 CURVE SMOOTH",
"480 455 LINE",
"480 0 LINE SMOOTH",
"480 -25 OFFCURVE",
"500 -45 OFFCURVE",
"525 -45 CURVE SMOOTH"
);
}
);
width = 1050;
},
{
layerId = "DB0132F3-CD2F-4AE3-8556-0788338384B9";
paths = (
{
closed = 1;
nodes = (
"503 -15 OFFCURVE",
"510 -8 OFFCURVE",
"510 0 CURVE SMOOTH",
"510 485 LINE",
"945 485 LINE SMOOTH",
"953 485 OFFCURVE",
"960 492 OFFCURVE",
"960 500 CURVE SMOOTH",
"960 508 OFFCURVE",
"953 515 OFFCURVE",
"945 515 CURVE SMOOTH",
"45 515 LINE SMOOTH",
"37 515 OFFCURVE",
"30 508 OFFCURVE",
"30 500 CURVE SMOOTH",
"30 492 OFFCURVE",
"37 485 OFFCURVE",
"45 485 CURVE SMOOTH",
"480 485 LINE",
"480 0 LINE SMOOTH",
"480 -8 OFFCURVE",
"487 -15 OFFCURVE",
"495 -15 CURVE SMOOTH"
);
}
);
width = 990;
},
{
layerId = "CD9C77F0-B5D7-44C5-837C-E198B13B6DCE";
paths = (
{
closed = 1;
nodes = (
"565 -55 OFFCURVE",
"590 -30 OFFCURVE",
"590 0 CURVE SMOOTH",
"590 445 LINE",
"985 445 LINE SMOOTH",
"1015 445 OFFCURVE",
"1040 470 OFFCURVE",
"1040 500 CURVE SMOOTH",
"1040 530 OFFCURVE",
"1015 555 OFFCURVE",
"985 555 CURVE SMOOTH",
"85 555 LINE SMOOTH",
"55 555 OFFCURVE",
"30 530 OFFCURVE",
"30 500 CURVE SMOOTH",
"30 470 OFFCURVE",
"55 445 OFFCURVE",
"85 445 CURVE SMOOTH",
"480 445 LINE",
"480 0 LINE SMOOTH",
"480 -30 OFFCURVE",
"505 -55 OFFCURVE",
"535 -55 CURVE SMOOTH"
);
}
);
width = 1070;
},
{
associatedMasterId = "ADA7F6FF-5955-4EF3-8FA7-BADC10F8EE4C";
layerId = "2850207B-763C-451E-8086-A38CDCCDC37A";
name = "Color 0";
paths = (
{
closed = 1;
nodes = (
"550 -45 OFFCURVE",
"570 -25 OFFCURVE",
"570 0 CURVE SMOOTH",
"570 455 LINE",
"975 455 LINE SMOOTH",
"1000 455 OFFCURVE",
"1020 475 OFFCURVE",
"1020 500 CURVE SMOOTH",
"1020 525 OFFCURVE",
"1000 545 OFFCURVE",
"975 545 CURVE SMOOTH",
"75 545 LINE SMOOTH",
"50 545 OFFCURVE",
"30 525 OFFCURVE",
"30 500 CURVE SMOOTH",
"30 475 OFFCURVE",
"50 455 OFFCURVE",
"75 455 CURVE SMOOTH",
"480 455 LINE",
"480 0 LINE SMOOTH",
"480 -25 OFFCURVE",
"500 -45 OFFCURVE",
"525 -45 CURVE SMOOTH"
);
}
);
visible = 1;
width = 1050;
},
{
associatedMasterId = "DB0132F3-CD2F-4AE3-8556-0788338384B9";
layerId = "DB168C65-A06B-47F8-BD03-8075A23733AD";
name = "Color 0";
paths = (
{
closed = 1;
nodes = (
"503 -15 OFFCURVE",
"510 -8 OFFCURVE",
"510 0 CURVE SMOOTH",
"510 485 LINE",
"945 485 LINE SMOOTH",
"953 485 OFFCURVE",
"960 492 OFFCURVE",
"960 500 CURVE SMOOTH",
"960 508 OFFCURVE",
"953 515 OFFCURVE",
"945 515 CURVE SMOOTH",
"45 515 LINE SMOOTH",
"37 515 OFFCURVE",
"30 508 OFFCURVE",
"30 500 CURVE SMOOTH",
"30 492 OFFCURVE",
"37 485 OFFCURVE",
"45 485 CURVE SMOOTH",
"480 485 LINE",
"480 0 LINE SMOOTH",
"480 -8 OFFCURVE",
"487 -15 OFFCURVE",
"495 -15 CURVE SMOOTH"
);
}
);
visible = 1;
width = 990;
},
{
associatedMasterId = "CD9C77F0-B5D7-44C5-837C-E198B13B6DCE";
layerId = "4008371C-8E7A-4765-8AC2-A5D11D8CE359";
name = "Color 0";
paths = (
{
closed = 1;
nodes = (
"565 -55 OFFCURVE",
"590 -30 OFFCURVE",
"590 0 CURVE SMOOTH",
"590 445 LINE",
"985 445 LINE SMOOTH",
"1015 445 OFFCURVE",
"1040 470 OFFCURVE",
"1040 500 CURVE SMOOTH",
"1040 530 OFFCURVE",
"1015 555 OFFCURVE",
"985 555 CURVE SMOOTH",
"85 555 LINE SMOOTH",
"55 555 OFFCURVE",
"30 530 OFFCURVE",
"30 500 CURVE SMOOTH",
"30 470 OFFCURVE",
"55 445 OFFCURVE",
"85 445 CURVE SMOOTH",
"480 445 LINE",
"480 0 LINE SMOOTH",
"480 -30 OFFCURVE",
"505 -55 OFFCURVE",
"535 -55 CURVE SMOOTH"
);
}
);
visible = 1;
width = 1070;
}
);
unicode = 0054;
},
{
glyphname = U;
lastChange = "2018-12-05 10:08:42 +0000";
layers = (
{
layerId = "ADA7F6FF-5955-4EF3-8FA7-BADC10F8EE4C";
paths = (
{
closed = 1;
nodes = (
"942 -45 LINE SMOOTH",
"966 -45 OFFCURVE",
"982 -38 OFFCURVE",
"998 -23 CURVE SMOOTH",
"1013 -7 OFFCURVE",
"1020 9 OFFCURVE",
"1020 33 CURVE SMOOTH",
"1020 500 LINE SMOOTH",
"1020 525 OFFCURVE",
"1000 545 OFFCURVE",
"975 545 CURVE SMOOTH",
"950 545 OFFCURVE",
"930 525 OFFCURVE",
"930 500 CURVE SMOOTH",
"930 45 LINE",
"120 45 LINE",
"120 500 LINE SMOOTH",
"120 525 OFFCURVE",
"100 545 OFFCURVE",
"75 545 CURVE SMOOTH",
"50 545 OFFCURVE",
"30 525 OFFCURVE",
"30 500 CURVE SMOOTH",
"30 33 LINE SMOOTH",
"30 9 OFFCURVE",
"37 -7 OFFCURVE",
"53 -23 CURVE SMOOTH",
"68 -38 OFFCURVE",
"84 -45 OFFCURVE",
"108 -45 CURVE SMOOTH"
);
}
);
width = 1050;
},
{
layerId = "DB0132F3-CD2F-4AE3-8556-0788338384B9";
paths = (
{
closed = 1;
nodes = (
"934 -15 LINE SMOOTH",
"942 -15 OFFCURVE",
"947 -13 OFFCURVE",
"953 -8 CURVE SMOOTH",
"958 -2 OFFCURVE",
"960 3 OFFCURVE",
"960 11 CURVE SMOOTH",
"960 500 LINE SMOOTH",
"960 508 OFFCURVE",
"953 515 OFFCURVE",
"945 515 CURVE SMOOTH",
"937 515 OFFCURVE",
"930 508 OFFCURVE",
"930 500 CURVE SMOOTH",
"930 15 LINE",
"60 15 LINE",
"60 500 LINE SMOOTH",
"60 508 OFFCURVE",
"53 515 OFFCURVE",
"45 515 CURVE SMOOTH",
"37 515 OFFCURVE",
"30 508 OFFCURVE",
"30 500 CURVE SMOOTH",
"30 11 LINE SMOOTH",
"30 3 OFFCURVE",
"32 -2 OFFCURVE",
"38 -8 CURVE SMOOTH",
"43 -13 OFFCURVE",
"48 -15 OFFCURVE",
"56 -15 CURVE SMOOTH"
);
}
);
width = 990;
},
{
layerId = "CD9C77F0-B5D7-44C5-837C-E198B13B6DCE";
paths = (
{
closed = 1;
nodes = (
"945 -55 LINE SMOOTH",
"973 -55 OFFCURVE",
"993 -47 OFFCURVE",
"1013 -28 CURVE SMOOTH",
"1032 -8 OFFCURVE",
"1040 12 OFFCURVE",
"1040 40 CURVE SMOOTH",
"1040 500 LINE SMOOTH",
"1040 530 OFFCURVE",
"1015 555 OFFCURVE",
"985 555 CURVE SMOOTH",
"955 555 OFFCURVE",
"930 530 OFFCURVE",
"930 500 CURVE SMOOTH",
"930 55 LINE",
"140 55 LINE",
"140 500 LINE SMOOTH",
"140 530 OFFCURVE",
"115 555 OFFCURVE",
"85 555 CURVE SMOOTH",
"55 555 OFFCURVE",
"30 530 OFFCURVE",
"30 500 CURVE SMOOTH",
"30 40 LINE SMOOTH",
"30 12 OFFCURVE",
"38 -8 OFFCURVE",
"58 -28 CURVE SMOOTH",
"77 -47 OFFCURVE",
"97 -55 OFFCURVE",
"125 -55 CURVE SMOOTH"
);
}
);
width = 1070;
},
{
associatedMasterId = "ADA7F6FF-5955-4EF3-8FA7-BADC10F8EE4C";
layerId = "2C29E52C-A67B-496F-9C47-210D50715183";
name = "Color 0";
paths = (
{
closed = 1;
nodes = (
"942 -45 LINE SMOOTH",
"966 -45 OFFCURVE",
"982 -38 OFFCURVE",
"998 -23 CURVE SMOOTH",
"1013 -7 OFFCURVE",
"1020 9 OFFCURVE",
"1020 33 CURVE SMOOTH",
"1020 500 LINE SMOOTH",
"1020 525 OFFCURVE",
"1000 545 OFFCURVE",
"975 545 CURVE SMOOTH",
"950 545 OFFCURVE",
"930 525 OFFCURVE",
"930 500 CURVE SMOOTH",
"930 45 LINE",
"120 45 LINE",
"120 500 LINE SMOOTH",
"120 525 OFFCURVE",
"100 545 OFFCURVE",
"75 545 CURVE SMOOTH",
"50 545 OFFCURVE",
"30 525 OFFCURVE",
"30 500 CURVE SMOOTH",
"30 33 LINE SMOOTH",
"30 9 OFFCURVE",
"37 -7 OFFCURVE",
"53 -23 CURVE SMOOTH",
"68 -38 OFFCURVE",
"84 -45 OFFCURVE",
"108 -45 CURVE SMOOTH"
);
}
);
visible = 1;
width = 1050;
},
{
associatedMasterId = "DB0132F3-CD2F-4AE3-8556-0788338384B9";
layerId = "92788846-C5D9-4B50-B6E6-FCCD74A7A1B3";
name = "Color 0";
paths = (
{
closed = 1;
nodes = (
"934 -15 LINE SMOOTH",
"942 -15 OFFCURVE",
"947 -13 OFFCURVE",
"953 -8 CURVE SMOOTH",
"958 -2 OFFCURVE",
"960 3 OFFCURVE",
"960 11 CURVE SMOOTH",
"960 500 LINE SMOOTH",
"960 508 OFFCURVE",
"953 515 OFFCURVE",
"945 515 CURVE SMOOTH",
"937 515 OFFCURVE",
"930 508 OFFCURVE",
"930 500 CURVE SMOOTH",
"930 15 LINE",
"60 15 LINE",
"60 500 LINE SMOOTH",
"60 508 OFFCURVE",
"53 515 OFFCURVE",
"45 515 CURVE SMOOTH",
"37 515 OFFCURVE",
"30 508 OFFCURVE",
"30 500 CURVE SMOOTH",
"30 11 LINE SMOOTH",
"30 3 OFFCURVE",
"32 -2 OFFCURVE",
"38 -8 CURVE SMOOTH",
"43 -13 OFFCURVE",
"48 -15 OFFCURVE",
"56 -15 CURVE SMOOTH"
);
}
);
visible = 1;
width = 990;
},
{
associatedMasterId = "CD9C77F0-B5D7-44C5-837C-E198B13B6DCE";
layerId = "AA44BFB6-3BDE-4601-AB32-B3B11184148D";
name = "Color 0";
paths = (
{
closed = 1;
nodes = (
"945 -55 LINE SMOOTH",
"973 -55 OFFCURVE",
"993 -47 OFFCURVE",
"1013 -28 CURVE SMOOTH",
"1032 -8 OFFCURVE",
"1040 12 OFFCURVE",
"1040 40 CURVE SMOOTH",
"1040 500 LINE SMOOTH",
"1040 530 OFFCURVE",
"1015 555 OFFCURVE",
"985 555 CURVE SMOOTH",
"955 555 OFFCURVE",
"930 530 OFFCURVE",
"930 500 CURVE SMOOTH",
"930 55 LINE",
"140 55 LINE",
"140 500 LINE SMOOTH",
"140 530 OFFCURVE",
"115 555 OFFCURVE",
"85 555 CURVE SMOOTH",
"55 555 OFFCURVE",
"30 530 OFFCURVE",
"30 500 CURVE SMOOTH",
"30 40 LINE SMOOTH",
"30 12 OFFCURVE",
"38 -8 OFFCURVE",
"58 -28 CURVE SMOOTH",
"77 -47 OFFCURVE",
"97 -55 OFFCURVE",
"125 -55 CURVE SMOOTH"
);
}
);
visible = 1;
width = 1070;
}
);
unicode = 0055;
},
{
glyphname = V;
lastChange = "2018-12-05 10:08:49 +0000";
layers = (
{
layerId = "ADA7F6FF-5955-4EF3-8FA7-BADC10F8EE4C";
paths = (
{
closed = 1;
nodes = (
"549 -30 OFFCURVE",
"565 -23 OFFCURVE",
"581 -5 CURVE SMOOTH",
"1008 470 LINE",
"1016 478 OFFCURVE",
"1020 488 OFFCURVE",
"1020 500 CURVE SMOOTH",
"1020 525 OFFCURVE",
"1000 545 OFFCURVE",
"975 545 CURVE SMOOTH",
"962 545 OFFCURVE",
"950 539 OFFCURVE",
"941 530 CURVE",
"525 67 LINE",
"109 530 LINE",
"100 539 OFFCURVE",
"88 545 OFFCURVE",
"75 545 CURVE SMOOTH",
"50 545 OFFCURVE",
"30 525 OFFCURVE",
"30 500 CURVE SMOOTH",
"30 488 OFFCURVE",
"34 478 OFFCURVE",
"42 470 CURVE",
"469 -5 LINE SMOOTH",
"485 -23 OFFCURVE",
"501 -30 OFFCURVE",
"525 -30 CURVE SMOOTH"
);
}
);
width = 1050;
},
{
layerId = "DB0132F3-CD2F-4AE3-8556-0788338384B9";
paths = (
{
closed = 1;
nodes = (
"503 -10 OFFCURVE",
"508 -8 OFFCURVE",
"514 -2 CURVE SMOOTH",
"956 490 LINE SMOOTH",
"959 493 OFFCURVE",
"960 496 OFFCURVE",
"960 500 CURVE SMOOTH",
"960 508 OFFCURVE",
"953 515 OFFCURVE",
"945 515 CURVE SMOOTH",
"941 515 OFFCURVE",
"937 513 OFFCURVE",
"934 510 CURVE SMOOTH",
"495 22 LINE",
"56 510 LINE SMOOTH",
"53 513 OFFCURVE",
"49 515 OFFCURVE",
"45 515 CURVE SMOOTH",
"37 515 OFFCURVE",
"30 508 OFFCURVE",
"30 500 CURVE SMOOTH",
"30 496 OFFCURVE",
"31 493 OFFCURVE",
"34 490 CURVE SMOOTH",
"476 -2 LINE SMOOTH",
"482 -8 OFFCURVE",
"487 -10 OFFCURVE",
"495 -10 CURVE SMOOTH"
);
}
);
width = 990;
},
{
layerId = "CD9C77F0-B5D7-44C5-837C-E198B13B6DCE";
paths = (
{
closed = 1;
nodes = (
"564 -37 OFFCURVE",
"584 -28 OFFCURVE",
"603 -7 CURVE SMOOTH",
"1026 463 LINE SMOOTH",
"1035 473 OFFCURVE",
"1040 486 OFFCURVE",
"1040 500 CURVE SMOOTH",
"1040 530 OFFCURVE",
"1015 555 OFFCURVE",
"985 555 CURVE SMOOTH",
"969 555 OFFCURVE",
"954 548 OFFCURVE",
"944 537 CURVE SMOOTH",
"535 82 LINE",
"126 537 LINE SMOOTH",
"116 548 OFFCURVE",
"101 555 OFFCURVE",
"85 555 CURVE SMOOTH",
"55 555 OFFCURVE",
"30 530 OFFCURVE",
"30 500 CURVE SMOOTH",
"30 486 OFFCURVE",
"35 473 OFFCURVE",
"44 463 CURVE SMOOTH",
"467 -7 LINE SMOOTH",
"486 -28 OFFCURVE",
"506 -37 OFFCURVE",
"535 -37 CURVE SMOOTH"
);
}
);
width = 1070;
},
{
associatedMasterId = "ADA7F6FF-5955-4EF3-8FA7-BADC10F8EE4C";
layerId = "22D76369-012A-45C5-87A4-03E8CF670C4B";
name = "Color 0";
paths = (
{
closed = 1;
nodes = (
"549 -30 OFFCURVE",
"565 -23 OFFCURVE",
"581 -5 CURVE SMOOTH",
"1008 470 LINE",
"1016 478 OFFCURVE",
"1020 488 OFFCURVE",
"1020 500 CURVE SMOOTH",
"1020 525 OFFCURVE",
"1000 545 OFFCURVE",
"975 545 CURVE SMOOTH",
"962 545 OFFCURVE",
"950 539 OFFCURVE",
"941 530 CURVE",
"525 67 LINE",
"109 530 LINE",
"100 539 OFFCURVE",
"88 545 OFFCURVE",
"75 545 CURVE SMOOTH",
"50 545 OFFCURVE",
"30 525 OFFCURVE",
"30 500 CURVE SMOOTH",
"30 488 OFFCURVE",
"34 478 OFFCURVE",
"42 470 CURVE",
"469 -5 LINE SMOOTH",
"485 -23 OFFCURVE",
"501 -30 OFFCURVE",
"525 -30 CURVE SMOOTH"
);
}
);
visible = 1;
width = 1050;
},
{
associatedMasterId = "DB0132F3-CD2F-4AE3-8556-0788338384B9";
layerId = "AF16A9B6-6D39-4A97-9090-593655D44B5A";
name = "Color 0";
paths = (
{
closed = 1;
nodes = (
"503 -10 OFFCURVE",
"508 -8 OFFCURVE",
"514 -2 CURVE SMOOTH",
"956 490 LINE SMOOTH",
"959 493 OFFCURVE",
"960 496 OFFCURVE",
"960 500 CURVE SMOOTH",
"960 508 OFFCURVE",
"953 515 OFFCURVE",
"945 515 CURVE SMOOTH",
"941 515 OFFCURVE",
"937 513 OFFCURVE",
"934 510 CURVE SMOOTH",
"495 22 LINE",
"56 510 LINE SMOOTH",
"53 513 OFFCURVE",
"49 515 OFFCURVE",
"45 515 CURVE SMOOTH",
"37 515 OFFCURVE",
"30 508 OFFCURVE",
"30 500 CURVE SMOOTH",
"30 496 OFFCURVE",
"31 493 OFFCURVE",
"34 490 CURVE SMOOTH",
"476 -2 LINE SMOOTH",
"482 -8 OFFCURVE",
"487 -10 OFFCURVE",
"495 -10 CURVE SMOOTH"
);
}
);
visible = 1;
width = 990;
},
{
associatedMasterId = "CD9C77F0-B5D7-44C5-837C-E198B13B6DCE";
layerId = "389BA462-E1E7-4C28-9D1C-6ADA47629E23";
name = "Color 0";
paths = (
{
closed = 1;
nodes = (
"564 -37 OFFCURVE",
"584 -28 OFFCURVE",
"603 -7 CURVE SMOOTH",
"1026 463 LINE SMOOTH",
"1035 473 OFFCURVE",
"1040 486 OFFCURVE",
"1040 500 CURVE SMOOTH",
"1040 530 OFFCURVE",
"1015 555 OFFCURVE",
"985 555 CURVE SMOOTH",
"969 555 OFFCURVE",
"954 548 OFFCURVE",
"944 537 CURVE SMOOTH",
"535 82 LINE",
"126 537 LINE SMOOTH",
"116 548 OFFCURVE",
"101 555 OFFCURVE",
"85 555 CURVE SMOOTH",
"55 555 OFFCURVE",
"30 530 OFFCURVE",
"30 500 CURVE SMOOTH",
"30 486 OFFCURVE",
"35 473 OFFCURVE",
"44 463 CURVE SMOOTH",
"467 -7 LINE SMOOTH",
"486 -28 OFFCURVE",
"506 -37 OFFCURVE",
"535 -37 CURVE SMOOTH"
);
}
);
visible = 1;
width = 1070;
}
);
unicode = 0056;
},
{
glyphname = W;
lastChange = "2018-12-05 10:08:56 +0000";
layers = (
{
layerId = "ADA7F6FF-5955-4EF3-8FA7-BADC10F8EE4C";
paths = (
{
closed = 1;
nodes = (
"831 18 LINE",
"1016 482 LINE",
"933 516 LINE",
"770 110 LINE",
"582 487 LINE",
"468 487 LINE",
"280 110 LINE",
"117 516 LINE",
"34 482 LINE",
"219 18 LINE",
"332 13 LINE",
"525 399 LINE",
"718 13 LINE"
);
}
);
width = 1050;
},
{
layerId = "DB0132F3-CD2F-4AE3-8556-0788338384B9";
paths = (
{
closed = 1;
nodes = (
"263 4 LINE",
"494 466 LINE",
"725 4 LINE",
"763 6 LINE",
"958 494 LINE",
"930 505 LINE",
"742 37 LINE",
"513 496 LINE",
"475 496 LINE",
"246 37 LINE",
"58 505 LINE",
"30 494 LINE",
"225 6 LINE"
);
}
);
width = 988;
},
{
layerId = "CD9C77F0-B5D7-44C5-837C-E198B13B6DCE";
paths = (
{
closed = 1;
nodes = (
"931 0 LINE",
"1124 482 LINE",
"999 516 LINE",
"853 164 LINE",
"682 487 LINE",
"489 487 LINE",
"346 164 LINE",
"215 540 LINE",
"30 482 LINE",
"276 0 LINE",
"409 0 LINE",
"591 333 LINE",
"774 0 LINE"
);
}
);
width = 1154;
},
{
associatedMasterId = "ADA7F6FF-5955-4EF3-8FA7-BADC10F8EE4C";
layerId = "DC65B2A4-B7F4-49B7-8DED-2DFCF917BB14";
name = "Color 0";
paths = (
{
closed = 1;
nodes = (
"831 18 LINE",
"1016 482 LINE",
"933 516 LINE",
"770 110 LINE",
"582 487 LINE",
"468 487 LINE",
"280 110 LINE",
"117 516 LINE",
"34 482 LINE",
"219 18 LINE",
"332 13 LINE",
"525 399 LINE",
"718 13 LINE"
);
}
);
visible = 1;
width = 1050;
},
{
associatedMasterId = "DB0132F3-CD2F-4AE3-8556-0788338384B9";
layerId = "7B1AFE89-0C60-4DB1-B18D-2B07E0008544";
name = "Color 0";
paths = (
{
closed = 1;
nodes = (
"263 4 LINE",
"494 466 LINE",
"725 4 LINE",
"763 6 LINE",
"958 494 LINE",
"930 505 LINE",
"742 37 LINE",
"513 496 LINE",
"475 496 LINE",
"246 37 LINE",
"58 505 LINE",
"30 494 LINE",
"225 6 LINE"
);
}
);
visible = 1;
width = 988;
},
{
associatedMasterId = "CD9C77F0-B5D7-44C5-837C-E198B13B6DCE";
layerId = "75D7A96A-BA65-4F03-9657-4A9C3637947A";
name = "Color 0";
paths = (
{
closed = 1;
nodes = (
"931 0 LINE",
"1124 482 LINE",
"999 516 LINE",
"853 164 LINE",
"682 487 LINE",
"489 487 LINE",
"346 164 LINE",
"215 540 LINE",
"30 482 LINE",
"276 0 LINE",
"409 0 LINE",
"591 333 LINE",
"774 0 LINE"
);
}
);
visible = 1;
width = 1154;
}
);
unicode = 0057;
},
{
glyphname = X;
lastChange = "2018-12-05 10:09:03 +0000";
layers = (
{
layerId = "ADA7F6FF-5955-4EF3-8FA7-BADC10F8EE4C";
paths = (
{
closed = 1;
nodes = (
"83 -45 OFFCURVE",
"91 -43 OFFCURVE",
"98 -39 CURVE SMOOTH",
"525 199 LINE",
"952 -39 LINE SMOOTH",
"959 -43 OFFCURVE",
"967 -45 OFFCURVE",
"975 -45 CURVE SMOOTH",
"1000 -45 OFFCURVE",
"1020 -25 OFFCURVE",
"1020 0 CURVE SMOOTH",
"1020 17 OFFCURVE",
"1010 32 OFFCURVE",
"996 40 CURVE SMOOTH",
"618 250 LINE",
"996 460 LINE SMOOTH",
"1010 468 OFFCURVE",
"1020 483 OFFCURVE",
"1020 500 CURVE SMOOTH",
"1020 525 OFFCURVE",
"1000 545 OFFCURVE",
"975 545 CURVE SMOOTH",
"967 545 OFFCURVE",
"959 543 OFFCURVE",
"952 539 CURVE SMOOTH",
"525 301 LINE",
"98 539 LINE SMOOTH",
"91 543 OFFCURVE",
"83 545 OFFCURVE",
"75 545 CURVE SMOOTH",
"50 545 OFFCURVE",
"30 525 OFFCURVE",
"30 500 CURVE SMOOTH",
"30 483 OFFCURVE",
"40 468 OFFCURVE",
"54 460 CURVE SMOOTH",
"432 250 LINE",
"54 40 LINE SMOOTH",
"40 32 OFFCURVE",
"30 17 OFFCURVE",
"30 0 CURVE SMOOTH",
"30 -25 OFFCURVE",
"50 -45 OFFCURVE",
"75 -45 CURVE SMOOTH"
);
}
);
width = 1050;
},
{
layerId = "DB0132F3-CD2F-4AE3-8556-0788338384B9";
paths = (
{
closed = 1;
nodes = (
"48 -15 OFFCURVE",
"50 -14 OFFCURVE",
"53 -13 CURVE SMOOTH",
"495 233 LINE",
"937 -13 LINE SMOOTH",
"940 -14 OFFCURVE",
"942 -15 OFFCURVE",
"945 -15 CURVE SMOOTH",
"953 -15 OFFCURVE",
"960 -8 OFFCURVE",
"960 0 CURVE SMOOTH",
"960 6 OFFCURVE",
"957 11 OFFCURVE",
"952 13 CURVE SMOOTH",
"526 250 LINE",
"952 487 LINE SMOOTH",
"957 489 OFFCURVE",
"960 494 OFFCURVE",
"960 500 CURVE SMOOTH",
"960 508 OFFCURVE",
"953 515 OFFCURVE",
"945 515 CURVE SMOOTH",
"942 515 OFFCURVE",
"940 514 OFFCURVE",
"937 513 CURVE SMOOTH",
"495 267 LINE",
"53 513 LINE SMOOTH",
"50 514 OFFCURVE",
"48 515 OFFCURVE",
"45 515 CURVE SMOOTH",
"37 515 OFFCURVE",
"30 508 OFFCURVE",
"30 500 CURVE SMOOTH",
"30 494 OFFCURVE",
"33 489 OFFCURVE",
"38 487 CURVE SMOOTH",
"464 250 LINE",
"38 13 LINE SMOOTH",
"33 11 OFFCURVE",
"30 6 OFFCURVE",
"30 0 CURVE SMOOTH",
"30 -8 OFFCURVE",
"37 -15 OFFCURVE",
"45 -15 CURVE SMOOTH"
);
}
);
width = 990;
},
{
layerId = "CD9C77F0-B5D7-44C5-837C-E198B13B6DCE";
paths = (
{
closed = 1;
nodes = (
"95 -55 OFFCURVE",
"104 -52 OFFCURVE",
"113 -48 CURVE SMOOTH",
"535 187 LINE",
"957 -48 LINE SMOOTH",
"966 -52 OFFCURVE",
"975 -55 OFFCURVE",
"985 -55 CURVE SMOOTH",
"1015 -55 OFFCURVE",
"1040 -30 OFFCURVE",
"1040 0 CURVE SMOOTH",
"1040 21 OFFCURVE",
"1028 39 OFFCURVE",
"1011 49 CURVE SMOOTH",
"648 250 LINE",
"1011 451 LINE SMOOTH",
"1028 461 OFFCURVE",
"1040 479 OFFCURVE",
"1040 500 CURVE SMOOTH",
"1040 530 OFFCURVE",
"1015 555 OFFCURVE",
"985 555 CURVE SMOOTH",
"975 555 OFFCURVE",
"966 552 OFFCURVE",
"957 548 CURVE SMOOTH",
"535 313 LINE",
"113 548 LINE SMOOTH",
"104 552 OFFCURVE",
"95 555 OFFCURVE",
"85 555 CURVE SMOOTH",
"55 555 OFFCURVE",
"30 530 OFFCURVE",
"30 500 CURVE SMOOTH",
"30 479 OFFCURVE",
"42 461 OFFCURVE",
"59 451 CURVE SMOOTH",
"422 250 LINE",
"59 49 LINE SMOOTH",
"42 39 OFFCURVE",
"30 21 OFFCURVE",
"30 0 CURVE SMOOTH",
"30 -30 OFFCURVE",
"55 -55 OFFCURVE",
"85 -55 CURVE SMOOTH"
);
}
);
width = 1070;
},
{
associatedMasterId = "ADA7F6FF-5955-4EF3-8FA7-BADC10F8EE4C";
layerId = "D7FA95C9-8300-4587-933A-4977924A9584";
name = "Color 0";
paths = (
{
closed = 1;
nodes = (
"83 -45 OFFCURVE",
"91 -43 OFFCURVE",
"98 -39 CURVE SMOOTH",
"525 199 LINE",
"952 -39 LINE SMOOTH",
"959 -43 OFFCURVE",
"967 -45 OFFCURVE",
"975 -45 CURVE SMOOTH",
"1000 -45 OFFCURVE",
"1020 -25 OFFCURVE",
"1020 0 CURVE SMOOTH",
"1020 17 OFFCURVE",
"1010 32 OFFCURVE",
"996 40 CURVE SMOOTH",
"618 250 LINE",
"996 460 LINE SMOOTH",
"1010 468 OFFCURVE",
"1020 483 OFFCURVE",
"1020 500 CURVE SMOOTH",
"1020 525 OFFCURVE",
"1000 545 OFFCURVE",
"975 545 CURVE SMOOTH",
"967 545 OFFCURVE",
"959 543 OFFCURVE",
"952 539 CURVE SMOOTH",
"525 301 LINE",
"98 539 LINE SMOOTH",
"91 543 OFFCURVE",
"83 545 OFFCURVE",
"75 545 CURVE SMOOTH",
"50 545 OFFCURVE",
"30 525 OFFCURVE",
"30 500 CURVE SMOOTH",
"30 483 OFFCURVE",
"40 468 OFFCURVE",
"54 460 CURVE SMOOTH",
"432 250 LINE",
"54 40 LINE SMOOTH",
"40 32 OFFCURVE",
"30 17 OFFCURVE",
"30 0 CURVE SMOOTH",
"30 -25 OFFCURVE",
"50 -45 OFFCURVE",
"75 -45 CURVE SMOOTH"
);
}
);
visible = 1;
width = 1050;
},
{
associatedMasterId = "DB0132F3-CD2F-4AE3-8556-0788338384B9";
layerId = "CDE4BDA7-9BE9-4758-AD0F-7AF0F9D4FCFD";
name = "Color 0";
paths = (
{
closed = 1;
nodes = (
"48 -15 OFFCURVE",
"50 -14 OFFCURVE",
"53 -13 CURVE SMOOTH",
"495 233 LINE",
"937 -13 LINE SMOOTH",
"940 -14 OFFCURVE",
"942 -15 OFFCURVE",
"945 -15 CURVE SMOOTH",
"953 -15 OFFCURVE",
"960 -8 OFFCURVE",
"960 0 CURVE SMOOTH",
"960 6 OFFCURVE",
"957 11 OFFCURVE",
"952 13 CURVE SMOOTH",
"526 250 LINE",
"952 487 LINE SMOOTH",
"957 489 OFFCURVE",
"960 494 OFFCURVE",
"960 500 CURVE SMOOTH",
"960 508 OFFCURVE",
"953 515 OFFCURVE",
"945 515 CURVE SMOOTH",
"942 515 OFFCURVE",
"940 514 OFFCURVE",
"937 513 CURVE SMOOTH",
"495 267 LINE",
"53 513 LINE SMOOTH",
"50 514 OFFCURVE",
"48 515 OFFCURVE",
"45 515 CURVE SMOOTH",
"37 515 OFFCURVE",
"30 508 OFFCURVE",
"30 500 CURVE SMOOTH",
"30 494 OFFCURVE",
"33 489 OFFCURVE",
"38 487 CURVE SMOOTH",
"464 250 LINE",
"38 13 LINE SMOOTH",
"33 11 OFFCURVE",
"30 6 OFFCURVE",
"30 0 CURVE SMOOTH",
"30 -8 OFFCURVE",
"37 -15 OFFCURVE",
"45 -15 CURVE SMOOTH"
);
}
);
visible = 1;
width = 990;
},
{
associatedMasterId = "CD9C77F0-B5D7-44C5-837C-E198B13B6DCE";
layerId = "4345C1C8-F76A-4BB8-8201-CDFDF544AF7F";
name = "Color 0";
paths = (
{
closed = 1;
nodes = (
"95 -55 OFFCURVE",
"104 -52 OFFCURVE",
"113 -48 CURVE SMOOTH",
"535 187 LINE",
"957 -48 LINE SMOOTH",
"966 -52 OFFCURVE",
"975 -55 OFFCURVE",
"985 -55 CURVE SMOOTH",
"1015 -55 OFFCURVE",
"1040 -30 OFFCURVE",
"1040 0 CURVE SMOOTH",
"1040 21 OFFCURVE",
"1028 39 OFFCURVE",
"1011 49 CURVE SMOOTH",
"648 250 LINE",
"1011 451 LINE SMOOTH",
"1028 461 OFFCURVE",
"1040 479 OFFCURVE",
"1040 500 CURVE SMOOTH",
"1040 530 OFFCURVE",
"1015 555 OFFCURVE",
"985 555 CURVE SMOOTH",
"975 555 OFFCURVE",
"966 552 OFFCURVE",
"957 548 CURVE SMOOTH",
"535 313 LINE",
"113 548 LINE SMOOTH",
"104 552 OFFCURVE",
"95 555 OFFCURVE",
"85 555 CURVE SMOOTH",
"55 555 OFFCURVE",
"30 530 OFFCURVE",
"30 500 CURVE SMOOTH",
"30 479 OFFCURVE",
"42 461 OFFCURVE",
"59 451 CURVE SMOOTH",
"422 250 LINE",
"59 49 LINE SMOOTH",
"42 39 OFFCURVE",
"30 21 OFFCURVE",
"30 0 CURVE SMOOTH",
"30 -30 OFFCURVE",
"55 -55 OFFCURVE",
"85 -55 CURVE SMOOTH"
);
}
);
visible = 1;
width = 1070;
}
);
unicode = 0058;
},
{
glyphname = Y;
lastChange = "2018-12-05 10:09:10 +0000";
layers = (
{
layerId = "ADA7F6FF-5955-4EF3-8FA7-BADC10F8EE4C";
paths = (
{
closed = 1;
nodes = (
"550 -45 OFFCURVE",
"570 -25 OFFCURVE",
"570 0 CURVE SMOOTH",
"570 80 LINE",
"1005 466 LINE SMOOTH",
"1014 474 OFFCURVE",
"1020 487 OFFCURVE",
"1020 500 CURVE SMOOTH",
"1020 525 OFFCURVE",
"1000 545 OFFCURVE",
"975 545 CURVE SMOOTH",
"963 545 OFFCURVE",
"953 541 OFFCURVE",
"945 534 CURVE SMOOTH",
"525 160 LINE",
"105 534 LINE SMOOTH",
"97 541 OFFCURVE",
"87 545 OFFCURVE",
"75 545 CURVE SMOOTH",
"50 545 OFFCURVE",
"30 525 OFFCURVE",
"30 500 CURVE SMOOTH",
"30 487 OFFCURVE",
"36 474 OFFCURVE",
"45 466 CURVE SMOOTH",
"480 80 LINE",
"480 0 LINE SMOOTH",
"480 -25 OFFCURVE",
"500 -45 OFFCURVE",
"525 -45 CURVE SMOOTH"
);
}
);
width = 1050;
},
{
layerId = "DB0132F3-CD2F-4AE3-8556-0788338384B9";
paths = (
{
closed = 1;
nodes = (
"503 -15 OFFCURVE",
"510 -8 OFFCURVE",
"510 0 CURVE SMOOTH",
"510 93 LINE",
"955 489 LINE SMOOTH",
"958 491 OFFCURVE",
"960 496 OFFCURVE",
"960 500 CURVE SMOOTH",
"960 508 OFFCURVE",
"953 515 OFFCURVE",
"945 515 CURVE SMOOTH",
"941 515 OFFCURVE",
"938 514 OFFCURVE",
"935 511 CURVE SMOOTH",
"495 120 LINE",
"55 511 LINE SMOOTH",
"52 514 OFFCURVE",
"49 515 OFFCURVE",
"45 515 CURVE SMOOTH",
"37 515 OFFCURVE",
"30 508 OFFCURVE",
"30 500 CURVE SMOOTH",
"30 496 OFFCURVE",
"32 491 OFFCURVE",
"35 489 CURVE SMOOTH",
"480 93 LINE",
"480 0 LINE SMOOTH",
"480 -8 OFFCURVE",
"487 -15 OFFCURVE",
"495 -15 CURVE SMOOTH"
);
}
);
width = 990;
},
{
layerId = "CD9C77F0-B5D7-44C5-837C-E198B13B6DCE";
paths = (
{
closed = 1;
nodes = (
"565 -55 OFFCURVE",
"590 -30 OFFCURVE",
"590 0 CURVE SMOOTH",
"590 75 LINE",
"1021 459 LINE SMOOTH",
"1033 469 OFFCURVE",
"1040 484 OFFCURVE",
"1040 500 CURVE SMOOTH",
"1040 530 OFFCURVE",
"1015 555 OFFCURVE",
"985 555 CURVE SMOOTH",
"971 555 OFFCURVE",
"958 550 OFFCURVE",
"948 541 CURVE SMOOTH",
"535 174 LINE",
"122 541 LINE SMOOTH",
"112 550 OFFCURVE",
"99 555 OFFCURVE",
"85 555 CURVE SMOOTH",
"55 555 OFFCURVE",
"30 530 OFFCURVE",
"30 500 CURVE SMOOTH",
"30 484 OFFCURVE",
"37 469 OFFCURVE",
"49 459 CURVE SMOOTH",
"480 75 LINE",
"480 0 LINE SMOOTH",
"480 -30 OFFCURVE",
"505 -55 OFFCURVE",
"535 -55 CURVE SMOOTH"
);
}
);
width = 1070;
},
{
associatedMasterId = "ADA7F6FF-5955-4EF3-8FA7-BADC10F8EE4C";
layerId = "FFB5FB47-1127-4868-9477-2AF03F31CB6E";
name = "Color 0";
paths = (
{
closed = 1;
nodes = (
"550 -45 OFFCURVE",
"570 -25 OFFCURVE",
"570 0 CURVE SMOOTH",
"570 80 LINE",
"1005 466 LINE SMOOTH",
"1014 474 OFFCURVE",
"1020 487 OFFCURVE",
"1020 500 CURVE SMOOTH",
"1020 525 OFFCURVE",
"1000 545 OFFCURVE",
"975 545 CURVE SMOOTH",
"963 545 OFFCURVE",
"953 541 OFFCURVE",
"945 534 CURVE SMOOTH",
"525 160 LINE",
"105 534 LINE SMOOTH",
"97 541 OFFCURVE",
"87 545 OFFCURVE",
"75 545 CURVE SMOOTH",
"50 545 OFFCURVE",
"30 525 OFFCURVE",
"30 500 CURVE SMOOTH",
"30 487 OFFCURVE",
"36 474 OFFCURVE",
"45 466 CURVE SMOOTH",
"480 80 LINE",
"480 0 LINE SMOOTH",
"480 -25 OFFCURVE",
"500 -45 OFFCURVE",
"525 -45 CURVE SMOOTH"
);
}
);
visible = 1;
width = 1050;
},
{
associatedMasterId = "DB0132F3-CD2F-4AE3-8556-0788338384B9";
layerId = "0C97DEC0-4ECB-4EAE-AC3B-F882D3FF3680";
name = "Color 0";
paths = (
{
closed = 1;
nodes = (
"503 -15 OFFCURVE",
"510 -8 OFFCURVE",
"510 0 CURVE SMOOTH",
"510 93 LINE",
"955 489 LINE SMOOTH",
"958 491 OFFCURVE",
"960 496 OFFCURVE",
"960 500 CURVE SMOOTH",
"960 508 OFFCURVE",
"953 515 OFFCURVE",
"945 515 CURVE SMOOTH",
"941 515 OFFCURVE",
"938 514 OFFCURVE",
"935 511 CURVE SMOOTH",
"495 120 LINE",
"55 511 LINE SMOOTH",
"52 514 OFFCURVE",
"49 515 OFFCURVE",
"45 515 CURVE SMOOTH",
"37 515 OFFCURVE",
"30 508 OFFCURVE",
"30 500 CURVE SMOOTH",
"30 496 OFFCURVE",
"32 491 OFFCURVE",
"35 489 CURVE SMOOTH",
"480 93 LINE",
"480 0 LINE SMOOTH",
"480 -8 OFFCURVE",
"487 -15 OFFCURVE",
"495 -15 CURVE SMOOTH"
);
}
);
visible = 1;
width = 990;
},
{
associatedMasterId = "CD9C77F0-B5D7-44C5-837C-E198B13B6DCE";
layerId = "4CFC34B0-C462-4E17-B2C7-93009A499FB5";
name = "Color 0";
paths = (
{
closed = 1;
nodes = (
"565 -55 OFFCURVE",
"590 -30 OFFCURVE",
"590 0 CURVE SMOOTH",
"590 75 LINE",
"1021 459 LINE SMOOTH",
"1033 469 OFFCURVE",
"1040 484 OFFCURVE",
"1040 500 CURVE SMOOTH",
"1040 530 OFFCURVE",
"1015 555 OFFCURVE",
"985 555 CURVE SMOOTH",
"971 555 OFFCURVE",
"958 550 OFFCURVE",
"948 541 CURVE SMOOTH",
"535 174 LINE",
"122 541 LINE SMOOTH",
"112 550 OFFCURVE",
"99 555 OFFCURVE",
"85 555 CURVE SMOOTH",
"55 555 OFFCURVE",
"30 530 OFFCURVE",
"30 500 CURVE SMOOTH",
"30 484 OFFCURVE",
"37 469 OFFCURVE",
"49 459 CURVE SMOOTH",
"480 75 LINE",
"480 0 LINE SMOOTH",
"480 -30 OFFCURVE",
"505 -55 OFFCURVE",
"535 -55 CURVE SMOOTH"
);
}
);
visible = 1;
width = 1070;
}
);
unicode = 0059;
},
{
glyphname = Z;
lastChange = "2018-12-05 10:09:16 +0000";
layers = (
{
layerId = "ADA7F6FF-5955-4EF3-8FA7-BADC10F8EE4C";
paths = (
{
closed = 1;
nodes = (
"975 -45 LINE SMOOTH",
"1000 -45 OFFCURVE",
"1020 -25 OFFCURVE",
"1020 0 CURVE SMOOTH",
"1020 25 OFFCURVE",
"1000 45 OFFCURVE",
"975 45 CURVE SMOOTH",
"249 45 LINE",
"962 441 LINE SMOOTH",
"985 454 OFFCURVE",
"994 473 OFFCURVE",
"987 499 CURVE SMOOTH",
"985 506 LINE SMOOTH",
"978 532 OFFCURVE",
"962 545 OFFCURVE",
"935 545 CURVE SMOOTH",
"75 545 LINE SMOOTH",
"50 545 OFFCURVE",
"30 525 OFFCURVE",
"30 500 CURVE SMOOTH",
"30 475 OFFCURVE",
"50 455 OFFCURVE",
"75 455 CURVE SMOOTH",
"801 455 LINE",
"88 59 LINE SMOOTH",
"65 46 OFFCURVE",
"56 27 OFFCURVE",
"63 1 CURVE SMOOTH",
"65 -6 LINE SMOOTH",
"72 -32 OFFCURVE",
"88 -45 OFFCURVE",
"115 -45 CURVE SMOOTH"
);
}
);
width = 1050;
},
{
layerId = "DB0132F3-CD2F-4AE3-8556-0788338384B9";
paths = (
{
closed = 1;
nodes = (
"945 -15 LINE SMOOTH",
"953 -15 OFFCURVE",
"960 -8 OFFCURVE",
"960 0 CURVE SMOOTH",
"960 8 OFFCURVE",
"953 15 OFFCURVE",
"945 15 CURVE SMOOTH",
"103 15 LINE",
"941 480 LINE SMOOTH",
"948 485 OFFCURVE",
"951 491 OFFCURVE",
"949 500 CURVE SMOOTH",
"948 502 LINE SMOOTH",
"946 511 OFFCURVE",
"941 515 OFFCURVE",
"932 515 CURVE SMOOTH",
"45 515 LINE SMOOTH",
"37 515 OFFCURVE",
"30 508 OFFCURVE",
"30 500 CURVE SMOOTH",
"30 492 OFFCURVE",
"37 485 OFFCURVE",
"45 485 CURVE SMOOTH",
"887 485 LINE",
"49 20 LINE SMOOTH",
"42 15 OFFCURVE",
"39 9 OFFCURVE",
"41 0 CURVE SMOOTH",
"42 -2 LINE SMOOTH",
"44 -11 OFFCURVE",
"49 -15 OFFCURVE",
"58 -15 CURVE SMOOTH"
);
}
);
width = 990;
},
{
layerId = "CD9C77F0-B5D7-44C5-837C-E198B13B6DCE";
paths = (
{
closed = 1;
nodes = (
"985 -55 LINE SMOOTH",
"1015 -55 OFFCURVE",
"1040 -30 OFFCURVE",
"1040 0 CURVE SMOOTH",
"1040 30 OFFCURVE",
"1015 55 OFFCURVE",
"985 55 CURVE SMOOTH",
"297 55 LINE",
"969 428 LINE SMOOTH",
"998 444 OFFCURVE",
"1008 467 OFFCURVE",
"999 499 CURVE SMOOTH",
"997 508 LINE SMOOTH",
"989 540 OFFCURVE",
"969 555 OFFCURVE",
"936 555 CURVE SMOOTH",
"85 555 LINE SMOOTH",
"55 555 OFFCURVE",
"30 530 OFFCURVE",
"30 500 CURVE SMOOTH",
"30 470 OFFCURVE",
"55 445 OFFCURVE",
"85 445 CURVE SMOOTH",
"773 445 LINE",
"101 72 LINE SMOOTH",
"72 56 OFFCURVE",
"62 33 OFFCURVE",
"71 1 CURVE SMOOTH",
"73 -8 LINE SMOOTH",
"81 -40 OFFCURVE",
"101 -55 OFFCURVE",
"134 -55 CURVE SMOOTH"
);
}
);
width = 1070;
},
{
associatedMasterId = "ADA7F6FF-5955-4EF3-8FA7-BADC10F8EE4C";
layerId = "794C527D-5CE1-454F-AB4A-1C638FC27300";
name = "Color 0";
paths = (
{
closed = 1;
nodes = (
"975 -45 LINE SMOOTH",
"1000 -45 OFFCURVE",
"1020 -25 OFFCURVE",
"1020 0 CURVE SMOOTH",
"1020 25 OFFCURVE",
"1000 45 OFFCURVE",
"975 45 CURVE SMOOTH",
"249 45 LINE",
"962 441 LINE SMOOTH",
"985 454 OFFCURVE",
"994 473 OFFCURVE",
"987 499 CURVE SMOOTH",
"985 506 LINE SMOOTH",
"978 532 OFFCURVE",
"962 545 OFFCURVE",
"935 545 CURVE SMOOTH",
"75 545 LINE SMOOTH",
"50 545 OFFCURVE",
"30 525 OFFCURVE",
"30 500 CURVE SMOOTH",
"30 475 OFFCURVE",
"50 455 OFFCURVE",
"75 455 CURVE SMOOTH",
"801 455 LINE",
"88 59 LINE SMOOTH",
"65 46 OFFCURVE",
"56 27 OFFCURVE",
"63 1 CURVE SMOOTH",
"65 -6 LINE SMOOTH",
"72 -32 OFFCURVE",
"88 -45 OFFCURVE",
"115 -45 CURVE SMOOTH"
);
}
);
visible = 1;
width = 1050;
},
{
associatedMasterId = "DB0132F3-CD2F-4AE3-8556-0788338384B9";
layerId = "F2675840-2C37-459C-A925-16713286194D";
name = "Color 0";
paths = (
{
closed = 1;
nodes = (
"945 -15 LINE SMOOTH",
"953 -15 OFFCURVE",
"960 -8 OFFCURVE",
"960 0 CURVE SMOOTH",
"960 8 OFFCURVE",
"953 15 OFFCURVE",
"945 15 CURVE SMOOTH",
"103 15 LINE",
"941 480 LINE SMOOTH",
"948 485 OFFCURVE",
"951 491 OFFCURVE",
"949 500 CURVE SMOOTH",
"948 502 LINE SMOOTH",
"946 511 OFFCURVE",
"941 515 OFFCURVE",
"932 515 CURVE SMOOTH",
"45 515 LINE SMOOTH",
"37 515 OFFCURVE",
"30 508 OFFCURVE",
"30 500 CURVE SMOOTH",
"30 492 OFFCURVE",
"37 485 OFFCURVE",
"45 485 CURVE SMOOTH",
"887 485 LINE",
"49 20 LINE SMOOTH",
"42 15 OFFCURVE",
"39 9 OFFCURVE",
"41 0 CURVE SMOOTH",
"42 -2 LINE SMOOTH",
"44 -11 OFFCURVE",
"49 -15 OFFCURVE",
"58 -15 CURVE SMOOTH"
);
}
);
visible = 1;
width = 990;
},
{
associatedMasterId = "CD9C77F0-B5D7-44C5-837C-E198B13B6DCE";
layerId = "F20DD86D-B484-4523-9356-06067A0DFF57";
name = "Color 0";
paths = (
{
closed = 1;
nodes = (
"985 -55 LINE SMOOTH",
"1015 -55 OFFCURVE",
"1040 -30 OFFCURVE",
"1040 0 CURVE SMOOTH",
"1040 30 OFFCURVE",
"1015 55 OFFCURVE",
"985 55 CURVE SMOOTH",
"297 55 LINE",
"969 428 LINE SMOOTH",
"998 444 OFFCURVE",
"1008 467 OFFCURVE",
"999 499 CURVE SMOOTH",
"997 508 LINE SMOOTH",
"989 540 OFFCURVE",
"969 555 OFFCURVE",
"936 555 CURVE SMOOTH",
"85 555 LINE SMOOTH",
"55 555 OFFCURVE",
"30 530 OFFCURVE",
"30 500 CURVE SMOOTH",
"30 470 OFFCURVE",
"55 445 OFFCURVE",
"85 445 CURVE SMOOTH",
"773 445 LINE",
"101 72 LINE SMOOTH",
"72 56 OFFCURVE",
"62 33 OFFCURVE",
"71 1 CURVE SMOOTH",
"73 -8 LINE SMOOTH",
"81 -40 OFFCURVE",
"101 -55 OFFCURVE",
"134 -55 CURVE SMOOTH"
);
}
);
visible = 1;
width = 1070;
}
);
unicode = 005A;
},
